<?xml version="1.0" encoding="UTF-8" standalone="no"?>
<!-- Created with Inkscape (http://www.inkscape.org/) -->

<svg
   width="210mm"
   height="297mm"
   viewBox="0 0 210 297"
   version="1.1"
   id="svg5"
   inkscape:version="1.1.1 (3bf5ae0d25, 2021-09-20)"
   sodipodi:docname="artlorenew.svg"
   xmlns:inkscape="http://www.inkscape.org/namespaces/inkscape"
   xmlns:sodipodi="http://sodipodi.sourceforge.net/DTD/sodipodi-0.dtd"
   xmlns="http://www.w3.org/2000/svg"
   xmlns:svg="http://www.w3.org/2000/svg">
  <sodipodi:namedview
     id="namedview7"
     pagecolor="#ffffff"
     bordercolor="#666666"
     borderopacity="1.0"
     inkscape:pageshadow="2"
     inkscape:pageopacity="0.0"
     inkscape:pagecheckerboard="0"
     inkscape:document-units="mm"
     showgrid="false"
     inkscape:zoom="0.90457686"
     inkscape:cx="263.65919"
     inkscape:cy="545.55894"
     inkscape:window-width="1920"
     inkscape:window-height="991"
     inkscape:window-x="-9"
     inkscape:window-y="-9"
     inkscape:window-maximized="1"
     inkscape:current-layer="layer1" />
  <defs
     id="defs2" />
  <g
     inkscape:label="Layer 1"
     inkscape:groupmode="layer"
     id="layer1">
    <rect
       style="opacity:0.621572;fill:#00065f;fill-rule:evenodd;stroke:#081616;stroke-width:0.0649999;stroke-linecap:round;stroke-linejoin:round;stroke-opacity:0.914634"
       id="rect846"
       width="8.6866293"
       height="132.36769"
       x="28.128134"
       y="54.601669" />
    <path
       id="rect848"
       style="opacity:0.621572;fill:#00065f;fill-rule:evenodd;stroke:#081616;stroke-width:0.245669;stroke-linecap:round;stroke-linejoin:round;stroke-opacity:0.914634"
       d="M 193.09375 731.61133 C 190.75393 734.06543 188.41627 736.52085 186.09375 738.99023 C 184.53209 740.43595 183.38495 741.53934 182.21289 742.61328 L 187.54492 742.61328 C 188.45346 740.78805 189.35597 738.95947 190.27344 737.13867 C 191.20421 735.29147 192.15275 733.45344 193.09375 731.61133 z "
       transform="scale(0.26458333)" />
    <path
       id="path5279"
       style="opacity:0.621572;fill:#00065f;fill-rule:evenodd;stroke:#081616;stroke-width:0.245669;stroke-linecap:round;stroke-linejoin:round;stroke-opacity:0.914634"
       d="M 206.30664 706.65625 C 204.50897 709.93626 202.71081 713.21833 200.65625 717.07422 C 198.88524 720.39797 197.13565 723.73362 195.40625 727.07812 C 194.62702 728.58509 193.86546 730.10061 193.09375 731.61133 C 193.75197 730.92096 194.40237 730.22371 195.0625 729.53516 C 198.06926 726.39895 201.09786 723.28244 204.1582 720.19922 C 205.68837 718.65761 207.22562 717.12326 208.77344 715.59961 C 210.32125 714.07596 211.87897 712.5631 213.44727 711.06055 C 214.99162 709.58093 216.54633 708.11238 218.11328 706.65625 L 206.30664 706.65625 z "
       transform="scale(0.26458333)" />
    <path
       id="path5277"
       style="opacity:0.621572;fill:#00065f;fill-rule:evenodd;stroke:#081616;stroke-width:0.245669;stroke-linecap:round;stroke-linejoin:round;stroke-opacity:0.914634"
       d="M 576.87695 738.47266 C 577.84652 738.87924 578.81594 739.28883 579.78516 739.69531 C 579.79109 739.69769 579.7968 739.70074 579.80273 739.70312 C 579.79691 739.19316 579.79276 738.68326 579.78711 738.17383 C 579.73884 737.04432 579.66888 735.91533 579.5918 734.78711 C 579.51471 733.65889 579.43021 732.53055 579.35352 731.40234 C 579.27682 730.27414 579.20725 729.14509 579.16016 728.01562 C 579.11306 726.88616 579.08985 725.75701 579.10156 724.625 C 579.11203 724.31925 579.13282 724.01563 579.14844 723.71094 C 579.13057 723.79712 579.10947 723.88252 579.0918 723.96875 C 578.82278 725.28098 578.57557 726.59829 578.34766 727.91992 C 578.11975 729.24156 577.91058 730.56772 577.7168 731.89648 C 577.52301 733.22525 577.34437 734.55701 577.17773 735.89062 C 577.07033 736.75022 576.97547 737.61182 576.87695 738.47266 z "
       transform="scale(0.26458333)" />
    <path
       id="path5275"
       style="opacity:0.621572;fill:#00065f;fill-rule:evenodd;stroke:#081616;stroke-width:0.245669;stroke-linecap:round;stroke-linejoin:round;stroke-opacity:0.914634"
       d="M 505.23242 741.50586 C 505.20498 741.57092 505.17379 741.63409 505.14648 741.69922 C 505.04875 741.93235 504.9612 742.17031 504.86523 742.4043 C 504.9891 742.44219 505.11063 742.48711 505.23438 742.52539 C 505.23413 742.18558 505.23167 741.84567 505.23242 741.50586 z "
       transform="scale(0.26458333)" />
    <path
       id="path5273"
       style="opacity:0.621572;fill:#00065f;fill-rule:evenodd;stroke:#081616;stroke-width:0.245669;stroke-linecap:round;stroke-linejoin:round;stroke-opacity:0.914634"
       d="M 549.15039 726.31836 C 548.65099 727.89467 548.13348 729.46538 547.66211 731.05078 C 549.21826 731.81305 550.77649 732.57124 552.33789 733.32227 C 552.42537 733.00484 552.51015 732.68652 552.59766 732.36914 C 552.99007 731.07714 553.41953 729.7976 553.83008 728.51172 C 552.26225 727.79693 550.70841 727.05361 549.15039 726.31836 z "
       transform="scale(0.26458333)" />
    <path
       id="path5271"
       style="opacity:0.621572;fill:#00065f;fill-rule:evenodd;stroke:#081616;stroke-width:0.245669;stroke-linecap:round;stroke-linejoin:round;stroke-opacity:0.914634"
       d="M 526.15234 714.83398 C 525.38337 715.99496 525.56623 715.72343 524.45898 717.39258 C 524.11342 717.91351 523.76348 718.43615 523.41602 718.95703 C 525.64462 720.07325 527.88116 721.17338 530.10742 722.29492 C 535.33852 724.93023 540.56891 727.5677 545.82227 730.15625 C 546.43401 730.45768 547.04969 730.75079 547.66211 731.05078 C 548.13348 729.46538 548.65099 727.89467 549.15039 726.31836 C 548.15314 725.84775 547.14689 725.39621 546.1543 724.91602 C 543.6669 723.71268 541.19437 722.48143 538.72852 721.23633 C 536.26266 719.99122 533.80303 718.73274 531.34375 717.47461 C 529.61541 716.59042 527.88373 715.71252 526.15234 714.83398 z "
       transform="scale(0.26458333)" />
    <path
       id="path5269"
       style="opacity:0.621572;fill:#00065f;fill-rule:evenodd;stroke:#081616;stroke-width:0.245669;stroke-linecap:round;stroke-linejoin:round;stroke-opacity:0.914634"
       d="M 503.17773 709.06836 C 503.33244 710.44753 503.48842 711.83211 503.64844 713.19727 C 503.65808 713.69209 503.69026 714.18155 503.74219 714.66797 C 503.79411 715.15438 503.8654 715.63708 503.94922 716.11719 C 504.03024 716.58126 504.14872 717.03794 504.25 717.49805 C 506.53443 715.98513 508.83338 714.49607 511.13477 713.00977 C 510.68266 712.80387 510.2207 712.61791 509.77148 712.40625 C 508.25103 711.68985 506.7475 710.94192 505.25391 710.17188 C 504.55744 709.8128 503.86988 709.43604 503.17773 709.06836 z "
       transform="scale(0.26458333)" />
    <path
       id="path5267"
       style="opacity:0.621572;fill:#00065f;fill-rule:evenodd;stroke:#081616;stroke-width:0.245669;stroke-linecap:round;stroke-linejoin:round;stroke-opacity:0.914634"
       d="M 500.83008 719.79492 C 501.88832 719.08579 502.93825 718.36394 504 717.66016 C 504.0828 717.60527 504.16718 717.5529 504.25 717.49805 C 504.14872 717.03794 504.03024 716.58126 503.94922 716.11719 C 503.8654 715.63708 503.79411 715.15438 503.74219 714.66797 C 503.69026 714.18155 503.65808 713.69209 503.64844 713.19727 C 503.48842 711.83211 503.33244 710.44753 503.17773 709.06836 C 502.38555 708.64754 501.58867 708.236 500.80078 707.80664 C 500.11405 707.43241 499.43254 707.04856 498.74805 706.66992 C 498.79142 706.99484 498.83878 707.31958 498.88086 707.64453 C 499.14366 709.67398 499.38637 711.70343 499.66797 713.70898 C 499.676 714.20447 499.71237 714.69304 499.77148 715.17773 C 499.8306 715.66242 499.91247 716.14253 500.00977 716.61914 C 500.10706 717.09575 500.21923 717.56976 500.3418 718.04102 C 500.46436 718.51227 500.59749 718.9806 500.73242 719.44922 C 500.76558 719.56436 500.79666 719.67983 500.83008 719.79492 z "
       transform="scale(0.26458333)" />
    <path
       id="path5265"
       style="opacity:0.621572;fill:#00065f;fill-rule:evenodd;stroke:#081616;stroke-width:0.245669;stroke-linecap:round;stroke-linejoin:round;stroke-opacity:0.914634"
       d="M 505.59766 723.51367 C 505.5827 723.42683 505.5744 723.33862 505.55859 723.25195 C 505.47106 722.77191 505.37123 722.29617 505.26367 721.82031 C 505.04855 720.8686 504.80323 719.92218 504.57031 718.97461 C 504.44996 718.485 504.35828 717.98995 504.25 717.49805 C 504.16718 717.5529 504.0828 717.60527 504 717.66016 C 502.93825 718.36394 501.88832 719.08579 500.83008 719.79492 C 501.06864 720.61661 501.31325 721.43652 501.52539 722.26367 C 501.64632 722.73517 501.757 723.20852 501.85156 723.68555 C 501.94612 724.16257 502.02479 724.64364 502.08008 725.12891 C 502.07215 725.3765 502.05507 725.62359 502.04492 725.87109 C 502.31332 725.69282 502.58122 725.51424 502.84961 725.33594 C 503.52916 724.88448 504.79244 724.04913 505.59766 723.51367 z "
       transform="scale(0.26458333)" />
    <path
       id="path5263"
       style="opacity:0.621572;fill:#00065f;fill-rule:evenodd;stroke:#081616;stroke-width:0.245669;stroke-linecap:round;stroke-linejoin:round;stroke-opacity:0.914634"
       d="M 517.17383 715.84375 C 516.24241 715.38357 515.31768 714.90808 514.38477 714.45117 C 513.28788 713.99775 512.21288 713.50075 511.13477 713.00977 C 508.83338 714.49607 506.53443 715.98513 504.25 717.49805 C 504.35828 717.98995 504.44996 718.485 504.57031 718.97461 C 504.80323 719.92218 505.04855 720.8686 505.26367 721.82031 C 505.37123 722.29617 505.47106 722.77191 505.55859 723.25195 C 505.5744 723.33862 505.5827 723.42683 505.59766 723.51367 C 508.86749 721.33928 512.54905 718.88736 516.75781 716.11523 C 516.9001 716.02152 517.03154 715.93741 517.17383 715.84375 z "
       transform="scale(0.26458333)" />
    <path
       id="path5261"
       style="opacity:0.621572;fill:#00065f;fill-rule:evenodd;stroke:#081616;stroke-width:0.245669;stroke-linecap:round;stroke-linejoin:round;stroke-opacity:0.914634"
       d="M 521.71875 712.87305 C 521.79382 712.8241 521.87048 712.77337 521.94531 712.72461 C 521.91405 712.70902 521.88283 712.69332 521.85156 712.67773 C 521.80699 712.74264 521.76329 712.80812 521.71875 712.87305 z "
       transform="scale(0.26458333)" />
    <path
       id="path5259"
       style="opacity:0.621572;fill:#00065f;fill-rule:evenodd;stroke:#081616;stroke-width:0.245669;stroke-linecap:round;stroke-linejoin:round;stroke-opacity:0.914634"
       d="M 521.71875 712.87305 C 521.76329 712.80812 521.80699 712.74264 521.85156 712.67773 C 520.07919 711.79417 518.30891 710.90746 516.52344 710.04883 C 516.37282 709.9869 516.22648 709.91609 516.07617 709.85352 C 515.16343 710.43169 514.24198 710.99543 513.33203 711.57812 C 512.59588 712.04953 511.86913 712.53549 511.13477 713.00977 C 512.21288 713.50075 513.28788 713.99775 514.38477 714.45117 C 515.31768 714.90808 516.24241 715.38357 517.17383 715.84375 C 518.72903 714.82009 520.2138 713.85433 521.71875 712.87305 z "
       transform="scale(0.26458333)" />
    <path
       id="path5257"
       style="opacity:0.621572;fill:#00065f;fill-rule:evenodd;stroke:#081616;stroke-width:0.245669;stroke-linecap:round;stroke-linejoin:round;stroke-opacity:0.914634"
       d="M 519.06445 716.78516 C 520.51623 717.50601 521.96655 718.23105 523.41602 718.95703 C 523.76348 718.43615 524.11342 717.91351 524.45898 717.39258 C 525.56623 715.72343 525.38337 715.99496 526.15234 714.83398 C 525.42011 714.46244 524.69047 714.08606 523.95703 713.7168 C 523.28927 713.3806 522.61438 713.05832 521.94531 712.72461 C 521.87048 712.77337 521.79382 712.8241 521.71875 712.87305 C 520.82723 714.17262 519.93955 715.47412 519.06445 716.78516 z "
       transform="scale(0.26458333)" />
    <path
       id="path5255"
       style="opacity:0.621572;fill:#00065f;fill-rule:evenodd;stroke:#081616;stroke-width:0.245669;stroke-linecap:round;stroke-linejoin:round;stroke-opacity:0.914634"
       d="M 519.06445 716.78516 C 519.93955 715.47412 520.82723 714.17262 521.71875 712.87305 C 520.2138 713.85433 518.72903 714.82009 517.17383 715.84375 C 517.80487 716.15552 518.43399 716.47211 519.06445 716.78516 z "
       transform="scale(0.26458333)" />
    <path
       id="path5253"
       style="opacity:0.621572;fill:#00065f;fill-rule:evenodd;stroke:#081616;stroke-width:0.245669;stroke-linecap:round;stroke-linejoin:round;stroke-opacity:0.914634"
       d="M 506.49609 738.63477 C 507.85391 739.08575 509.2044 739.55853 510.54688 740.05469 C 510.62653 739.88796 510.69865 739.7181 510.78125 739.55273 C 511.26601 738.58222 511.76948 737.62155 512.28711 736.66797 C 512.80473 735.71439 513.33767 734.76714 513.88281 733.82812 C 514.42796 732.88911 514.98542 731.95807 515.55273 731.03125 C 516.12005 730.10443 516.69711 729.18262 517.28125 728.26562 C 518.44953 726.43164 519.64613 724.61555 520.84961 722.80664 C 521.70533 721.52044 522.56101 720.23875 523.41602 718.95703 C 521.96655 718.23105 520.51623 717.50601 519.06445 716.78516 C 518.96498 716.93418 518.86287 717.08127 518.76367 717.23047 C 517.61053 718.96473 516.47617 720.71113 515.36914 722.47266 C 514.26211 724.23418 513.18347 726.0123 512.14062 727.80859 C 511.6192 728.70674 511.10745 729.60933 510.60547 730.51758 C 510.10348 731.42583 509.61115 732.33852 509.13086 733.25781 C 508.65057 734.1771 508.18094 735.10193 507.72461 736.0332 C 507.30285 736.89391 506.89553 737.76306 506.49609 738.63477 z "
       transform="scale(0.26458333)" />
    <path
       id="path5251"
       style="opacity:0.621572;fill:#00065f;fill-rule:evenodd;stroke:#081616;stroke-width:0.245669;stroke-linecap:round;stroke-linejoin:round;stroke-opacity:0.914634"
       d="M 505.26562 738.22266 C 505.25175 739.20603 505.23365 740.18848 505.23047 741.17188 C 505.23011 741.28319 505.23267 741.39454 505.23242 741.50586 C 505.60864 740.61384 505.99365 739.72766 506.39453 738.84766 C 506.42712 738.77611 506.46335 738.70623 506.49609 738.63477 C 506.24598 738.55169 506.00065 738.45446 505.75 738.37305 C 505.58927 738.32084 505.42658 738.27417 505.26562 738.22266 z "
       transform="scale(0.26458333)" />
    <path
       id="path5249"
       style="opacity:0.621572;fill:#00065f;fill-rule:evenodd;stroke:#081616;stroke-width:0.0649999;stroke-linecap:round;stroke-linejoin:round;stroke-opacity:0.914634"
       d="m 133.68486,194.79224 c 0.0426,0.0136 0.0856,0.026 0.12816,0.0398 0.0663,0.0215 0.13123,0.0473 0.1974,0.0693 0.10569,-0.23064 0.21346,-0.4606 0.32505,-0.68833 0.12074,-0.2464 0.24499,-0.49109 0.37207,-0.73432 0.12708,-0.24323 0.25734,-0.48471 0.39016,-0.72502 0.13281,-0.24031 0.26821,-0.47912 0.40617,-0.71676 0.27592,-0.47526 0.56131,-0.94573 0.85421,-1.41179 0.2929,-0.46608 0.59304,-0.92814 0.89814,-1.387 0.0262,-0.0395 0.0533,-0.0784 0.0796,-0.11782 -0.16681,-0.0828 -0.33326,-0.16659 -0.50023,-0.24908 -0.0376,0.0248 -0.0724,0.047 -0.11007,0.0718 -1.11357,0.73345 -2.08764,1.38219 -2.95279,1.9575 0.018,0.10429 0.0352,0.20875 0.0475,0.31419 -0.001,0.26185 -0.008,0.52377 -0.0176,0.78548 -0.01,0.26172 -0.0228,0.52328 -0.0367,0.78497 -0.0279,0.52337 -0.0592,1.04713 -0.076,1.57096 -0.003,0.14543 -0.003,0.29072 -0.005,0.43615 z" />
    <path
       id="path5247"
       style="opacity:0.621572;fill:#00065f;fill-rule:evenodd;stroke:#081616;stroke-width:0.245669;stroke-linecap:round;stroke-linejoin:round;stroke-opacity:0.914634"
       d="M 501.37891 737.06055 C 501.33907 738.39753 501.30608 739.73488 501.29102 741.07227 C 501.28981 741.17905 501.29208 741.28579 501.29102 741.39258 C 502.41735 741.7005 503.54742 741.9983 504.66406 742.33789 C 504.73164 742.35844 504.79769 742.38363 504.86523 742.4043 C 504.9612 742.17031 505.04875 741.93235 505.14648 741.69922 C 505.17379 741.63409 505.20498 741.57092 505.23242 741.50586 C 505.23267 741.39454 505.23011 741.28319 505.23047 741.17188 C 505.23365 740.18848 505.25175 739.20603 505.26562 738.22266 C 504.51006 737.98084 503.75277 737.74147 502.99219 737.51562 C 502.45661 737.35659 501.91703 737.21121 501.37891 737.06055 z "
       transform="scale(0.26458333)" />
    <path
       id="path5245"
       style="opacity:0.621572;fill:#00065f;fill-rule:evenodd;stroke:#081616;stroke-width:0.245669;stroke-linecap:round;stroke-linejoin:round;stroke-opacity:0.914634"
       d="M 501.37891 737.06055 C 501.91703 737.21121 502.45661 737.35659 502.99219 737.51562 C 503.75277 737.74147 504.51006 737.98084 505.26562 738.22266 C 505.27338 737.67301 505.27333 737.12386 505.28516 736.57422 C 505.34846 734.59437 505.46689 732.61481 505.57227 730.63672 C 505.62495 729.64767 505.67372 728.65909 505.71094 727.66992 C 505.74815 726.68076 505.77292 725.69082 505.77734 724.70117 C 505.73053 724.30265 505.66552 723.90784 505.59766 723.51367 C 504.79244 724.04913 503.52916 724.88448 502.84961 725.33594 C 502.58122 725.51424 502.31332 725.69282 502.04492 725.87109 C 502.01649 726.56478 501.98699 727.25797 501.94531 727.95117 C 501.88877 728.89171 501.8234 729.83311 501.75586 730.77344 C 501.62078 732.65409 501.47919 734.53541 501.39258 736.41992 C 501.38551 736.63341 501.38527 736.84705 501.37891 737.06055 z "
       transform="scale(0.26458333)" />
    <path
       id="path5243"
       style="opacity:0.621572;fill:#00065f;fill-rule:evenodd;stroke:#081616;stroke-width:0.245669;stroke-linecap:round;stroke-linejoin:round;stroke-opacity:0.914634"
       d="M 489.00391 734.54883 C 488.18372 735.09622 487.36053 735.63913 486.54102 736.1875 C 485.58054 736.83018 484.62342 737.4787 483.66406 738.12305 C 484.30181 738.21131 484.9406 738.29082 485.57812 738.38086 C 488.36429 738.77434 491.14858 739.18367 493.93164 739.60156 C 495.74511 739.97343 497.54532 740.38907 499.33398 740.8457 C 499.99064 741.01334 500.63766 741.21396 501.29102 741.39258 C 501.29208 741.28579 501.28981 741.17905 501.29102 741.07227 C 501.30608 739.73488 501.33907 738.39753 501.37891 737.06055 C 500.99004 736.95168 500.60311 736.83675 500.21289 736.73242 C 499.28267 736.48371 498.34826 736.24695 497.41016 736.02539 C 496.47205 735.80383 495.53024 735.5968 494.58398 735.4043 C 492.7259 735.1036 490.86499 734.82899 489.00391 734.54883 z "
       transform="scale(0.26458333)" />
    <path
       id="path5241"
       style="opacity:0.621572;fill:#00065f;fill-rule:evenodd;stroke:#081616;stroke-width:0.245669;stroke-linecap:round;stroke-linejoin:round;stroke-opacity:0.914634"
       d="M 489.00391 734.54883 C 490.86499 734.82899 492.7259 735.1036 494.58398 735.4043 C 495.53024 735.5968 496.47205 735.80383 497.41016 736.02539 C 498.34826 736.24695 499.28267 736.48371 500.21289 736.73242 C 500.60311 736.83675 500.99004 736.95168 501.37891 737.06055 C 501.38527 736.84705 501.38551 736.63341 501.39258 736.41992 C 501.47919 734.53541 501.62078 732.65409 501.75586 730.77344 C 501.8234 729.83311 501.88877 728.89171 501.94531 727.95117 C 501.98699 727.25797 502.01649 726.56478 502.04492 725.87109 C 497.69448 728.76072 493.34695 731.65031 489.00391 734.54883 z "
       transform="scale(0.26458333)" />
    <path
       id="path5239"
       style="opacity:0.621572;fill:#00065f;fill-rule:evenodd;stroke:#081616;stroke-width:0.245669;stroke-linecap:round;stroke-linejoin:round;stroke-opacity:0.914634"
       d="M 481.07617 733.4375 C 479.55635 734.51658 478.02949 735.58714 476.51562 736.67383 C 476.31675 736.81658 476.12065 736.96259 475.92188 737.10547 C 476.35184 737.15877 476.78307 737.2014 477.21289 737.25586 C 479.36531 737.52856 481.51468 737.82558 483.66406 738.12305 C 484.62342 737.4787 485.58054 736.83018 486.54102 736.1875 C 487.36053 735.63913 488.18372 735.09622 489.00391 734.54883 C 488.05283 734.40565 487.10425 734.2483 486.15234 734.11133 C 484.46293 733.86823 482.76836 733.65859 481.07617 733.4375 z "
       transform="scale(0.26458333)" />
    <path
       id="path5237"
       style="opacity:0.621572;fill:#00065f;fill-rule:evenodd;stroke:#081616;stroke-width:0.0649999;stroke-linecap:round;stroke-linejoin:round;stroke-opacity:0.914634"
       d="m 127.28474,194.5845 c 0.44772,0.0585 0.89608,0.11397 1.34307,0.17829 0.25185,0.0362 0.50283,0.0779 0.75447,0.11575 1.1491,-0.7669 2.29938,-1.53144 3.45044,-2.29598 0.003,-0.0655 0.007,-0.13086 0.009,-0.19637 -0.0146,-0.1284 -0.0354,-0.25568 -0.0605,-0.38189 -0.025,-0.12621 -0.0543,-0.25146 -0.0863,-0.37621 -0.0561,-0.21885 -0.12085,-0.43578 -0.18397,-0.65319 -0.53629,0.35938 -1.07359,0.71736 -1.60662,1.08159 -0.81132,0.5544 -1.61883,1.1141 -2.42311,1.67845 -0.40051,0.28104 -0.79794,0.56635 -1.19682,0.84956 z" />
    <path
       id="path5235"
       style="opacity:0.621572;fill:#00065f;fill-rule:evenodd;stroke:#081616;stroke-width:0.245669;stroke-linecap:round;stroke-linejoin:round;stroke-opacity:0.914634"
       d="M 443.07422 716.28906 C 443.05521 716.76234 443.03579 717.23615 443.02148 717.70898 C 442.99564 718.56296 442.98038 719.41463 442.98828 720.26562 C 442.99618 721.11662 443.02838 721.96646 443.09375 722.8125 C 443.14402 723.46345 443.25192 724.10799 443.375 724.75 C 443.49808 725.39201 443.63563 726.03198 443.74414 726.67578 C 443.90178 727.11552 444.05095 727.57878 444.20898 728.04883 C 444.36701 728.51887 444.53384 728.99501 444.72852 729.45703 C 444.82585 729.68804 444.92967 729.9149 445.04297 730.13672 C 445.15627 730.35853 445.27831 730.57537 445.41211 730.7832 C 445.5459 730.99103 445.69079 731.18985 445.84961 731.37891 C 446.00843 731.56796 446.18271 731.74663 446.37109 731.91211 C 446.60566 732.11816 446.84693 732.31173 447.0957 732.49219 C 447.34448 732.67264 447.59977 732.8413 447.86133 732.99805 C 448.12288 733.1548 448.39117 733.29866 448.66406 733.43359 C 448.93696 733.56853 449.21524 733.69358 449.49805 733.80859 C 450.06365 734.03861 450.64751 734.23092 451.24414 734.39258 C 451.84077 734.55423 452.45024 734.68455 453.06641 734.79297 C 453.68258 734.90138 454.30545 734.9883 454.92969 735.05859 C 455.55392 735.12889 456.17801 735.18318 456.79883 735.23047 C 458.04047 735.32505 459.26472 735.38913 460.42383 735.48242 C 463.23008 735.70992 466.03232 735.97711 468.83008 736.27539 C 471.19698 736.52774 473.55986 736.81267 475.92188 737.10547 C 476.12065 736.96259 476.31675 736.81658 476.51562 736.67383 C 478.02949 735.58714 479.55635 734.51658 481.07617 733.4375 C 479.94912 733.29025 478.82367 733.1246 477.69531 732.98828 C 474.87282 732.64729 472.0461 732.34239 469.21484 732.08008 C 467.79921 731.94892 466.38283 731.82944 464.96484 731.7207 C 463.54686 731.61197 462.12749 731.51417 460.70703 731.42969 C 460.14112 731.39586 459.28193 731.35712 458.2793 731.29688 C 457.27666 731.23663 456.13023 731.15458 454.99414 731.0332 C 454.4261 730.97252 453.86095 730.90279 453.31641 730.82031 C 452.77186 730.73784 452.24876 730.6418 451.76562 730.5332 C 451.28249 730.4246 450.83889 730.30313 450.45508 730.16406 C 450.26317 730.09453 450.08575 730.02132 449.92578 729.94336 C 449.76581 729.8654 449.62329 729.78225 449.5 729.69531 C 449.36715 729.60164 449.24597 729.49089 449.13281 729.36523 C 449.01966 729.23958 448.91428 729.09893 448.81836 728.94922 C 448.62652 728.6498 448.46769 728.31103 448.33008 727.96289 C 448.05485 727.26661 447.86753 726.53636 447.69141 726.02539 C 447.60637 725.49714 447.49475 724.97015 447.39648 724.44336 C 447.29822 723.91657 447.21362 723.38955 447.18164 722.85547 C 447.12751 721.95138 447.10473 721.04372 447.10156 720.13477 C 447.09839 719.22581 447.11448 718.31595 447.13867 717.4043 C 447.18705 715.58099 447.26701 713.75281 447.2832 711.93164 C 447.2913 711.02106 447.2834 710.11189 447.24805 709.20508 C 447.22359 708.5779 447.16416 707.95458 447.10938 707.33008 C 446.687 708.27171 446.27307 709.21705 445.84961 710.1582 C 444.92917 712.2039 443.99869 714.24515 443.07422 716.28906 z "
       transform="scale(0.26458333)" />
    <path
       id="path5233"
       style="opacity:0.621572;fill:#00065f;fill-rule:evenodd;stroke:#081616;stroke-width:0.245669;stroke-linecap:round;stroke-linejoin:round;stroke-opacity:0.914634"
       d="M 359.26953 725.77734 C 359.4908 725.34551 359.71685 724.91642 359.94141 724.48633 C 359.71595 724.34087 359.48938 724.19767 359.26367 724.05273 C 359.26793 724.62755 359.26683 725.20251 359.26953 725.77734 z "
       transform="scale(0.26458333)" />
    <path
       id="path5231"
       style="opacity:0.621572;fill:#00065f;fill-rule:evenodd;stroke:#081616;stroke-width:0.245669;stroke-linecap:round;stroke-linejoin:round;stroke-opacity:0.914634"
       d="M 364.3418 727.28125 C 364.20687 727.19177 364.0755 727.09778 363.93945 727.00977 C 363.42927 726.67971 362.91007 726.35862 362.38281 726.05078 C 361.57347 725.51956 360.75396 725.01056 359.94141 724.48633 C 359.71685 724.91642 359.4908 725.34551 359.26953 725.77734 C 359.27665 727.29353 359.28846 728.80994 359.28516 730.32617 C 359.28042 732.50315 359.26289 734.67863 359.23828 736.85547 C 359.7832 735.74882 360.3317 734.64453 360.85156 733.5332 C 362.0106 731.4539 363.17429 729.36859 364.3418 727.28125 z "
       transform="scale(0.26458333)" />
    <path
       id="path5229"
       style="opacity:0.621572;fill:#00065f;fill-rule:evenodd;stroke:#081616;stroke-width:0.245669;stroke-linecap:round;stroke-linejoin:round;stroke-opacity:0.914634"
       d="M 362.29297 720.11133 C 361.81555 720.97314 361.33211 721.83256 360.86719 722.70117 C 360.55084 723.2922 360.25168 723.89206 359.94141 724.48633 C 360.75396 725.01056 361.57347 725.51956 362.38281 726.05078 C 362.91007 726.35862 363.42927 726.67971 363.93945 727.00977 C 364.0755 727.09778 364.20687 727.19177 364.3418 727.28125 C 364.49234 727.01209 364.64022 726.74379 364.79102 726.47461 C 365.39685 725.39313 366.01417 724.31334 366.625 723.23242 C 366.10492 722.83398 365.5832 722.4377 365.06641 722.03516 C 364.13573 721.40294 363.21586 720.75549 362.29297 720.11133 z "
       transform="scale(0.26458333)" />
    <path
       id="path5227"
       style="opacity:0.621572;fill:#00065f;fill-rule:evenodd;stroke:#081616;stroke-width:0.245669;stroke-linecap:round;stroke-linejoin:round;stroke-opacity:0.914634"
       d="M 359.18555 717.97461 C 359.21617 719.72806 359.24643 721.48261 359.26172 723.23633 C 359.26409 723.50843 359.26166 723.78062 359.26367 724.05273 C 359.48938 724.19767 359.71595 724.34087 359.94141 724.48633 C 360.25168 723.89206 360.55084 723.2922 360.86719 722.70117 C 361.33211 721.83256 361.81555 720.97314 362.29297 720.11133 C 361.79064 719.76071 361.28659 719.41345 360.7832 719.06445 C 360.25319 718.69699 359.71943 718.33613 359.18555 717.97461 z "
       transform="scale(0.26458333)" />
    <path
       id="path5225"
       style="opacity:0.621572;fill:#00065f;fill-rule:evenodd;stroke:#081616;stroke-width:0.245669;stroke-linecap:round;stroke-linejoin:round;stroke-opacity:0.914634"
       d="M 354.35547 720.93945 C 354.72314 721.16801 355.09586 721.38741 355.46289 721.61719 C 356.73696 722.41481 357.99731 723.23953 359.26367 724.05273 C 359.26166 723.78062 359.26409 723.50843 359.26172 723.23633 C 359.24643 721.48261 359.21617 719.72806 359.18555 717.97461 C 359.00011 717.84904 358.81699 717.72021 358.63086 717.5957 C 357.90885 717.11273 357.18004 716.6382 356.44336 716.17773 C 355.87841 715.82461 354.98531 715.30931 354.24219 714.86719 C 354.25248 715.33926 354.26944 715.81112 354.2793 716.2832 C 354.31171 717.8351 354.3276 719.38747 354.35547 720.93945 z "
       transform="scale(0.26458333)" />
    <path
       id="path5223"
       style="opacity:0.621572;fill:#00065f;fill-rule:evenodd;stroke:#081616;stroke-width:0.245669;stroke-linecap:round;stroke-linejoin:round;stroke-opacity:0.914634"
       d="M 354.56055 735.98633 C 355.17521 734.52655 355.80689 733.07037 356.40234 731.60156 C 357.10536 730.09685 357.82942 728.60234 358.57422 727.11914 C 358.80035 726.66882 359.03976 726.22575 359.26953 725.77734 C 359.26683 725.20251 359.26793 724.62755 359.26367 724.05273 C 357.99731 723.23953 356.73696 722.41481 355.46289 721.61719 C 355.09586 721.38741 354.72314 721.16801 354.35547 720.93945 C 354.41194 724.08445 354.47261 727.22976 354.51172 730.375 C 354.53498 732.24547 354.54293 734.11582 354.56055 735.98633 z "
       transform="scale(0.26458333)" />
    <path
       id="path5221"
       style="opacity:0.621572;fill:#00065f;fill-rule:evenodd;stroke:#081616;stroke-width:0.245669;stroke-linecap:round;stroke-linejoin:round;stroke-opacity:0.914634"
       d="M 353.69336 742.61328 C 353.38315 742.37435 353.07053 742.13816 352.76367 741.89453 C 352.64577 741.80093 352.52777 741.70728 352.41016 741.61328 C 352.37387 741.72455 352.32827 741.83385 352.29297 741.94531 C 352.22301 742.1662 352.1752 742.39159 352.10938 742.61328 L 353.69336 742.61328 z "
       transform="scale(0.26458333)" />
    <path
       id="path5219"
       style="opacity:0.621572;fill:#00065f;fill-rule:evenodd;stroke:#081616;stroke-width:0.245669;stroke-linecap:round;stroke-linejoin:round;stroke-opacity:0.914634"
       d="M 354.61914 742.61328 C 354.60564 740.40423 354.58135 738.19539 354.56055 735.98633 C 354.45239 736.24319 354.34313 736.5008 354.23633 736.75781 C 353.87944 737.61664 353.5327 738.47815 353.20508 739.3418 C 352.91927 740.09521 352.65819 740.85278 352.41016 741.61328 C 352.52777 741.70728 352.64577 741.80093 352.76367 741.89453 C 353.07053 742.13816 353.38315 742.37435 353.69336 742.61328 L 354.61914 742.61328 z "
       transform="scale(0.26458333)" />
    <path
       id="path5217"
       style="opacity:0.621572;fill:#00065f;fill-rule:evenodd;stroke:#081616;stroke-width:0.245669;stroke-linecap:round;stroke-linejoin:round;stroke-opacity:0.914634"
       d="M 356.60352 742.61328 C 356.60815 742.60159 356.61254 742.58981 356.61719 742.57812 C 356.86276 741.96026 357.12357 741.34859 357.39453 740.74023 C 357.93646 739.52352 358.51884 738.32193 359.10742 737.125 C 359.15159 737.03518 359.19407 736.94525 359.23828 736.85547 C 359.26289 734.67863 359.28042 732.50315 359.28516 730.32617 C 359.28846 728.80994 359.27665 727.29353 359.26953 725.77734 C 359.03976 726.22575 358.80035 726.66882 358.57422 727.11914 C 357.82942 728.60234 357.10536 730.09685 356.40234 731.60156 C 355.80689 733.07037 355.17521 734.52655 354.56055 735.98633 C 354.58135 738.19539 354.60564 740.40423 354.61914 742.61328 L 356.60352 742.61328 z "
       transform="scale(0.26458333)" />
    <path
       id="path5215"
       style="opacity:0.621572;fill:#00065f;fill-rule:evenodd;stroke:#081616;stroke-width:0.245669;stroke-linecap:round;stroke-linejoin:round;stroke-opacity:0.914634"
       d="M 359.14844 742.61328 C 359.18073 740.88063 359.2135 739.14696 359.23438 737.41406 C 359.23662 737.22783 359.23618 737.0417 359.23828 736.85547 C 359.19407 736.94525 359.15159 737.03518 359.10742 737.125 C 358.51884 738.32193 357.93646 739.52352 357.39453 740.74023 C 357.12357 741.34859 356.86276 741.96026 356.61719 742.57812 C 356.61254 742.58981 356.60815 742.60159 356.60352 742.61328 L 359.14844 742.61328 z "
       transform="scale(0.26458333)" />
    <path
       id="path5213"
       style="opacity:0.621572;fill:#00065f;fill-rule:evenodd;stroke:#081616;stroke-width:0.0649999;stroke-linecap:round;stroke-linejoin:round;stroke-opacity:0.914634"
       d="m 101.21088,197.01226 c -0.0445,-0.0345 -0.0918,-0.0653 -0.13592,-0.10025 -0.25102,-0.19856 -0.49641,-0.40499 -0.73845,-0.61547 -0.24204,-0.21047 -0.480928,-0.4251 -0.718301,-0.64182 -0.237377,-0.21672 -0.473509,-0.43538 -0.710552,-0.65267 -0.237043,-0.21729 -0.474678,-0.43324 -0.715719,-0.64544 -0.241041,-0.2122 -0.485473,-0.42075 -0.734838,-0.62218 -0.249367,-0.20144 -0.503825,-0.39585 -0.765844,-0.58085 -0.09608,-0.0678 -0.194316,-0.13281 -0.292489,-0.19792 -0.308904,0.55228 -0.616797,1.10402 -0.92346,1.65416 -0.137546,0.29404 -0.28267,0.58622 -0.426847,0.87902 -5.55e-4,0.0493 -4.39e-4,0.0985 -0.001,0.14779 -0.0055,0.4585 -0.0142,0.9172 -0.02274,1.37563 z" />
    <path
       id="path5211"
       style="opacity:0.621572;fill:#00065f;fill-rule:evenodd;stroke:#081616;stroke-width:0.245669;stroke-linecap:round;stroke-linejoin:round;stroke-opacity:0.914634"
       d="M 389.84961 742.61328 C 389.66862 742.51353 389.48895 742.41129 389.30859 742.31055 C 388.67645 741.95746 388.05165 741.59399 387.45312 741.1875 C 386.73786 740.70175 386.04092 740.191 385.35938 739.6582 C 384.67783 739.12541 384.01116 738.57056 383.35547 738.00195 C 382.69978 737.43335 382.05565 736.851 381.41797 736.25781 C 380.78029 735.66463 380.149 735.0616 379.52148 734.45508 C 378.26645 733.24202 377.02516 732.01348 375.76367 730.81445 C 375.13293 730.21494 374.49765 729.62213 373.85352 729.04297 C 373.20938 728.46381 372.556 727.89718 371.89062 727.34961 C 370.77756 726.4336 369.63935 725.54821 368.49609 724.66992 C 367.87237 724.19075 367.24938 723.71077 366.625 723.23242 C 366.01417 724.31334 365.39685 725.39313 364.79102 726.47461 C 364.64022 726.74379 364.49234 727.01209 364.3418 727.28125 C 364.71285 727.52731 365.08415 727.77292 365.44727 728.0293 C 366.43758 728.72851 367.39931 729.46329 368.3418 730.22461 C 369.28428 730.98593 370.20812 731.77417 371.11914 732.57617 C 372.03016 733.37817 372.92831 734.19437 373.82422 735.01562 C 374.72013 735.83688 375.6126 736.66333 376.50977 737.48242 C 377.40693 738.30151 378.30982 739.11271 379.22461 739.9082 C 380.1394 740.7037 381.06686 741.4839 382.01562 742.23438 C 382.18254 742.3664 382.36103 742.48304 382.5293 742.61328 L 389.84961 742.61328 z "
       transform="scale(0.26458333)" />
    <path
       id="path5209"
       style="opacity:0.621572;fill:#00065f;fill-rule:evenodd;stroke:#081616;stroke-width:0.245669;stroke-linecap:round;stroke-linejoin:round;stroke-opacity:0.914634"
       d="M 422.19531 742.61328 C 422.07687 742.37218 421.9403 742.1106 421.82812 741.87305 C 421.44715 741.06629 421.0389 740.27611 420.64648 739.47656 C 420.64402 739.51691 420.64311 739.55731 420.64062 739.59766 C 420.57866 740.60289 420.50887 741.60849 420.43945 742.61328 L 422.19531 742.61328 z "
       transform="scale(0.26458333)" />
    <path
       id="path5207"
       style="opacity:0.621572;fill:#00065f;fill-rule:evenodd;stroke:#081616;stroke-width:0.0649999;stroke-linecap:round;stroke-linejoin:round;stroke-opacity:0.914634"
       d="m 123.91027,197.01226 c 0.66831,-0.4882 1.33829,-0.97392 2.01073,-1.45727 -0.62496,-0.0775 -1.25013,-0.15286 -1.87638,-0.21963 -0.74024,-0.0789 -1.48166,-0.14961 -2.22415,-0.20981 -0.30668,-0.0247 -0.6306,-0.0416 -0.95911,-0.0667 -0.16426,-0.0125 -0.32939,-0.0269 -0.49455,-0.0455 -0.16516,-0.0186 -0.32996,-0.0416 -0.49299,-0.0703 -0.16303,-0.0287 -0.32428,-0.0632 -0.48214,-0.10594 -0.15786,-0.0428 -0.31234,-0.0936 -0.46199,-0.15451 -0.0748,-0.0304 -0.14845,-0.0635 -0.22066,-0.0992 -0.0722,-0.0357 -0.14319,-0.0738 -0.21239,-0.11524 -0.0692,-0.0415 -0.13675,-0.0861 -0.20257,-0.13384 -0.0658,-0.0478 -0.12966,-0.099 -0.19172,-0.15348 -0.0498,-0.0438 -0.096,-0.0911 -0.13798,-0.14108 -0.042,-0.05 -0.0803,-0.10262 -0.11575,-0.15761 -0.0354,-0.055 -0.0677,-0.11236 -0.0977,-0.17105 -0.03,-0.0587 -0.0575,-0.11871 -0.0832,-0.17983 -0.0515,-0.12225 -0.0956,-0.24822 -0.13746,-0.37259 -0.0418,-0.12437 -0.0813,-0.24694 -0.12299,-0.36329 -0.0287,-0.17033 -0.0651,-0.33966 -0.0977,-0.50952 -0.0326,-0.16987 -0.0611,-0.3404 -0.0744,-0.51264 -0.0173,-0.22384 -0.0258,-0.4487 -0.0279,-0.67386 -0.002,-0.22515 0.002,-0.45049 0.009,-0.67644 0.004,-0.1251 0.009,-0.25047 0.014,-0.37569 -0.39684,0.87739 -0.79284,1.75516 -1.19114,2.63188 -0.64379,1.4171 -1.28828,2.8336 -1.93012,4.25142 -0.0123,0.0272 -0.0244,0.0545 -0.0367,0.0816 z" />
    <path
       id="path5205"
       style="opacity:0.621572;fill:#00065f;fill-rule:evenodd;stroke:#081616;stroke-width:0.245669;stroke-linecap:round;stroke-linejoin:round;stroke-opacity:0.914634"
       d="M 477.01367 742.61328 C 477.48136 742.29554 477.94598 741.97338 478.41406 741.65625 C 480.16024 740.47319 481.9132 739.29899 483.66406 738.12305 C 481.51468 737.82558 479.36531 737.52856 477.21289 737.25586 C 476.78307 737.2014 476.35184 737.15877 475.92188 737.10547 C 473.38039 738.9323 470.8482 740.76811 468.32227 742.61328 L 477.01367 742.61328 z "
       transform="scale(0.26458333)" />
    <path
       id="path5203"
       style="opacity:0.621572;fill:#00065f;fill-rule:evenodd;stroke:#081616;stroke-width:0.245669;stroke-linecap:round;stroke-linejoin:round;stroke-opacity:0.914634"
       d="M 501.28711 742.61328 C 501.2892 742.20631 501.28697 741.79953 501.29102 741.39258 C 500.63766 741.21396 499.99064 741.01334 499.33398 740.8457 C 497.54532 740.38907 495.74511 739.97343 493.93164 739.60156 C 491.14858 739.18367 488.36429 738.77434 485.57812 738.38086 C 484.9406 738.29082 484.30181 738.21131 483.66406 738.12305 C 481.9132 739.29899 480.16024 740.47319 478.41406 741.65625 C 477.94598 741.97338 477.48136 742.29554 477.01367 742.61328 L 501.28711 742.61328 z "
       transform="scale(0.26458333)" />
    <path
       id="path5201"
       style="opacity:0.621572;fill:#00065f;fill-rule:evenodd;stroke:#081616;stroke-width:0.245669;stroke-linecap:round;stroke-linejoin:round;stroke-opacity:0.914634"
       d="M 504.78125 742.61328 C 504.80957 742.54378 504.83676 742.47372 504.86523 742.4043 C 504.79769 742.38363 504.73164 742.35844 504.66406 742.33789 C 503.54742 741.9983 502.41735 741.7005 501.29102 741.39258 C 501.28697 741.79953 501.2892 742.20631 501.28711 742.61328 L 504.78125 742.61328 z "
       transform="scale(0.26458333)" />
    <path
       id="path5199"
       style="opacity:0.621572;fill:#00065f;fill-rule:evenodd;stroke:#081616;stroke-width:0.245669;stroke-linecap:round;stroke-linejoin:round;stroke-opacity:0.914634"
       d="M 505.23438 742.61328 C 505.23435 742.58399 505.2344 742.55468 505.23438 742.52539 C 505.11063 742.48711 504.9891 742.44219 504.86523 742.4043 C 504.83676 742.47372 504.80957 742.54378 504.78125 742.61328 L 505.23438 742.61328 z "
       transform="scale(0.26458333)" />
    <path
       id="path5197"
       style="opacity:0.621572;fill:#00065f;fill-rule:evenodd;stroke:#081616;stroke-width:0.245669;stroke-linecap:round;stroke-linejoin:round;stroke-opacity:0.914634"
       d="M 505.50195 742.61328 C 505.4123 742.58533 505.32409 742.55314 505.23438 742.52539 C 505.2344 742.55468 505.23435 742.58399 505.23438 742.61328 L 505.50195 742.61328 z "
       transform="scale(0.26458333)" />
    <path
       id="path5195"
       style="opacity:0.621572;fill:#00065f;fill-rule:evenodd;stroke:#081616;stroke-width:0.245669;stroke-linecap:round;stroke-linejoin:round;stroke-opacity:0.914634"
       d="M 509.41406 742.61328 C 509.62057 742.11284 509.83027 741.61204 510.04883 741.11719 C 510.20697 740.75912 510.37815 740.40785 510.54688 740.05469 C 509.2044 739.55853 507.85391 739.08575 506.49609 738.63477 C 506.46335 738.70623 506.42712 738.77611 506.39453 738.84766 C 505.99365 739.72766 505.60864 740.61384 505.23242 741.50586 C 505.23167 741.84567 505.23413 742.18558 505.23438 742.52539 C 505.32409 742.55314 505.4123 742.58533 505.50195 742.61328 L 509.41406 742.61328 z "
       transform="scale(0.26458333)" />
    <path
       id="path5193"
       style="opacity:0.621572;fill:#00065f;fill-rule:evenodd;stroke:#081616;stroke-width:0.245669;stroke-linecap:round;stroke-linejoin:round;stroke-opacity:0.914634"
       d="M 517.00391 742.61328 C 516.85602 742.55122 516.71829 742.47541 516.56836 742.41602 C 514.79129 741.67298 513.00194 740.95964 511.19922 740.2832 C 510.98343 740.20223 510.76305 740.13458 510.54688 740.05469 C 510.37815 740.40785 510.20697 740.75912 510.04883 741.11719 C 509.83027 741.61204 509.62057 742.11284 509.41406 742.61328 L 517.00391 742.61328 z "
       transform="scale(0.26458333)" />
    <path
       id="path5191"
       style="opacity:0.621572;fill:#00065f;fill-rule:evenodd;stroke:#081616;stroke-width:0.0649999;stroke-linecap:round;stroke-linejoin:round;stroke-opacity:0.914634"
       d="m 144.66714,196.48309 c 0.0766,-0.32619 0.1551,-0.65212 0.23564,-0.97771 0.17156,-0.69356 0.35008,-1.38622 0.52814,-2.07998 1.5e-4,-5.2e-4 3.6e-4,-0.001 5.1e-4,-0.002 -0.16203,-0.0794 -0.32493,-0.15692 -0.48679,-0.23668 -1.38995,-0.68489 -2.77383,-1.38272 -4.15789,-2.07997 -0.58903,-0.29675 -1.18078,-0.58782 -1.77043,-0.88315 -0.22622,0.33912 -0.45262,0.67823 -0.67903,1.01854 -0.31842,0.47861 -0.63502,0.95911 -0.94413,1.44435 -0.15455,0.24263 -0.30723,0.48652 -0.45734,0.73174 -0.1501,0.24522 -0.29759,0.49156 -0.44183,0.74001 -0.14423,0.24845 -0.28524,0.49907 -0.42219,0.75137 -0.13696,0.25231 -0.27017,0.50648 -0.39843,0.76326 -0.0219,0.0438 -0.0409,0.0887 -0.062,0.13281 0.0572,0.0211 0.1155,0.039 0.1726,0.0605 0.47697,0.17898 0.9504,0.36772 1.42058,0.56431 0.0397,0.0157 0.0761,0.0358 0.11524,0.0522 z" />
    <path
       id="path5189"
       style="opacity:0.621572;fill:#00065f;fill-rule:evenodd;stroke:#081616;stroke-width:0.245669;stroke-linecap:round;stroke-linejoin:round;stroke-opacity:0.914634"
       d="M 549.8457 742.61328 C 550.07727 741.72487 550.29205 740.83229 550.5293 739.94531 C 551.12073 737.73418 551.72994 735.52829 552.33789 733.32227 C 550.77649 732.57124 549.21826 731.81305 547.66211 731.05078 C 547.66152 731.05275 547.66074 731.05467 547.66016 731.05664 C 546.98721 733.67872 546.31249 736.29666 545.66406 738.91797 C 545.35965 740.14857 545.06281 741.38041 544.77344 742.61328 L 549.8457 742.61328 z "
       transform="scale(0.26458333)" />
    <path
       id="path5187"
       style="opacity:0.621572;fill:#00065f;fill-rule:evenodd;stroke:#081616;stroke-width:0.245669;stroke-linecap:round;stroke-linejoin:round;stroke-opacity:0.914634"
       d="M 572.89453 742.61328 C 571.83219 742.16804 570.76061 741.74282 569.70312 741.28711 C 567.01347 740.12804 564.33827 738.93624 561.67578 737.71875 C 559.01329 736.50126 556.36416 735.25865 553.72266 733.99609 C 553.25956 733.77475 552.80046 733.54476 552.33789 733.32227 C 551.72994 735.52829 551.12073 737.73418 550.5293 739.94531 C 550.29205 740.83229 550.07727 741.72487 549.8457 742.61328 L 572.89453 742.61328 z "
       transform="scale(0.26458333)" />
    <path
       id="path5185"
       style="opacity:0.621572;fill:#00065f;fill-rule:evenodd;stroke:#081616;stroke-width:0.0649999;stroke-linecap:round;stroke-linejoin:round;stroke-opacity:0.914634"
       d="m 152.52764,196.48309 c 0.0204,-0.23966 0.0408,-0.48016 0.0605,-0.71882 0.0138,-0.12566 0.0296,-0.25112 0.0439,-0.37672 -0.49022,-0.20558 -0.98074,-0.41071 -1.47071,-0.61753 -0.74635,-0.31505 -1.49159,-0.63216 -2.235,-0.95447 -0.74341,-0.3223 -1.48497,-0.64957 -2.22261,-0.98443 -0.0568,-0.0258 -0.11276,-0.0532 -0.16949,-0.0791 -0.10863,0.34023 -0.22226,0.67877 -0.32608,1.02061 -0.0232,0.084 -0.0456,0.1682 -0.0687,0.25218 0.12239,0.0589 0.24386,0.11972 0.36639,0.17829 0.69889,0.33405 1.39981,0.66282 2.10426,0.98495 0.70445,0.32213 1.41226,0.63746 2.1239,0.94413 0.27979,0.12057 0.56332,0.23308 0.84439,0.35088 z" />
    <path
       id="path5183"
       style="opacity:0.621572;fill:#00065f;fill-rule:evenodd;stroke:#081616;stroke-width:0.245669;stroke-linecap:round;stroke-linejoin:round;stroke-opacity:0.914634"
       d="M 579.81836 742.61328 C 579.81795 742.25001 579.82468 741.88668 579.82227 741.52344 C 579.81822 740.91602 579.80967 740.31014 579.80273 739.70312 C 579.7968 739.70074 579.79109 739.69769 579.78516 739.69531 C 578.81594 739.28883 577.84652 738.87924 576.87695 738.47266 C 576.82263 738.94736 576.763 739.42155 576.71094 739.89648 C 576.63678 740.79849 576.55941 741.70748 576.48242 742.61328 L 579.81836 742.61328 z "
       transform="scale(0.26458333)" />
    <path
       id="path5181"
       style="opacity:0.621572;fill:#00065f;fill-rule:evenodd;stroke:#081616;stroke-width:0.245669;stroke-linecap:round;stroke-linejoin:round;stroke-opacity:0.914634"
       d="M 580.88086 740.14258 C 580.52175 739.99762 580.16186 739.84731 579.80273 739.70312 C 579.80967 740.31014 579.81822 740.91602 579.82227 741.52344 C 579.82468 741.88668 579.81795 742.25001 579.81836 742.61328 L 580.63672 742.61328 C 580.71096 741.8367 580.77706 741.05914 580.85938 740.2832 C 580.86607 740.2363 580.87417 740.18949 580.88086 740.14258 z "
       transform="scale(0.26458333)" />
    <path
       id="path5179"
       style="opacity:0.621572;fill:#00065f;fill-rule:evenodd;stroke:#081616;stroke-width:0.245669;stroke-linecap:round;stroke-linejoin:round;stroke-opacity:0.914634"
       d="M 583.63086 741.26562 C 583.6175 740.17923 583.60037 739.09144 583.58398 738.00586 C 583.48307 735.79623 583.33114 733.58976 583.20898 731.38086 C 583.1479 730.27641 583.09446 729.1717 583.05859 728.06641 C 583.04071 727.51539 583.04493 726.96347 583.03711 726.41211 C 582.89209 727.19646 582.74206 727.97899 582.60742 728.76562 C 582.38911 730.04112 582.18228 731.32009 581.98438 732.59961 C 581.59581 735.11178 581.2396 737.62882 580.88086 740.14258 C 581.79709 740.51242 582.71454 740.89178 583.63086 741.26562 z "
       transform="scale(0.26458333)" />
    <path
       id="path5177"
       style="opacity:0.621572;fill:#00065f;fill-rule:evenodd;stroke:#081616;stroke-width:0.245669;stroke-linecap:round;stroke-linejoin:round;stroke-opacity:0.914634"
       d="M 583.63672 742.61328 L 586.93164 742.61328 C 585.83126 742.16119 584.73066 741.71433 583.63086 741.26562 C 583.63188 741.34829 583.63382 741.431 583.63477 741.51367 C 583.63896 741.88035 583.63436 742.24662 583.63672 742.61328 z "
       transform="scale(0.26458333)" />
    <path
       id="path5175"
       style="opacity:0.621572;fill:#00065f;fill-rule:evenodd;stroke:#081616;stroke-width:0.245669;stroke-linecap:round;stroke-linejoin:round;stroke-opacity:0.914634"
       d="M 583.63672 742.61328 C 583.63436 742.24662 583.63896 741.88035 583.63477 741.51367 C 583.63382 741.431 583.63188 741.34829 583.63086 741.26562 C 582.71454 740.89178 581.79709 740.51242 580.88086 740.14258 C 580.87417 740.18949 580.86607 740.2363 580.85938 740.2832 C 580.77706 741.05914 580.71096 741.8367 580.63672 742.61328 L 583.63672 742.61328 z "
       transform="scale(0.26458333)" />
    <path
       id="path5173"
       style="opacity:0.621572;fill:#00065f;fill-rule:evenodd;stroke:#081616;stroke-width:0.0649999;stroke-linecap:round;stroke-linejoin:round;stroke-opacity:0.914634"
       d="m 166.65184,186.96946 c 0.008,0.0981 0.0163,0.19637 0.0202,0.29559 0.005,0.1235 0.006,0.2478 0.004,0.37311 -0.002,0.1253 -0.008,0.25152 -0.0181,0.37878 -0.01,0.12727 -0.024,0.25562 -0.0419,0.38499 -0.0179,0.12938 -0.0395,0.25955 -0.0656,0.3912 -0.0557,0.18272 -0.12586,0.3586 -0.19895,0.53123 -0.0731,0.17263 -0.14932,0.34243 -0.2186,0.51366 -0.0346,0.0856 -0.0674,0.17149 -0.0971,0.25838 -0.0297,0.0869 -0.0564,0.17481 -0.0785,0.26407 -0.0221,0.0893 -0.0398,0.17963 -0.0517,0.27234 -0.0119,0.0927 -0.0181,0.18749 -0.0171,0.28473 0.0351,0.41938 0.0665,0.83912 0.0946,1.25884 0.0281,0.41972 0.053,0.8393 0.0744,1.25935 0.0214,0.42006 0.0395,0.84053 0.0548,1.26091 0.0152,0.42038 0.0278,0.84073 0.0372,1.26142 6.4e-4,0.17503 4.6e-4,0.35002 0.001,0.52503 h 6.8709 v -9.51363 z" />
    <path
       id="path5171"
       style="opacity:0.621572;fill:#00065f;fill-rule:evenodd;stroke:#081616;stroke-width:0.245669;stroke-linecap:round;stroke-linejoin:round;stroke-opacity:0.914634"
       d="M 623.88281 706.65625 C 623.88316 706.6589 623.88441 706.66141 623.88477 706.66406 C 623.9378 707.06465 623.98065 707.46719 624.00977 707.87109 C 624.03888 708.275 624.05513 708.68074 624.05859 709.08789 C 624.06206 709.49504 624.05127 709.90413 624.02734 710.31445 C 624.00342 710.72478 623.96712 711.13735 623.91406 711.55078 C 623.86101 711.96421 623.79291 712.37846 623.70898 712.79492 C 623.4202 713.51724 623.13114 714.22501 622.85742 714.92969 C 622.5837 715.63436 622.32466 716.33577 622.09766 717.04492 C 621.87066 717.75407 621.67401 718.47128 621.52539 719.20703 C 621.45108 719.57491 621.38863 719.9475 621.33984 720.32617 C 621.29106 720.70484 621.25758 721.09019 621.23828 721.48242 C 621.34071 724.69022 621.48149 727.89541 621.61719 731.10156 C 621.75289 734.30771 621.88233 737.51405 621.96289 740.72266 C 621.98316 741.35265 621.97398 741.98317 621.98242 742.61328 L 625.96875 742.61328 C 625.9666 741.95182 625.96727 741.29041 625.96484 740.62891 C 625.92913 739.03889 625.8818 737.45016 625.82422 735.86133 C 625.76664 734.2725 625.69822 732.68331 625.61719 731.0957 C 625.53616 729.5081 625.44201 727.92228 625.33594 726.33594 C 625.22986 724.7496 625.11122 723.16316 624.97852 721.57812 C 624.97474 721.21058 624.99804 720.85235 625.04297 720.50195 C 625.0879 720.15156 625.15466 719.81001 625.23828 719.47266 C 625.3219 719.1353 625.42287 718.80302 625.53516 718.47461 C 625.64744 718.14619 625.77142 717.82163 625.90234 717.49805 C 626.16419 716.85088 626.45226 716.20911 626.72852 715.55664 C 627.00477 714.90417 627.27 714.23943 627.48047 713.54883 C 627.57906 713.05129 627.66097 712.55929 627.72852 712.07031 C 627.79607 711.58133 627.849 711.09623 627.88672 710.61523 C 627.92444 710.13424 627.94599 709.65718 627.95508 709.18359 C 627.96417 708.71001 627.95974 708.24019 627.94141 707.77344 C 627.92668 707.39844 627.89697 707.02717 627.86523 706.65625 L 623.88281 706.65625 z "
       transform="scale(0.26458333)" />
    <path
       id="path5169"
       style="opacity:0.621572;fill:#00065f;fill-rule:evenodd;stroke:#081616;stroke-width:0.0649999;stroke-linecap:round;stroke-linejoin:round;stroke-opacity:0.914634"
       d="m 156.44781,186.96946 c -0.014,0.0161 -0.0298,0.0313 -0.0434,0.0476 -0.0581,0.0694 -0.11216,0.14081 -0.16175,0.21445 -0.0645,0.0958 -0.11686,0.19898 -0.16588,0.30386 -0.049,0.10488 -0.0952,0.21113 -0.14728,0.31419 -0.11867,0.32247 -0.22825,0.64735 -0.33021,0.9741 -0.10197,0.32676 -0.19618,0.65559 -0.28371,0.98599 -0.0875,0.33041 -0.16805,0.6624 -0.24339,0.99581 -0.0753,0.3334 -0.14542,0.6683 -0.21084,1.00407 -0.0251,0.12869 -0.0464,0.25808 -0.0703,0.38706 0.002,0.14588 9.5e-4,0.2919 0.006,0.4377 0.009,0.29244 0.0236,0.58472 0.0398,0.87694 0.0323,0.58444 0.0725,1.16824 0.0992,1.75287 0.004,0.28722 0.009,0.57504 0.0124,0.86248 0.29099,0.11872 0.58219,0.23695 0.87333,0.35656 h 9.27386 c -0.002,-0.16671 1.9e-4,-0.33354 -0.005,-0.50022 -0.0213,-0.84895 -0.0556,-1.69729 -0.0915,-2.54558 -0.0359,-0.8483 -0.0731,-1.69634 -0.10025,-2.54507 0.005,-0.10378 0.014,-0.20573 0.0269,-0.30592 0.0129,-0.10019 0.0294,-0.19877 0.0491,-0.29611 0.0393,-0.19467 0.0914,-0.38443 0.15142,-0.57206 0.0601,-0.18763 0.1286,-0.37321 0.20102,-0.55965 0.0724,-0.18645 0.1489,-0.37371 0.22531,-0.56483 0.0222,-0.11018 0.0402,-0.21979 0.0543,-0.32918 0.014,-0.10938 0.0236,-0.21854 0.03,-0.32711 0.006,-0.10856 0.009,-0.2168 0.008,-0.32452 -9.2e-4,-0.10773 -0.005,-0.21508 -0.0129,-0.32195 -0.008,-0.10687 -0.019,-0.21337 -0.0331,-0.31936 -1e-4,-7e-4 -4.3e-4,-10e-4 -5.2e-4,-0.002 z" />
    <path
       id="path5167"
       style="opacity:0.621572;fill:#00065f;fill-rule:evenodd;stroke:#081616;stroke-width:0.245669;stroke-linecap:round;stroke-linejoin:round;stroke-opacity:0.914634"
       d="M 585.22266 706.65625 C 585.20218 707.32363 585.18287 707.99155 585.14258 708.6582 C 584.91763 710.00494 584.68099 711.34238 584.45117 712.67578 C 584.22135 714.00918 583.99715 715.33938 583.79688 716.67188 C 583.5966 718.00437 583.41954 719.33957 583.2832 720.68359 C 583.21504 721.3556 583.15706 722.02981 583.11133 722.70703 C 583.0656 723.38426 583.03266 724.06406 583.01367 724.74805 C 583.00881 725.3031 583.02924 725.85749 583.03711 726.41211 C 583.12724 725.92466 583.20797 725.43561 583.30273 724.94922 C 583.54999 723.68019 583.81486 722.41442 584.09961 721.1543 C 584.38436 719.89417 584.68874 718.6394 585.01953 717.39062 C 585.35033 716.14185 585.70641 714.89905 586.0918 713.66406 C 586.47718 712.42907 586.89132 711.20118 587.33984 709.98242 C 587.53681 709.5929 587.71121 709.19131 587.89648 708.79492 C 588.08176 708.39853 588.27964 708.00854 588.52344 707.64648 C 588.71086 707.36814 588.91532 707.09821 589.13477 706.83594 C 589.18626 706.7744 589.24584 706.71703 589.29883 706.65625 L 585.22266 706.65625 z "
       transform="scale(0.26458333)" />
    <path
       id="path5165"
       style="opacity:0.621572;fill:#00065f;fill-rule:evenodd;stroke:#081616;stroke-width:0.245669;stroke-linecap:round;stroke-linejoin:round;stroke-opacity:0.914634"
       d="M 584.58789 706.65625 C 584.49308 706.80908 584.38549 706.95173 584.29688 707.10938 C 584.03996 707.56644 583.80999 708.04297 583.61328 708.54688 C 583.11009 709.79876 582.64316 711.06165 582.20898 712.33203 C 581.77481 713.60241 581.37215 714.88136 581 716.16797 C 580.62785 717.45458 580.28584 718.74827 579.96875 720.04883 C 579.6725 721.26392 579.40252 722.48559 579.14844 723.71094 C 579.13282 724.01563 579.11203 724.31925 579.10156 724.625 C 579.08985 725.75701 579.11306 726.88616 579.16016 728.01562 C 579.20725 729.14509 579.27682 730.27414 579.35352 731.40234 C 579.43021 732.53055 579.51471 733.65889 579.5918 734.78711 C 579.66888 735.91533 579.73884 737.04432 579.78711 738.17383 C 579.79276 738.68326 579.79691 739.19316 579.80273 739.70312 C 580.16186 739.84731 580.52175 739.99762 580.88086 740.14258 C 581.2396 737.62882 581.59581 735.11178 581.98438 732.59961 C 582.18228 731.32009 582.38911 730.04112 582.60742 728.76562 C 582.74206 727.97899 582.89209 727.19646 583.03711 726.41211 C 583.02924 725.85749 583.00881 725.3031 583.01367 724.74805 C 583.03266 724.06406 583.0656 723.38426 583.11133 722.70703 C 583.15706 722.02981 583.21504 721.3556 583.2832 720.68359 C 583.41954 719.33957 583.5966 718.00437 583.79688 716.67188 C 583.99715 715.33938 584.22135 714.00918 584.45117 712.67578 C 584.68099 711.34238 584.91763 710.00494 585.14258 708.6582 C 585.18287 707.99155 585.20218 707.32363 585.22266 706.65625 L 584.58789 706.65625 z "
       transform="scale(0.26458333)" />
    <path
       id="path5163"
       style="opacity:0.621572;fill:#00065f;fill-rule:evenodd;stroke:#081616;stroke-width:0.245669;stroke-linecap:round;stroke-linejoin:round;stroke-opacity:0.914634"
       d="M 581.26172 706.65625 C 581.236 707.23692 581.20571 707.81735 581.16406 708.39453 C 580.75075 711.10534 580.28174 713.7893 579.89258 716.48242 C 579.698 717.82898 579.52445 719.17771 579.38672 720.5332 C 579.31785 721.21095 579.25728 721.89061 579.20898 722.57227 C 579.18219 722.9504 579.16789 723.33133 579.14844 723.71094 C 579.40252 722.48559 579.6725 721.26392 579.96875 720.04883 C 580.28584 718.74827 580.62785 717.45458 581 716.16797 C 581.37215 714.88136 581.77481 713.60241 582.20898 712.33203 C 582.64316 711.06165 583.11009 709.79876 583.61328 708.54688 C 583.80999 708.04297 584.03996 707.56644 584.29688 707.10938 C 584.38549 706.95173 584.49308 706.80908 584.58789 706.65625 L 581.26172 706.65625 z "
       transform="scale(0.26458333)" />
    <path
       id="path5161"
       style="opacity:0.621572;fill:#00065f;fill-rule:evenodd;stroke:#081616;stroke-width:0.0649999;stroke-linecap:round;stroke-linejoin:round;stroke-opacity:0.914634"
       d="m 148.55165,186.4403 c -0.0508,0.13736 -0.1023,0.27443 -0.15296,0.41186 -0.25966,0.70446 -0.5172,1.4099 -0.76894,2.11718 -0.25175,0.70728 -0.49792,1.41654 -0.73588,2.12856 -0.12476,0.37333 -0.23992,0.74995 -0.35966,1.12499 0.0567,0.0259 0.11271,0.0533 0.16949,0.0791 0.73764,0.33485 1.4792,0.66212 2.22261,0.98443 0.74341,0.32231 1.48865,0.63942 2.235,0.95446 0.48997,0.20682 0.98049,0.41196 1.47071,0.61754 0.0261,-0.22777 0.0512,-0.45573 0.0796,-0.68317 0.0441,-0.35285 0.0914,-0.70521 0.14262,-1.05678 0.0513,-0.35157 0.10662,-0.70245 0.16692,-1.05213 0.0603,-0.34968 0.12571,-0.69822 0.19689,-1.04541 0.005,-0.0228 0.0102,-0.0454 0.015,-0.0682 0.005,-0.10043 0.009,-0.20122 0.016,-0.30127 0.0128,-0.18036 0.0288,-0.36018 0.047,-0.5395 0.0364,-0.35864 0.0824,-0.71549 0.13384,-1.07177 0.10297,-0.71256 0.22706,-1.42269 0.33641,-2.13992 0.011,-0.15272 0.019,-0.30629 0.0258,-0.45992 z" />
    <path
       id="path5159"
       style="opacity:0.621572;fill:#00065f;fill-rule:evenodd;stroke:#081616;stroke-width:0.245669;stroke-linecap:round;stroke-linejoin:round;stroke-opacity:0.914634"
       d="M 556.10547 706.65625 C 555.06778 709.29936 554.06038 711.95407 553.0918 714.62305 C 552.10774 717.33465 551.16227 720.06008 550.25586 722.79883 C 549.86957 723.96602 549.52176 725.14618 549.15039 726.31836 C 550.70841 727.05361 552.26225 727.79693 553.83008 728.51172 C 554.28265 727.09423 554.71789 725.67081 555.18945 724.25977 C 556.0888 721.56868 557.01922 718.88803 557.9707 716.21484 C 558.92219 713.54166 559.89555 710.87544 560.87695 708.21289 C 561.06841 707.69348 561.26299 707.17542 561.45508 706.65625 L 556.10547 706.65625 z "
       transform="scale(0.26458333)" />
    <path
       id="path5157"
       style="opacity:0.621572;fill:#00065f;fill-rule:evenodd;stroke:#081616;stroke-width:0.0649999;stroke-linecap:round;stroke-linejoin:round;stroke-opacity:0.914634"
       d="m 140.63741,186.4403 c -0.18139,0.271 -0.79951,1.19439 -0.55811,0.83509 0.2089,-0.31093 0.40335,-0.59858 0.28371,-0.41393 -0.0862,0.13297 -0.62835,0.95214 -1.15187,1.74253 0.4581,0.23245 0.91627,0.46472 1.37356,0.69866 0.65068,0.33289 1.30146,0.66586 1.95389,0.99529 0.65242,0.32944 1.30661,0.6552 1.96473,0.97359 0.26263,0.12705 0.52886,0.24652 0.79272,0.37103 0.0983,-0.31014 0.19028,-0.62239 0.29249,-0.93121 0.23982,-0.72462 0.48997,-1.44573 0.75034,-2.16317 0.25627,-0.70617 0.52281,-1.40856 0.79737,-2.10788 z" />
    <path
       id="path5155"
       style="opacity:0.621572;fill:#00065f;fill-rule:evenodd;stroke:#081616;stroke-width:0.245669;stroke-linecap:round;stroke-linejoin:round;stroke-opacity:0.914634"
       d="M 531.4668 706.65625 C 531.24638 706.79105 531.02066 706.91705 530.80078 707.05273 C 529.03547 708.14208 526.83588 709.54422 524.42188 711.10547 C 523.64177 711.61 522.76275 712.19192 521.94531 712.72461 C 522.61438 713.05832 523.28927 713.3806 523.95703 713.7168 C 524.69047 714.08606 525.42011 714.46244 526.15234 714.83398 C 528.131 711.84669 530.18022 708.75062 530.50586 708.24805 C 530.95806 707.55016 530.22313 708.63733 529.43359 709.8125 C 528.52122 711.1705 530.8574 707.6805 531.54297 706.65625 L 531.4668 706.65625 z "
       transform="scale(0.26458333)" />
    <path
       id="path5153"
       style="opacity:0.621572;fill:#00065f;fill-rule:evenodd;stroke:#081616;stroke-width:0.245669;stroke-linecap:round;stroke-linejoin:round;stroke-opacity:0.914634"
       d="M 526.03906 706.65625 C 524.77955 708.45572 523.51849 710.24764 522.26953 712.06055 C 522.12858 712.26514 521.99223 712.47291 521.85156 712.67773 C 521.88283 712.69332 521.91405 712.70902 521.94531 712.72461 C 522.76275 712.19192 523.64177 711.61 524.42188 711.10547 C 526.83588 709.54422 529.03547 708.14208 530.80078 707.05273 C 531.02066 706.91705 531.24638 706.79105 531.4668 706.65625 L 526.03906 706.65625 z "
       transform="scale(0.26458333)" />
    <path
       id="path5151"
       style="opacity:0.621572;fill:#00065f;fill-rule:evenodd;stroke:#081616;stroke-width:0.0649999;stroke-linecap:round;stroke-linejoin:round;stroke-opacity:0.914634"
       d="m 137.89132,186.4403 c -0.45035,0.27932 -0.89843,0.56232 -1.34617,0.84594 0.0398,0.0166 0.0785,0.0353 0.11834,0.0517 0.47241,0.22718 0.94079,0.46179 1.40973,0.69556 0.0372,-0.0542 0.0733,-0.10916 0.11059,-0.1633 0.33046,-0.47966 0.66411,-0.95377 0.99736,-1.42988 z" />
    <path
       id="path5149"
       style="opacity:0.621572;fill:#00065f;fill-rule:evenodd;stroke:#081616;stroke-width:0.245669;stroke-linecap:round;stroke-linejoin:round;stroke-opacity:0.914634"
       d="M 509.02148 706.65625 C 509.97253 707.11614 510.92075 707.58227 511.88086 708.02344 C 513.26643 708.66011 514.66653 709.26668 516.07617 709.85352 C 517.76842 708.78155 519.46194 707.71196 521.16406 706.65625 L 509.02148 706.65625 z "
       transform="scale(0.26458333)" />
    <path
       id="path5147"
       style="opacity:0.621572;fill:#00065f;fill-rule:evenodd;stroke:#081616;stroke-width:0.245669;stroke-linecap:round;stroke-linejoin:round;stroke-opacity:0.914634"
       d="M 502.90234 706.65625 C 503.00034 707.46281 503.08735 708.26263 503.17773 709.06836 C 503.86988 709.43604 504.55744 709.8128 505.25391 710.17188 C 506.7475 710.94192 508.25103 711.68985 509.77148 712.40625 C 510.2207 712.61791 510.68266 712.80387 511.13477 713.00977 C 511.86913 712.53549 512.59588 712.04953 513.33203 711.57812 C 514.24198 710.99543 515.16343 710.43169 516.07617 709.85352 C 514.66653 709.26668 513.26643 708.66011 511.88086 708.02344 C 510.92075 707.58227 509.97253 707.11614 509.02148 706.65625 L 502.90234 706.65625 z "
       transform="scale(0.26458333)" />
    <path
       id="path5145"
       style="opacity:0.621572;fill:#00065f;fill-rule:evenodd;stroke:#081616;stroke-width:0.245669;stroke-linecap:round;stroke-linejoin:round;stroke-opacity:0.914634"
       d="M 498.74609 706.65625 C 498.7467 706.66081 498.74744 706.66536 498.74805 706.66992 C 499.43254 707.04856 500.11405 707.43241 500.80078 707.80664 C 501.58867 708.236 502.38555 708.64754 503.17773 709.06836 C 503.08735 708.26263 503.00034 707.46281 502.90234 706.65625 L 498.74609 706.65625 z "
       transform="scale(0.26458333)" />
    <path
       id="path5143"
       style="opacity:0.621572;fill:#00065f;fill-rule:evenodd;stroke:#081616;stroke-width:0.245669;stroke-linecap:round;stroke-linejoin:round;stroke-opacity:0.914634"
       d="M 498.72266 706.65625 C 498.73107 706.6609 498.73964 706.66527 498.74805 706.66992 C 498.74744 706.66536 498.7467 706.66081 498.74609 706.65625 L 498.72266 706.65625 z "
       transform="scale(0.26458333)" />
    <path
       id="path5141"
       style="opacity:0.621572;fill:#00065f;fill-rule:evenodd;stroke:#081616;stroke-width:0.0649999;stroke-linecap:round;stroke-linejoin:round;stroke-opacity:0.914634"
       d="m 118.37727,186.4403 c -0.0266,0.0594 -0.0529,0.1189 -0.0796,0.17828 0.0145,0.16523 0.0302,0.33015 0.0367,0.4961 0.009,0.23992 0.0114,0.48047 0.009,0.7214 -0.004,0.48185 -0.0254,0.96555 -0.0382,1.44797 -0.006,0.24121 -0.0107,0.48194 -0.01,0.72244 8.4e-4,0.24049 0.007,0.48064 0.0212,0.71985 0.008,0.14131 0.0308,0.28075 0.0568,0.42013 0.026,0.13938 0.0555,0.27881 0.078,0.41858 0.0466,0.13519 0.0962,0.3284 0.16899,0.51263 0.0364,0.0921 0.0784,0.18174 0.12919,0.26097 0.0254,0.0396 0.0533,0.0768 0.0832,0.11006 0.0299,0.0332 0.062,0.0625 0.0972,0.0873 0.0326,0.023 0.0703,0.045 0.11265,0.0656 0.0423,0.0206 0.0893,0.04 0.14005,0.0584 0.10154,0.0368 0.21891,0.0689 0.34674,0.0977 0.12783,0.0287 0.26624,0.0541 0.41032,0.076 0.14407,0.0218 0.2936,0.0403 0.44389,0.0563 0.3006,0.0321 0.60392,0.0538 0.8692,0.0698 0.26528,0.0159 0.49261,0.0262 0.64234,0.0351 0.37583,0.0223 0.75137,0.0482 1.12655,0.077 0.37517,0.0288 0.74992,0.0604 1.12447,0.0951 0.74911,0.0694 1.49701,0.15007 2.2438,0.24029 0.29854,0.0361 0.59632,0.0799 0.89452,0.11886 0.39888,-0.28321 0.79631,-0.56853 1.19682,-0.84956 0.80428,-0.56435 1.61179,-1.12405 2.42311,-1.67845 0.53303,-0.36424 1.07033,-0.72221 1.60662,-1.08159 -0.009,-0.0305 -0.0171,-0.061 -0.0258,-0.0915 -0.0357,-0.12399 -0.0709,-0.2479 -0.10335,-0.37258 -0.0324,-0.12469 -0.0621,-0.25011 -0.0879,-0.37621 -0.0257,-0.1261 -0.0474,-0.25313 -0.0631,-0.38137 -0.0156,-0.12824 -0.0253,-0.25751 -0.0274,-0.38861 -0.0745,-0.53063 -0.13873,-1.06759 -0.20826,-1.60455 -0.0111,-0.086 -0.0237,-0.1719 -0.0351,-0.25787 -0.002,-0.001 -0.004,-0.002 -0.007,-0.004 z" />
    <path
       id="path5139"
       style="opacity:0.621572;fill:#00065f;fill-rule:evenodd;stroke:#081616;stroke-width:0.245669;stroke-linecap:round;stroke-linejoin:round;stroke-opacity:0.914634"
       d="M 447.05859 706.65625 C 447.08289 706.88029 447.08968 707.10563 447.10938 707.33008 C 447.21005 707.10565 447.30955 706.88071 447.41016 706.65625 L 447.05859 706.65625 z "
       transform="scale(0.26458333)" />
    <path
       id="path5137"
       style="opacity:0.621572;fill:#00065f;fill-rule:evenodd;stroke:#081616;stroke-width:0.245669;stroke-linecap:round;stroke-linejoin:round;stroke-opacity:0.914634"
       d="M 442.98438 706.65625 C 443.01724 706.93001 443.07288 707.20215 443.09766 707.47656 C 443.17407 708.3227 443.21521 709.17043 443.23047 710.02148 C 443.24573 710.87254 443.23505 711.72607 443.21289 712.58008 C 443.18084 713.81523 443.12386 715.0528 443.07422 716.28906 C 443.99869 714.24515 444.92917 712.2039 445.84961 710.1582 C 446.27307 709.21705 446.687 708.27171 447.10938 707.33008 C 447.08968 707.10563 447.08289 706.88029 447.05859 706.65625 L 442.98438 706.65625 z "
       transform="scale(0.26458333)" />
    <path
       id="path5135"
       style="opacity:0.621572;fill:#00065f;fill-rule:evenodd;stroke:#081616;stroke-width:0.245669;stroke-linecap:round;stroke-linejoin:round;stroke-opacity:0.914634"
       d="M 441.43945 706.65625 C 441.37453 706.79648 441.30904 706.93593 441.24414 707.07617 C 440.07215 709.60895 438.90618 712.14518 437.74805 714.68555 C 436.58992 717.22591 435.44008 719.77087 434.30664 722.32227 C 433.1732 724.87366 432.05496 727.4322 430.95703 729.99805 C 429.8591 732.5639 428.78206 735.13696 427.73047 737.7207 C 427.06941 739.34491 426.43809 740.9809 425.79883 742.61328 L 431.13867 742.61328 C 431.18517 742.51054 431.23083 742.40743 431.27734 742.30469 C 433.70318 736.94597 436.13904 731.5923 438.57227 726.23633 C 440.07764 722.92273 441.57434 719.60516 443.07422 716.28906 C 443.12386 715.0528 443.18084 713.81523 443.21289 712.58008 C 443.23505 711.72607 443.24573 710.87254 443.23047 710.02148 C 443.21521 709.17043 443.17407 708.3227 443.09766 707.47656 C 443.07288 707.20215 443.01724 706.93001 442.98438 706.65625 L 441.43945 706.65625 z "
       transform="scale(0.26458333)" />
    <path
       id="path5133"
       style="opacity:0.621572;fill:#00065f;fill-rule:evenodd;stroke:#081616;stroke-width:0.0649999;stroke-linecap:round;stroke-linejoin:round;stroke-opacity:0.914634"
       d="m 111.57975,186.4403 c 0.0122,0.0696 0.0225,0.14019 0.0362,0.20929 0.0576,0.29206 0.12612,0.58223 0.19275,0.88987 0.0744,0.27008 0.14071,0.54101 0.19947,0.81338 0.0588,0.27237 0.10982,0.54582 0.15451,0.82011 0.0447,0.27428 0.0831,0.54943 0.11524,0.82527 0.0322,0.27584 0.0584,0.55238 0.0796,0.82941 0.0212,0.27702 0.0373,0.55466 0.0491,0.8325 0.0117,0.27785 0.0189,0.55576 0.0227,0.83406 0.004,0.2783 0.004,0.5567 0.002,0.83509 -0.003,0.2784 -0.008,0.55697 -0.015,0.83509 -0.011,0.34092 -0.0311,0.68122 -0.0563,1.02113 -0.019,0.25632 -0.0428,0.51238 -0.0656,0.76843 h 0.36535 c 0.16914,-0.4319 0.33618,-0.86476 0.51108,-1.2945 0.27824,-0.68361 0.5632,-1.3644 0.8537,-2.04328 0.29049,-0.67888 0.58636,-1.35583 0.88625,-2.03089 0.29989,-0.67505 0.60411,-1.34841 0.91054,-2.02054 0.30642,-0.67214 0.61491,-1.34319 0.925,-2.01332 0.0172,-0.0371 0.0345,-0.074 0.0517,-0.1111 z" />
    <path
       id="path5131"
       style="opacity:0.621572;fill:#00065f;fill-rule:evenodd;stroke:#081616;stroke-width:0.245669;stroke-linecap:round;stroke-linejoin:round;stroke-opacity:0.914634"
       d="M 417.64258 706.65625 C 417.71217 707.07373 417.77804 707.49215 417.85938 707.9043 C 418.102 709.13375 418.38966 710.35449 418.67188 711.65625 C 418.92898 712.63712 419.1588 713.62305 419.36328 714.61328 C 419.56776 715.60351 419.74745 716.5978 419.9043 717.5957 C 420.06114 718.5936 420.1944 719.59571 420.30859 720.59961 C 420.42279 721.6035 420.51722 722.60898 420.59375 723.61719 C 420.67028 724.62539 420.72959 725.63565 420.77344 726.64648 C 420.81728 727.65732 420.84519 728.66987 420.86133 729.68164 C 420.89361 731.70519 420.87674 733.72887 420.82812 735.74609 C 420.7885 736.99099 420.72237 738.23361 420.64648 739.47656 C 421.0389 740.27611 421.44715 741.06629 421.82812 741.87305 C 421.9403 742.1106 422.07687 742.37218 422.19531 742.61328 L 424.41797 742.61328 C 424.50433 741.64554 424.59408 740.67775 424.66602 739.70898 C 424.76141 738.42427 424.83731 737.13811 424.87891 735.84961 C 424.90659 734.79844 424.92607 733.74556 424.93555 732.69336 C 424.94502 731.64116 424.94424 730.58896 424.92969 729.53711 C 424.91513 728.48526 424.88816 727.43489 424.84375 726.38477 C 424.79934 725.33465 424.7383 724.2853 424.6582 723.23828 C 424.57811 722.19127 424.47902 721.14605 424.35742 720.10352 C 424.23582 719.06099 424.0908 718.02104 423.92188 716.98438 C 423.75295 715.94771 423.55998 714.91419 423.33789 713.88477 C 423.11581 712.85534 422.86505 711.83135 422.58398 710.81055 C 422.33217 709.64783 422.07309 708.55113 421.85547 707.44727 C 421.80399 707.18613 421.76494 706.91918 421.71875 706.65625 L 417.64258 706.65625 z "
       transform="scale(0.26458333)" />
    <path
       id="path5129"
       style="opacity:0.621572;fill:#00065f;fill-rule:evenodd;stroke:#081616;stroke-width:0.0649999;stroke-linecap:round;stroke-linejoin:round;stroke-opacity:0.914634"
       d="m 106.15321,186.4403 c 0.24368,0.36714 0.49104,0.73255 0.73174,1.10122 0.28807,0.44123 0.57358,0.88409 0.85576,1.3286 0.28217,0.44452 0.56109,0.89098 0.83561,1.33997 0.27451,0.449 0.54469,0.90029 0.80977,1.35496 0.26507,0.45467 0.52489,0.91253 0.77876,1.37408 0.25387,0.46154 0.50169,0.92667 0.74259,1.39629 0.13352,0.2603 0.25949,0.52552 0.38861,0.78858 0.0201,-0.32886 0.0376,-0.65764 0.0481,-0.98702 0.0129,-0.53372 0.0173,-1.06915 0.009,-1.60455 -0.004,-0.2677 -0.0117,-0.5356 -0.0233,-0.80305 -0.0116,-0.26745 -0.0273,-0.53475 -0.0476,-0.8015 -0.0202,-0.26676 -0.0452,-0.53279 -0.0754,-0.7984 -0.0302,-0.26562 -0.0655,-0.53076 -0.10697,-0.79479 -0.0415,-0.26402 -0.089,-0.5271 -0.14315,-0.7891 -0.0541,-0.26199 -0.11491,-0.52285 -0.18293,-0.78238 -0.0747,-0.34442 -0.15078,-0.66741 -0.21497,-0.9927 -0.0215,-0.10905 -0.0389,-0.21975 -0.0574,-0.33021 z" />
    <path
       id="path5127"
       style="opacity:0.621572;fill:#00065f;fill-rule:evenodd;stroke:#081616;stroke-width:0.245669;stroke-linecap:round;stroke-linejoin:round;stroke-opacity:0.914634"
       d="M 394.56445 706.65625 C 395.74265 708.41373 397.0051 710.29771 397.92578 711.66992 C 399.3446 713.78457 400.52811 715.55853 401.69141 717.34961 C 402.8547 719.14069 403.99823 720.948 405.33789 723.13281 C 406.67755 725.31762 408.21422 727.87993 410.16211 731.17578 C 411.40251 733.27457 412.62341 735.38309 413.82617 737.50391 C 414.78685 739.19787 415.72545 740.90499 416.66016 742.61328 L 420.43945 742.61328 C 420.50887 741.60849 420.57866 740.60289 420.64062 739.59766 C 420.64311 739.55731 420.64402 739.51691 420.64648 739.47656 C 420.15849 738.48229 419.68239 737.47991 419.17773 736.49609 C 418.26726 734.72114 417.33061 732.96319 416.37109 731.21875 C 415.41158 729.47431 414.4296 727.74384 413.42773 726.02539 C 412.42587 724.30694 411.40471 722.60129 410.36719 720.9043 C 409.32966 719.20731 408.27547 717.51989 407.20898 715.83984 C 406.14249 714.1598 405.06337 712.48599 403.97461 710.81836 C 403.06488 709.42496 402.12998 708.04388 401.20898 706.65625 L 394.56445 706.65625 z "
       transform="scale(0.26458333)" />
    <path
       id="path5125"
       style="opacity:0.621572;fill:#00065f;fill-rule:evenodd;stroke:#081616;stroke-width:0.0649999;stroke-linecap:round;stroke-linejoin:round;stroke-opacity:0.914634"
       d="m 99.597537,185.91113 c -0.316161,0.50289 -0.629494,1.00786 -0.934826,1.51773 -0.368565,0.61547 -0.730509,1.23506 -1.087273,1.85674 -0.193048,0.33639 -0.382001,0.67407 -0.572575,1.01131 0.165201,0.12656 0.330034,0.25355 0.49506,0.38033 0.302487,0.23238 0.603639,0.46664 0.898136,0.70901 0.176048,0.14487 0.348922,0.29479 0.51935,0.44803 0.170426,0.15324 0.338511,0.31008 0.505394,0.4687 0.333769,0.31725 0.662197,0.6423 0.994257,0.96325 0.16603,0.16048 0.33306,0.32003 0.50178,0.47698 0.16872,0.15694 0.33914,0.31102 0.51263,0.46147 0.17348,0.15044 0.34987,0.29725 0.5302,0.43821 0.18032,0.14097 0.36472,0.27611 0.55397,0.40463 0.15836,0.10755 0.32367,0.20372 0.49092,0.29714 0.0477,0.0266 0.0953,0.0537 0.14315,0.0801 h 7.09362 c -0.24731,-0.45199 -0.49564,-0.90366 -0.74982,-1.35186 -0.31823,-0.56113 -0.64126,-1.11901 -0.96945,-1.67431 -0.51538,-0.87203 -0.92196,-1.54998 -1.27641,-2.12804 -0.35445,-0.57806 -0.65701,-1.05625 -0.9648,-1.53014 -0.30779,-0.47389 -0.62093,-0.94325 -0.99632,-1.50275 -0.2436,-0.36306 -0.57762,-0.86153 -0.88935,-1.32653 z" />
    <path
       id="path5123"
       style="opacity:0.621572;fill:#00065f;fill-rule:evenodd;stroke:#081616;stroke-width:0.245669;stroke-linecap:round;stroke-linejoin:round;stroke-opacity:0.914634"
       d="M 370.3418 706.65625 C 369.67658 707.6956 369.01101 708.73533 368.35938 709.7832 C 367.48277 711.19284 366.61848 712.609 365.76953 714.03516 C 364.92058 715.46131 364.08729 716.89593 363.26953 718.33984 C 362.93731 718.92644 362.61963 719.52165 362.29297 720.11133 C 363.21586 720.75549 364.13573 721.40294 365.06641 722.03516 C 365.5832 722.4377 366.10492 722.83398 366.625 723.23242 C 367.34528 721.95783 368.05943 720.68157 368.78906 719.41016 C 370.13746 717.06051 371.50544 714.71876 372.89844 712.39258 C 374.05245 710.46548 375.2367 708.55696 376.43164 706.65625 L 370.3418 706.65625 z "
       transform="scale(0.26458333)" />
    <path
       id="path5121"
       style="opacity:0.621572;fill:#00065f;fill-rule:evenodd;stroke:#081616;stroke-width:0.245669;stroke-linecap:round;stroke-linejoin:round;stroke-opacity:0.914634"
       d="M 358.86914 706.65625 C 358.89978 707.45787 358.93986 708.25879 358.9668 709.06055 C 359.04613 711.42216 359.10945 713.78398 359.1582 716.14648 C 359.17077 716.75566 359.17491 717.36539 359.18555 717.97461 C 359.71943 718.33613 360.25319 718.69699 360.7832 719.06445 C 361.28659 719.41345 361.79064 719.76071 362.29297 720.11133 C 362.61963 719.52165 362.93731 718.92644 363.26953 718.33984 C 364.08729 716.89593 364.92058 715.46131 365.76953 714.03516 C 366.61848 712.609 367.48277 711.19284 368.35938 709.7832 C 369.01101 708.73533 369.67658 707.6956 370.3418 706.65625 L 358.86914 706.65625 z "
       transform="scale(0.26458333)" />
    <path
       id="path5119"
       style="opacity:0.621572;fill:#00065f;fill-rule:evenodd;stroke:#081616;stroke-width:0.0649999;stroke-linecap:round;stroke-linejoin:round;stroke-opacity:0.914634"
       d="m 93.1416,186.96946 c 0.01983,0.72416 0.04002,1.44822 0.05581,2.17248 0.196617,0.11698 0.432916,0.25332 0.582392,0.34675 0.194914,0.12183 0.387745,0.24738 0.578777,0.37517 0.04925,0.0329 0.0977,0.067 0.146761,0.10025 -0.0028,-0.16119 -0.0039,-0.32251 -0.0072,-0.48369 -0.0129,-0.62508 -0.02965,-1.24998 -0.05064,-1.87482 -0.0071,-0.21213 -0.01773,-0.42404 -0.02584,-0.63614 z" />
    <path
       id="path5117"
       style="opacity:0.621572;fill:#00065f;fill-rule:evenodd;stroke:#081616;stroke-width:0.245669;stroke-linecap:round;stroke-linejoin:round;stroke-opacity:0.914634"
       d="M 339.58203 706.65625 C 340.04439 706.90165 340.36335 707.05947 340.85938 707.32617 C 342.62025 708.27296 344.5641 709.33782 346.5 710.41602 C 348.4359 711.49421 350.36201 712.58431 352.08398 713.58008 C 352.93667 714.07316 353.51325 714.43351 354.24219 714.86719 C 354.18249 712.12983 354.10621 709.3932 354.03125 706.65625 L 339.58203 706.65625 z "
       transform="scale(0.26458333)" />
    <path
       id="path5115"
       style="opacity:0.621572;fill:#00065f;fill-rule:evenodd;stroke:#081616;stroke-width:0.245669;stroke-linecap:round;stroke-linejoin:round;stroke-opacity:0.914634"
       d="M 329.625 706.65625 C 329.93573 706.82156 330.24429 706.98981 330.55664 707.15234 C 331.79158 707.79494 333.03408 708.42382 334.24805 709.10352 C 336.64271 710.44425 339.02461 711.79829 341.39453 713.16797 C 343.76445 714.53764 346.12191 715.92327 348.4668 717.33008 C 350.44064 718.51428 352.39957 719.7236 354.35547 720.93945 C 354.3276 719.38747 354.31171 717.8351 354.2793 716.2832 C 354.26944 715.81112 354.25248 715.33926 354.24219 714.86719 C 353.51325 714.43351 352.93667 714.07316 352.08398 713.58008 C 350.36201 712.58431 348.4359 711.49421 346.5 710.41602 C 344.5641 709.33782 342.62025 708.27296 340.85938 707.32617 C 340.36335 707.05947 340.04439 706.90165 339.58203 706.65625 L 329.625 706.65625 z "
       transform="scale(0.26458333)" />
    <path
       id="path5113"
       style="opacity:0.621572;fill:#00065f;fill-rule:evenodd;stroke:#081616;stroke-width:0.245669;stroke-linecap:round;stroke-linejoin:round;stroke-opacity:0.914634"
       d="M 324.95703 706.65625 C 325.17313 707.17881 325.38187 707.70469 325.61133 708.2207 C 325.9949 709.0833 326.39716 709.93677 326.81641 710.78125 C 327.23565 711.62573 327.67217 712.46244 328.125 713.28906 C 328.57783 714.11568 329.04692 714.93318 329.53125 715.74219 C 330.01558 716.55119 330.51555 717.35094 331.0293 718.14258 C 331.54305 718.93421 332.07024 719.71768 332.61133 720.49219 C 333.15241 721.2667 333.7071 722.03338 334.27344 722.79102 C 334.83978 723.54865 335.4183 724.29611 336.00781 725.03711 C 336.59732 725.77811 337.198 726.51171 337.80859 727.23633 C 338.41919 727.96095 339.04032 728.67823 339.66992 729.38672 C 340.29953 730.0952 340.93746 730.79569 341.58398 731.48828 C 342.87704 732.87347 344.20254 734.22572 345.55078 735.54883 C 346.89903 736.87194 348.26947 738.16472 349.65625 739.42773 C 350.58549 740.13982 351.4948 740.88172 352.41016 741.61328 C 352.65819 740.85278 352.91927 740.09521 353.20508 739.3418 C 353.5327 738.47815 353.87944 737.61664 354.23633 736.75781 C 354.34313 736.5008 354.45239 736.24319 354.56055 735.98633 C 354.54293 734.11582 354.53498 732.24547 354.51172 730.375 C 354.47261 727.22976 354.41194 724.08445 354.35547 720.93945 C 352.39957 719.7236 350.44064 718.51428 348.4668 717.33008 C 346.12191 715.92327 343.76445 714.53764 341.39453 713.16797 C 339.02461 711.79829 336.64271 710.44425 334.24805 709.10352 C 333.03408 708.42382 331.79158 707.79494 330.55664 707.15234 C 330.24429 706.98981 329.93573 706.82156 329.625 706.65625 L 324.95703 706.65625 z "
       transform="scale(0.26458333)" />
    <path
       id="path5111"
       style="opacity:0.621572;fill:#00065f;fill-rule:evenodd;stroke:#081616;stroke-width:0.0649999;stroke-linecap:round;stroke-linejoin:round;stroke-opacity:0.914634"
       d="m 84.783455,185.91113 c 0.01145,0.0348 0.02088,0.0707 0.03256,0.10542 0.08574,0.25458 0.177249,0.50592 0.27492,0.75396 0.09767,0.24803 0.201581,0.49265 0.310573,0.73432 0.108996,0.24166 0.223425,0.48023 0.343133,0.71572 0.119708,0.23549 0.244322,0.46762 0.374137,0.69711 0.129818,0.2295 0.264792,0.45638 0.404109,0.68006 0.139319,0.22369 0.283292,0.44443 0.431498,0.6625 0.148209,0.21807 0.300329,0.43332 0.456822,0.64595 0.15649,0.21264 0.317455,0.42255 0.481623,0.62994 0.164169,0.20739 0.331576,0.4121 0.502812,0.61443 0.171236,0.20233 0.346302,0.40251 0.523999,0.59996 0.177697,0.19746 0.358021,0.39221 0.541568,0.58498 0.183549,0.19277 0.369829,0.38327 0.558623,0.57154 0.188793,0.18827 0.380179,0.37467 0.573608,0.55862 0.343845,0.32701 0.696823,0.64492 1.05265,0.95912 h 1.516187 c 0.01741,-0.0587 0.03006,-0.11829 0.04857,-0.17674 0.0093,-0.0295 0.02141,-0.0584 0.03101,-0.0879 -0.242189,-0.19355 -0.482778,-0.38985 -0.728639,-0.57826 -0.366919,-0.33417 -0.729514,-0.67621 -1.086239,-1.02629 -0.356722,-0.35007 -0.707427,-0.70785 -1.049549,-1.07435 -0.171059,-0.18325 -0.339844,-0.36859 -0.506428,-0.55604 -0.166582,-0.18745 -0.330923,-0.37723 -0.492477,-0.56896 -0.161552,-0.19172 -0.320482,-0.38582 -0.476457,-0.58187 -0.155974,-0.19606 -0.309041,-0.39383 -0.458885,-0.59428 -0.149844,-0.20046 -0.296606,-0.40331 -0.439767,-0.60823 -0.143163,-0.20493 -0.282649,-0.41222 -0.418578,-0.62167 -0.13593,-0.20946 -0.268214,-0.42106 -0.39636,-0.6351 -0.128145,-0.21406 -0.252259,-0.43035 -0.37207,-0.64906 -0.119811,-0.21871 -0.235307,-0.44009 -0.346231,-0.66353 -0.110927,-0.22343 -0.217358,-0.44925 -0.318844,-0.67748 -0.06071,-0.13652 -0.11594,-0.27566 -0.173117,-0.41392 z" />
    <path
       id="path5109"
       style="opacity:0.621572;fill:#00065f;fill-rule:evenodd;stroke:#081616;stroke-width:0.0649999;stroke-linecap:round;stroke-linejoin:round;stroke-opacity:0.914634"
       d="m 84.236718,186.96946 c 0.0081,1.10955 0.01519,2.21941 0.0124,3.329 -0.0036,1.42066 -0.01595,2.84125 -0.03514,4.26175 -0.008,0.21132 -0.01857,0.40366 -0.03359,0.58085 -0.01502,0.17718 -0.034,0.33928 -0.05839,0.48989 -0.02439,0.15061 -0.05433,0.28957 -0.09043,0.42116 -0.0361,0.1316 -0.07853,0.25556 -0.128674,0.37569 -0.0079,0.0189 -0.01914,0.0366 -0.02739,0.0553 h 8.299751 c -0.355827,-0.31419 -0.708805,-0.6321 -1.05265,-0.95911 -0.193429,-0.18396 -0.384815,-0.37035 -0.573609,-0.55862 -0.188793,-0.18827 -0.375073,-0.37877 -0.558622,-0.57154 -0.183547,-0.19277 -0.363871,-0.38752 -0.541568,-0.58498 -0.177697,-0.19746 -0.352764,-0.39763 -0.523999,-0.59996 -0.171236,-0.20233 -0.338643,-0.40705 -0.502812,-0.61444 -0.164169,-0.20739 -0.325133,-0.4173 -0.481624,-0.62993 -0.156493,-0.21264 -0.308612,-0.42789 -0.456821,-0.64596 -0.148207,-0.21807 -0.29218,-0.4388 -0.431499,-0.66249 -0.139316,-0.22369 -0.274291,-0.45057 -0.404108,-0.68006 -0.129815,-0.2295 -0.254429,-0.46163 -0.374137,-0.69712 -0.119708,-0.23548 -0.234138,-0.47405 -0.343133,-0.71571 -0.108992,-0.24167 -0.212905,-0.4863 -0.310573,-0.73433 -0.09767,-0.24803 -0.189182,-0.49937 -0.274921,-0.75396 -0.01168,-0.0347 -0.0211,-0.0706 -0.03255,-0.10542 z" />
    <path
       id="path5107"
       style="opacity:0.621572;fill:#00065f;fill-rule:evenodd;stroke:#081616;stroke-width:0.245669;stroke-linecap:round;stroke-linejoin:round;stroke-opacity:0.914634"
       d="M 312.0918 706.65625 C 312.09691 710.85162 312.10288 715.04683 312.12109 719.24219 C 312.14438 724.60618 312.1791 729.97025 312.22852 735.33398 C 312.21546 736.02184 312.19769 736.64 312.16992 737.20117 C 312.14216 737.76235 312.10561 738.26776 312.05273 738.73047 C 311.99986 739.19317 311.93016 739.61341 311.8418 740.00586 C 311.75343 740.39831 311.64597 740.76287 311.51172 741.11328 C 311.37746 741.4637 311.21788 741.80012 311.02734 742.13672 C 310.93857 742.29354 310.81748 742.45497 310.71484 742.61328 L 315.00977 742.61328 C 315.04093 742.54272 315.08355 742.47552 315.11328 742.4043 C 315.30281 741.95027 315.46315 741.48173 315.59961 740.98438 C 315.73607 740.48702 315.84921 739.96181 315.94141 739.39258 C 316.03361 738.82334 316.10536 738.21069 316.16211 737.54102 C 316.21886 736.87134 316.25894 736.14437 316.28906 735.3457 C 316.36159 729.97688 316.40841 724.60772 316.42188 719.23828 C 316.4324 715.04455 316.40546 710.84982 316.375 706.65625 L 312.0918 706.65625 z "
       transform="scale(0.26458333)" />
    <path
       id="path5105"
       style="opacity:0.621572;fill:#00065f;fill-rule:evenodd;stroke:#081616;stroke-width:0.0649999;stroke-linecap:round;stroke-linejoin:round;stroke-opacity:0.914634"
       d="m 78.875804,186.4403 c -0.207732,0.30552 -0.414205,0.61214 -0.615981,0.9219 -0.240224,0.36879 -0.476449,0.73991 -0.711068,1.11208 -0.469241,0.74434 -0.930436,1.49263 -1.39578,2.23346 -0.575202,1.00774 -1.02216,1.77684 -1.454693,2.54609 -0.216268,0.38463 -0.428958,0.76911 -0.652155,1.18391 -0.2232,0.4148 -0.457192,0.85994 -0.715719,1.36478 -0.02591,0.0506 -0.05276,0.10095 -0.07907,0.15141 h 8.958625 c 0.02716,-0.0419 0.05919,-0.0846 0.08268,-0.12609 0.05041,-0.0891 0.09264,-0.17807 0.128159,-0.27079 0.03552,-0.0927 0.06395,-0.18917 0.08733,-0.293 0.02338,-0.10384 0.04182,-0.21503 0.05581,-0.33745 0.01399,-0.12242 0.02366,-0.25615 0.03101,-0.40463 0.0073,-0.14847 0.01205,-0.31203 0.01551,-0.49402 -0.01308,-1.41916 -0.02226,-2.8384 -0.02842,-4.25762 -0.0048,-1.11003 -0.0064,-2.22001 -0.0077,-3.33003 z" />
    <path
       id="path5103"
       style="opacity:0.621572;fill:#00065f;fill-rule:evenodd;stroke:#081616;stroke-width:0.245669;stroke-linecap:round;stroke-linejoin:round;stroke-opacity:0.914634"
       d="M 292.11133 706.65625 C 291.41439 707.67247 290.70722 708.68133 290.0293 709.71094 C 288.88247 711.45269 287.76149 713.21088 286.66211 714.98242 C 285.56273 716.75397 284.48451 718.53946 283.42383 720.33008 C 282.24649 722.47631 280.9988 724.68127 279.74219 726.92969 C 278.48558 729.1781 277.21974 731.46989 276.00586 733.78516 C 275.39892 734.94279 274.80581 736.10571 274.23242 737.27344 C 273.65904 738.44116 273.10661 739.61371 272.58203 740.78711 C 272.30995 741.3957 272.06833 742.00406 271.8125 742.61328 L 276.85547 742.61328 C 276.95491 742.42259 277.05638 742.23223 277.1543 742.04102 C 278.13141 740.13297 279.01579 738.45056 279.85938 736.88281 C 280.70296 735.31506 281.50683 733.86191 282.32422 732.4082 C 283.95899 729.50079 285.64828 726.59394 287.82227 722.78516 C 289.58105 719.98519 291.32415 717.15701 293.09766 714.34375 C 293.98441 712.93712 294.87723 711.53445 295.78516 710.14062 C 296.54778 708.96987 297.32815 707.81099 298.11328 706.65625 L 292.11133 706.65625 z "
       transform="scale(0.26458333)" />
    <path
       id="path5101"
       style="opacity:0.621572;fill:#00065f;fill-rule:evenodd;stroke:#081616;stroke-width:0.0649999;stroke-linecap:round;stroke-linejoin:round;stroke-opacity:0.914634"
       d="m 73.750537,187.49863 c -0.144476,0.17135 -0.290222,0.34172 -0.434599,0.51315 -1.134809,1.34742 -2.266797,2.6971 -3.398243,4.0473 -1.131445,1.35019 -2.262351,2.7007 -3.395141,4.04988 -0.253248,0.30162 -0.508254,0.60185 -0.761711,0.9033 h 6.156213 c 0.06769,-0.16119 0.131617,-0.32215 0.203605,-0.48317 0.138795,-0.31047 0.284959,-0.6207 0.436666,-0.92966 0.151709,-0.30896 0.308636,-0.61665 0.469223,-0.92294 0.321172,-0.61258 0.656092,-1.21895 0.98857,-1.81385 0.332478,-0.59489 0.662596,-1.17829 0.974101,-1.74614 0.280638,-0.47377 0.565917,-0.94618 0.856795,-1.4149 0.290877,-0.46872 0.58747,-0.93391 0.890902,-1.39475 0.179366,-0.27242 0.366472,-0.53934 0.55087,-0.80822 z" />
    <path
       id="path5099"
       style="opacity:0.621572;fill:#00065f;fill-rule:evenodd;stroke:#081616;stroke-width:0.245669;stroke-linecap:round;stroke-linejoin:round;stroke-opacity:0.914634"
       d="M 271.77539 706.65625 C 269.94777 708.74421 268.12622 710.83632 266.32031 712.94336 C 264.16266 715.46081 262.0202 717.99155 259.89062 720.5332 C 257.76105 723.07485 255.64372 725.62691 253.53906 728.18945 C 251.4344 730.752 249.34073 733.32417 247.25781 735.9043 C 245.45797 738.13377 243.67058 740.37298 241.88477 742.61328 L 248.54492 742.61328 C 249.50287 741.47392 250.46667 740.33921 251.42383 739.19922 C 255.70524 734.09996 259.97953 728.99566 264.25586 723.89258 C 268.53219 718.78949 272.81057 713.68834 277.09961 708.5957 C 277.64529 707.94778 278.19614 707.30387 278.74219 706.65625 L 271.77539 706.65625 z "
       transform="scale(0.26458333)" />
    <path
       id="path5097"
       style="opacity:0.621572;fill:#00065f;fill-rule:evenodd;stroke:#081616;stroke-width:0.0649999;stroke-linecap:round;stroke-linejoin:round;stroke-opacity:0.914634"
       d="m 60.945116,186.4403 c -0.0028,0.18729 -0.0036,0.37417 -0.0093,0.56172 -0.0095,0.3123 -0.01964,0.62481 -0.01964,0.93586 0,0.15553 0.0023,0.31086 0.0088,0.4656 0.0064,0.15475 0.01696,0.30884 0.03255,0.46251 0.0072,1.7656 0.002,3.53156 0.0026,5.29735 2.04e-4,0.59692 0.0024,1.1937 0.0047,1.79059 h 3.033924 c 0.472495,-0.59275 0.945409,-1.18521 1.421617,-1.77509 0.551106,-0.68266 1.105056,-1.36321 1.661914,-2.04122 0.556858,-0.678 1.117068,-1.35324 1.680517,-2.02571 0.563451,-0.67248 1.13031,-1.34207 1.701188,-2.00815 0.477814,-0.55749 0.959766,-1.11102 1.443324,-1.66346 z" />
    <path
       id="path5095"
       style="opacity:0.621572;fill:#00065f;fill-rule:evenodd;stroke:#081616;stroke-width:0.245669;stroke-linecap:round;stroke-linejoin:round;stroke-opacity:0.914634"
       d="M 226.02344 706.65625 C 225.98412 707.78153 225.93213 708.98951 225.91016 710.01758 C 225.8735 711.7326 225.85159 713.48116 225.80859 715.82422 C 225.79432 719.18023 225.78378 722.53693 225.79102 725.89453 C 225.79826 729.25213 225.82322 732.60984 225.88086 735.9668 C 225.91891 738.18284 225.9979 740.39833 226.06836 742.61328 L 230.41797 742.61328 C 230.40958 740.35733 230.40116 738.10179 230.40039 735.8457 C 230.39811 729.17185 230.41788 722.49735 230.39062 715.82422 C 230.33169 715.24344 230.29192 714.66105 230.26758 714.07617 C 230.24324 713.4913 230.23438 712.90422 230.23438 712.31641 C 230.23437 711.14079 230.27279 709.95965 230.30859 708.7793 C 230.3301 708.07043 230.33302 707.36413 230.34375 706.65625 L 226.02344 706.65625 z "
       transform="scale(0.26458333)" />
    <path
       id="path5093"
       style="opacity:0.621572;fill:#00065f;fill-rule:evenodd;stroke:#081616;stroke-width:0.0649999;stroke-linecap:round;stroke-linejoin:round;stroke-opacity:0.914634"
       d="m 50.552987,196.48309 h 9.790099 c -0.01864,-0.58603 -0.03954,-1.17222 -0.04961,-1.75854 -0.01525,-0.8882 -0.02186,-1.77659 -0.02377,-2.66496 -0.0019,-0.88836 8.73e-4,-1.77649 0.0046,-2.66443 0.01138,-0.61994 0.01717,-1.08258 0.02687,-1.53634 0.0058,-0.27201 0.01957,-0.59163 0.02997,-0.88936 h -0.496094 c -0.678436,0.67714 -1.354473,1.35602 -2.025716,2.04019 -0.798957,0.81435 -1.59377,1.63306 -2.386936,2.45308 -1.58633,1.64004 -3.166004,3.28643 -4.757848,4.92115 -0.01816,0.0153 -0.0872,0.0777 -0.11162,0.0992 z" />
    <path
       id="path5091"
       style="opacity:0.621572;fill:#00065f;fill-rule:evenodd;stroke:#081616;stroke-width:0.245669;stroke-linecap:round;stroke-linejoin:round;stroke-opacity:0.914634"
       d="M 189.06641 742.61328 C 189.15871 742.53213 189.41963 742.29602 189.48828 742.23828 C 195.5047 736.05983 201.47512 729.83724 207.4707 723.63867 C 210.46849 720.53939 213.47251 717.44503 216.49219 714.36719 C 219.02917 711.78134 221.58427 709.21549 224.14844 706.65625 L 218.11328 706.65625 C 216.54633 708.11238 214.99162 709.58093 213.44727 711.06055 C 211.87897 712.5631 210.32125 714.07596 208.77344 715.59961 C 207.22562 717.12326 205.68837 718.65761 204.1582 720.19922 C 201.09786 723.28244 198.06926 726.39895 195.0625 729.53516 C 194.40237 730.22371 193.75197 730.92096 193.09375 731.61133 C 192.15275 733.45344 191.20421 735.29147 190.27344 737.13867 C 189.35597 738.95947 188.45346 740.78805 187.54492 742.61328 L 189.06641 742.61328 z "
       transform="scale(0.26458333)" />
    <path
       id="path5089"
       style="opacity:0.621572;fill:#00065f;fill-rule:evenodd;stroke:#081616;stroke-width:0.245669;stroke-linecap:round;stroke-linejoin:round;stroke-opacity:0.914634"
       d="M 173.56055 742.61328 C 173.3352 741.7508 173.11387 740.88639 172.87695 740.02734 C 172.5144 738.71275 172.13865 737.40277 171.74609 736.09766 C 171.35354 734.79254 170.94368 733.4931 170.51758 732.19922 C 170.09148 730.90533 169.64873 729.61686 169.18555 728.33594 C 168.72236 727.05502 168.24013 725.78183 167.73633 724.51562 C 167.23252 723.24942 166.70616 721.98999 166.1582 720.74023 C 165.61024 719.49048 165.03902 718.2511 164.44336 717.01953 C 163.71208 715.50757 162.92848 714.02139 162.13086 712.54297 C 161.33324 711.06455 160.52263 709.59255 159.73828 708.10742 C 159.71842 708.07005 159.63443 708.07205 159.50391 708.10547 C 159.37339 708.13889 159.19642 708.20436 158.98828 708.29102 C 158.572 708.46433 158.03245 708.7269 157.50391 709.00781 C 156.97536 709.28873 156.45858 709.58788 156.08203 709.83594 C 155.89376 709.95997 155.73939 710.07068 155.63867 710.16016 C 155.53795 710.24964 155.4899 710.31809 155.50977 710.35547 C 156.42286 712.06232 157.22819 713.5429 157.96875 714.91406 C 158.70931 716.28522 159.38429 717.54746 160.03906 718.81836 C 160.69384 720.08925 161.32864 721.36738 161.98438 722.77344 C 162.64011 724.1795 163.31711 725.71357 164.06055 727.49023 C 164.42611 728.36384 164.77716 729.24305 165.11523 730.12695 C 165.45331 731.01085 165.77988 731.89886 166.0957 732.79102 C 166.72736 734.57533 167.31849 736.37458 167.89258 738.17969 C 168.36217 739.65621 168.82274 741.13276 169.2793 742.61328 L 173.56055 742.61328 z "
       transform="scale(0.26458333)" />
    <path
       id="path5087"
       style="opacity:0.621572;fill:#00065f;fill-rule:evenodd;stroke:#081616;stroke-width:0.0649999;stroke-linecap:round;stroke-linejoin:round;stroke-opacity:0.914634"
       d="M 51.846963,186.4403 H 36.28564 v 9.51363 h 7.973674 c -0.120798,-0.39172 -0.242657,-0.78239 -0.366903,-1.17306 -0.151895,-0.4776 -0.308298,-0.95365 -0.475425,-1.42575 -0.08356,-0.23605 -0.169965,-0.471 -0.259416,-0.70487 -0.08945,-0.23386 -0.182329,-0.46649 -0.27905,-0.69763 -0.196702,-0.47007 -0.375825,-0.87596 -0.54932,-1.24798 -0.173498,-0.37202 -0.341456,-0.7102 -0.5147,-1.04645 -0.173241,-0.33626 -0.351829,-0.67023 -0.547769,-1.03301 -0.19594,-0.36279 -0.409017,-0.75453 -0.650605,-1.20613 -0.0053,-0.01 0.0075,-0.028 0.0341,-0.0517 0.02665,-0.0237 0.06749,-0.053 0.117305,-0.0858 0.09963,-0.0656 0.23636,-0.14478 0.376206,-0.21911 0.139843,-0.0743 0.282599,-0.1438 0.39274,-0.18965 0.05507,-0.0229 0.101893,-0.0402 0.136427,-0.0491 0.03453,-0.009 0.05676,-0.009 0.06201,5.1e-4 0.207526,0.39294 0.422,0.78241 0.633037,1.17358 0.211037,0.39116 0.418364,0.78438 0.611849,1.18442 0.157601,0.32585 0.308737,0.65377 0.453718,0.98443 0.144981,0.33067 0.284247,0.66389 0.417547,0.99891 0.133297,0.33502 0.260887,0.67188 0.383439,1.01079 0.12255,0.33891 0.239694,0.67982 0.352433,1.02216 0.112739,0.34234 0.221181,0.68615 0.325043,1.03146 0.103865,0.34531 0.203282,0.69191 0.299207,1.03973 0.06269,0.22729 0.121245,0.456 0.180869,0.6842 h 1.645378 c 0.07261,-0.15413 0.143483,-0.3091 0.216524,-0.46302 0.287002,-0.60484 0.577255,-1.20797 0.870747,-1.80971 0.293494,-0.60175 0.590573,-1.20178 0.890386,-1.80041 0.299813,-0.59863 0.602509,-1.19561 0.908471,-1.7911 0.305961,-0.5955 0.615137,-1.18947 0.927076,-1.78181 0.311936,-0.59234 0.626904,-1.18333 0.944644,-1.7725 0.01712,-0.0318 0.03454,-0.0633 0.05168,-0.0951 z" />
    <path
       id="path5085"
       style="opacity:0.621572;fill:#00065f;fill-rule:evenodd;stroke:#081616;stroke-width:0.245669;stroke-linecap:round;stroke-linejoin:round;stroke-opacity:0.914634"
       d="M 197.95703 706.65625 C 197.89225 706.77623 197.82644 706.89561 197.76172 707.01562 C 196.56081 709.2424 195.37038 711.47607 194.19141 713.71484 C 193.01243 715.95361 191.84389 718.19853 190.6875 720.44922 C 189.53111 722.69991 188.38706 724.95621 187.25391 727.21875 C 186.12076 729.48129 184.99794 731.74912 183.88867 734.02344 C 182.77941 736.29775 181.68239 738.57727 180.59766 740.86328 C 180.3216 741.44504 180.05373 742.03076 179.7793 742.61328 L 182.21289 742.61328 C 183.38495 741.53934 184.53209 740.43595 186.09375 738.99023 C 188.41627 736.52085 190.75393 734.06543 193.09375 731.61133 C 193.86546 730.10061 194.62702 728.58509 195.40625 727.07812 C 197.13565 723.73362 198.88524 720.39797 200.65625 717.07422 C 202.71081 713.21833 204.50897 709.93626 206.30664 706.65625 L 197.95703 706.65625 z "
       transform="scale(0.26458333)" />
    <path
       id="rect872"
       style="opacity:0.621572;fill:#00065f;fill-rule:evenodd;stroke:#081616;stroke-width:0.305649;stroke-linecap:round;stroke-linejoin:round;stroke-opacity:0.914634"
       d="M 168.84766 594.85742 L 168.84766 555.24414 L 145.98047 586.85742 L 168.84766 594.85742 z "
       transform="scale(0.26458333)" />
    <path
       id="path1072"
       style="opacity:0.621572;fill:#00065f;fill-rule:evenodd;stroke:#081616;stroke-width:0.0808696;stroke-linecap:round;stroke-linejoin:round;stroke-opacity:0.914634"
       d="m 86.381813,146.42931 h -40.06629 l -1.11208,1.53737 v 10.48102 l 25.924,9.07024 z" />
    <path
       id="path1070"
       style="opacity:0.621572;fill:#00065f;fill-rule:evenodd;stroke:#081616;stroke-width:0.305649;stroke-linecap:round;stroke-linejoin:round;stroke-opacity:0.914634"
       d="M 386.67122,304.99169 173.05078,549.43359 H 324.48242 L 489.5398,246.43183 Z"
       transform="scale(0.26458333)"
       sodipodi:nodetypes="ccccc" />
    <path
       id="rect954"
       style="opacity:0.621572;fill:#00065f;fill-rule:evenodd;stroke:#081616;stroke-width:0.0919196;stroke-linecap:round;stroke-linejoin:round;stroke-opacity:0.914634"
       d="m 102.30212,139.19857 24.20546,28.70328 34.92623,-10.48112 v -6.41205 l -9.95972,-11.81011 z" />
    <path
       id="path1250"
       style="opacity:0.621572;fill:#00065f;fill-rule:evenodd;stroke:#081616;stroke-width:0.0370486;stroke-linecap:round;stroke-linejoin:round;stroke-opacity:0.914634"
       d="M 132.61617,97.985553 151.47409,138.6694 H 138.10605 L 123.53517,88.239104 Z"
       sodipodi:nodetypes="ccccc" />
  </g>
</svg>
