<?xml version="1.0" encoding="UTF-8" standalone="no"?>
<svg
   width="224.88"
   viewBox="0 0 224.88 225"
   height="225"
   version="1.0"
   id="svg52"
   sodipodi:docname="illustratecon.svg"
   inkscape:version="1.1.1 (3bf5ae0d25, 2021-09-20)"
   xmlns:inkscape="http://www.inkscape.org/namespaces/inkscape"
   xmlns:sodipodi="http://sodipodi.sourceforge.net/DTD/sodipodi-0.dtd"
   xmlns:xlink="http://www.w3.org/1999/xlink"
   xmlns="http://www.w3.org/2000/svg"
   xmlns:svg="http://www.w3.org/2000/svg">
  <sodipodi:namedview
     id="namedview54"
     pagecolor="#ffffff"
     bordercolor="#666666"
     borderopacity="1.0"
     inkscape:pageshadow="2"
     inkscape:pageopacity="0.0"
     inkscape:pagecheckerboard="0"
     showgrid="false"
     inkscape:zoom="1.5955556"
     inkscape:cx="36.664345"
     inkscape:cy="101.21866"
     inkscape:window-width="1920"
     inkscape:window-height="991"
     inkscape:window-x="-9"
     inkscape:window-y="-9"
     inkscape:window-maximized="1"
     inkscape:current-layer="svg52" />
  <defs
     id="defs14">
    <linearGradient
       inkscape:collect="always"
       id="linearGradient925">
      <stop
         style="stop-color:#9878ef;stop-opacity:0.97647059"
         offset="0"
         id="stop921" />
      <stop
         style="stop-color:#ef8b78;stop-opacity:0.97647059"
         offset="1"
         id="stop923" />
    </linearGradient>
    <clipPath
       id="a">
      <path
         d="M 31 0.0585938 L 190 0.0585938 L 190 164 L 31 164 Z M 31 0.0585938"
         id="path2" />
    </clipPath>
    <clipPath
       id="b">
      <path
         d="M 164 82 L 196.628906 82 L 196.628906 124 L 164 124 Z M 164 82"
         id="path5" />
    </clipPath>
    <clipPath
       id="c">
      <path
         d="M 45 68 L 182 68 L 182 224.9375 L 45 224.9375 Z M 45 68"
         id="path8" />
    </clipPath>
    <clipPath
       id="d">
      <path
         d="M 45 75 L 182 75 L 182 224.9375 L 45 224.9375 Z M 45 75"
         id="path11" />
    </clipPath>
    <linearGradient
       inkscape:collect="always"
       xlink:href="#linearGradient925"
       id="linearGradient927"
       x1="-59.54039"
       y1="134.7493"
       x2="164.01172"
       y2="105.17578"
       gradientUnits="userSpaceOnUse" />
  </defs>
  <g
     id="g889"
     style="fill-opacity:1;fill:url(#linearGradient927)">
    <path
       fill="#FFF"
       d="M 32.914062 105.175781 C 32.914062 114.917969 39.726562 122.816406 48.132812 122.816406 C 56.539062 122.816406 63.355469 114.917969 63.355469 105.175781 L 63.355469 100.726562 C 63.355469 90.980469 56.539062 83.082031 48.132812 83.082031 C 39.726562 83.082031 32.914062 90.980469 32.914062 100.726562 L 32.914062 105.175781"
       id="path16"
       style="fill-opacity:1.0;fill:url(#linearGradient927)" />
    <path
       fill="#040606"
       d="M 32.914062 105.175781 L 31.933594 105.175781 C 31.9375 110.277344 33.71875 114.910156 36.628906 118.289062 C 39.542969 121.667969 43.617188 123.796875 48.132812 123.792969 C 52.648438 123.796875 56.726562 121.667969 59.632812 118.289062 C 62.546875 114.910156 64.328125 110.277344 64.328125 105.175781 L 64.328125 100.726562 C 64.328125 95.628906 62.546875 90.992188 59.632812 87.613281 C 56.726562 84.234375 52.648438 82.105469 48.132812 82.105469 C 43.617188 82.105469 39.542969 84.234375 36.628906 87.613281 C 33.71875 90.992188 31.9375 95.628906 31.933594 100.726562 L 31.933594 105.175781 L 33.886719 105.175781 L 33.886719 100.726562 C 33.886719 96.082031 35.511719 91.898438 38.109375 88.890625 C 40.707031 85.882812 44.242188 84.0625 48.132812 84.058594 C 52.023438 84.0625 55.558594 85.882812 58.15625 88.890625 C 60.753906 91.898438 62.382812 96.082031 62.378906 100.726562 L 62.378906 105.175781 C 62.382812 109.816406 60.753906 114.003906 58.15625 117.011719 C 55.558594 120.019531 52.023438 121.839844 48.132812 121.839844 C 44.242188 121.839844 40.707031 120.019531 38.109375 117.011719 C 35.511719 114.003906 33.886719 109.816406 33.886719 105.175781 L 32.914062 105.175781"
       id="path18"
       style="fill-opacity:1.0;fill:url(#linearGradient927)" />
    <path
       fill="#8C52FF"
       d="M 162.089844 136.902344 L 178.59375 162.28125 C 178.726562 160.964844 178.859375 159.648438 178.992188 158.328125 C 181.046875 138.121094 183.101562 117.910156 185.15625 97.699219 C 186.261719 86.832031 187.347656 75.832031 187.976562 64.925781 C 189.308594 41.804688 172.128906 31.609375 152.101562 25.847656 C 130.671875 19.675781 108.25 18.539062 86.15625 16.636719 C 71.8125 15.402344 49.984375 16.902344 42.875 1.03125 C 40.929688 7.378906 36.277344 12.214844 34.511719 18.953125 C 28.246094 42.859375 40.941406 66.484375 45.808594 89.371094 C 46.75 93.800781 46.015625 102.039062 49.292969 104.453125 C 50.132812 105.074219 51.984375 105.230469 52.980469 105.515625 C 63.683594 108.582031 74.378906 111.667969 85.078125 114.746094 C 110.75 122.132812 136.421875 129.515625 162.089844 136.902344"
       id="path20"
       style="fill-opacity:1.0;fill:url(#linearGradient927)" />
    <path
       fill="#040606"
       d="m 162.08984,136.90234 -0.8164,0.53125 16.5,25.37891 c 0.22656,0.34766 0.64453,0.51562 1.04687,0.41797 0.40235,-0.0977 0.69922,-0.44141 0.74219,-0.85156 0.13672,-1.31641 0.26562,-2.63282 0.40234,-3.94922 2.05469,-20.21094 4.10938,-40.42188 6.16407,-60.632815 1.10546,-10.867187 2.1914,-21.878906 2.82031,-32.8125 0.0508,-0.867187 0.0742,-1.714844 0.0742,-2.546875 0.004,-5.46875 -1.06641,-10.234375 -2.9961,-14.367188 -2.88672,-6.203124 -7.6875,-10.960937 -13.55078,-14.667968 -5.86719,-3.710938 -12.8164,-6.394532 -20.10547,-8.496094 C 130.79297,18.695312 108.30859,17.566406 86.238281,15.664062 79,15.046875 70.003906,15.105469 62.007812,13.367188 58.011719,12.503906 54.28125,11.195312 51.148438,9.171875 48.011719,7.144531 45.464844,4.421875 43.761719,0.632812 43.597656,0.261719 43.21875,0.03125 42.8125,0.0585938 c -0.40625,0.0234374 -0.75,0.2968752 -0.871094,0.6875002 -0.925781,3.027344 -2.53125,5.761718 -4.164062,8.613281 -1.625,2.851563 -3.285156,5.828125 -4.210938,9.34375 -1.21875,4.65625 -1.734375,9.296875 -1.734375,13.914063 0.0039,9.773437 2.300781,19.417968 5.066407,28.921874 2.765624,9.5 6.007812,18.859376 7.957031,28.035157 0.21875,1.023437 0.347656,2.339843 0.464843,3.761719 0.171876,2.136718 0.304688,4.507812 0.722657,6.640624 0.210937,1.066408 0.492187,2.078128 0.910156,2.980468 0.414063,0.89844 0.972656,1.70313 1.761719,2.28516 0.332031,0.24219 0.6875,0.39453 1.050781,0.52344 0.542969,0.18359 1.117187,0.30468 1.644531,0.41015 0.523438,0.10156 1.007813,0.19141 1.300782,0.27735 10.703124,3.07031 21.398437,6.15625 32.097656,9.23437 25.671876,7.38281 51.343746,14.76562 77.015626,22.15234 l 0.26562,-0.9375 -0.8164,0.53125 0.8164,-0.53125 0.26953,-0.9414 C 136.6875,128.57812 111.01563,121.19141 85.347656,113.80859 74.648438,110.73047 63.953125,107.64453 53.25,104.57813 c -0.597656,-0.17188 -1.304688,-0.27735 -1.960938,-0.42188 -0.328124,-0.0742 -0.636718,-0.15234 -0.886718,-0.23828 -0.253906,-0.0859 -0.445313,-0.18359 -0.53125,-0.25 -0.585938,-0.42969 -1.082032,-1.20703 -1.449219,-2.28516 -0.558594,-1.609372 -0.808594,-3.804685 -0.988281,-6.011716 -0.183594,-2.207032 -0.292969,-4.417969 -0.667969,-6.203125 -1.988281,-9.339844 -5.25,-18.738281 -7.996094,-28.175781 -2.75,-9.4375 -4.984375,-18.914063 -4.984375,-28.375 0,-4.472657 0.496094,-8.9375 1.667969,-13.417969 0.84375,-3.214844 2.394531,-6.03125 4.015625,-8.871094 1.621094,-2.835937 3.316406,-5.691406 4.335938,-9.007813 L 42.875,1.03125 41.980469,1.429688 c 1.859375,4.148437 4.703125,7.191406 8.109375,9.382812 5.113281,3.296875 11.449218,4.734375 17.828125,5.5 6.378906,0.761719 12.832031,0.839844 18.152343,1.296875 22.121098,1.902344 44.476558,3.042969 65.761718,9.171875 9.57813,2.757812 18.4375,6.527344 24.83594,12.160156 3.20312,2.816406 5.79297,6.09375 7.59375,9.957032 1.79687,3.863281 2.8125,8.324218 2.8125,13.539062 0,0.792969 -0.0234,1.605469 -0.0742,2.433594 -0.625,10.878906 -1.70703,21.863281 -2.8125,32.730468 -2.05469,20.210938 -4.10938,40.417968 -6.16406,60.628908 -0.13282,1.3164 -0.26953,2.63281 -0.40235,3.94922 l 0.97266,0.10156 0.81641,-0.53516 -16.50391,-25.3789 c -0.125,-0.19532 -0.32031,-0.33985 -0.54688,-0.40625 l -0.26953,0.9414"
       id="path22"
       style="fill-opacity:1.0;fill:url(#linearGradient927)" />
    <path
       fill="#FFF"
       d="M 164.988281 105.175781 C 164.988281 114.917969 171.800781 122.816406 180.210938 122.816406 C 188.613281 122.816406 195.429688 114.917969 195.429688 105.175781 L 195.429688 100.726562 C 195.429688 90.980469 188.613281 83.082031 180.210938 83.082031 C 171.800781 83.082031 164.988281 90.980469 164.988281 100.726562 L 164.988281 105.175781"
       id="path26"
       style="fill-opacity:1.0;fill:url(#linearGradient927)" />
    <path
       fill="#040606"
       d="m 164.98828,105.17578 h -0.97656 c 0,5.10156 1.78125,9.73438 4.69531,13.11328 2.91016,3.37891 6.98828,5.50782 11.50391,5.50391 4.51172,0.004 8.58984,-2.125 11.5,-5.50391 2.91406,-3.3789 4.6914,-8.01172 4.69531,-13.11328 v -4.44922 c -0.004,-5.097654 -1.78125,-9.734372 -4.69531,-13.113279 -2.91016,-3.378906 -6.98828,-5.507812 -11.5,-5.507812 -4.51563,0 -8.59375,2.128906 -11.50391,5.507812 -2.91406,3.378907 -4.69531,8.015625 -4.69531,13.113279 v 4.44922 h 1.94922 v -4.44922 c 0,-4.644529 1.625,-8.828122 4.22265,-11.835935 2.60157,-3.007813 6.13282,-4.828125 10.02735,-4.832031 3.88672,0.0039 7.42187,1.824218 10.01953,4.832031 2.59765,3.007813 4.22656,7.191406 4.22656,11.835935 v 4.44922 c 0,4.64063 -1.62891,8.82813 -4.22656,11.83594 -2.59766,3.00781 -6.13281,4.82812 -10.01953,4.82812 -3.89453,0 -7.42578,-1.82031 -10.02735,-4.82812 -2.59765,-3.00781 -4.22265,-7.19531 -4.22265,-11.83594 h -0.97266"
       id="path28"
       style="fill-opacity:1.0;fill:url(#linearGradient927)" />
    <path
       fill="#FFF"
       d="M 48.296875 158.265625 C 48.296875 194.515625 77.636719 223.902344 113.824219 223.902344 C 150.015625 223.902344 179.355469 194.515625 179.355469 158.265625 C 179.355469 135.605469 184.574219 98.941406 169.230469 74.625 C 160.023438 60.039062 117.28125 82.46875 87.699219 82.46875 C 65.125 83.082031 59.066406 71.671875 59.066406 71.671875 C 41.328125 95.882812 48.296875 134.667969 48.296875 158.265625"
       id="path32"
       style="fill-opacity:1.0;fill:url(#linearGradient927)" />
    <path
       fill="#040606"
       d="m 48.296875,158.26562 h -0.976563 c 0,36.78907 29.777344,66.61329 66.503908,66.61329 36.73047,0 66.5039,-29.82422 66.5039,-66.61329 0,-9.11718 0.85938,-20.60546 0.85938,-32.66406 0,-8.86718 -0.46484,-18.04687 -2.08203,-26.863279 -1.6211,-8.8125 -4.39844,-17.261719 -9.05078,-24.632812 -1.2461,-1.984375 -3.08594,-3.359375 -5.29297,-4.199219 -2.21094,-0.84375 -4.79688,-1.1875 -7.67969,-1.1875 -4.42969,0 -9.58203,0.816406 -15.18359,2.019531 -8.40235,1.804688 -17.81641,4.5 -27.21094,6.738281 -9.39062,2.238282 -18.757812,4.015626 -26.988281,4.015626 h -0.03125 c -0.582031,0.01172 -1.15625,0.01953 -1.71875,0.01953 -10.40625,0 -16.914063,-2.652344 -20.832031,-5.246094 C 63.160156,74.96875 61.851562,73.679688 61.03125,72.726562 60.625,72.25 60.339844,71.859375 60.164062,71.589844 60.074219,71.460938 60.011719,71.359375 59.972656,71.292969 l -0.03906,-0.07031 -0.0078,-0.01172 -0.207031,0.117187 0.210938,-0.117187 h -0.0039 l -0.207031,0.117187 0.210938,-0.117187 c -0.160157,-0.292969 -0.460938,-0.488282 -0.792969,-0.511719 -0.335938,-0.02734 -0.660157,0.125 -0.855469,0.394531 -5.070312,6.921875 -8.148438,14.976562 -9.953125,23.488281 -1.808594,8.507808 -2.355469,17.472658 -2.355469,26.249998 0,13.78906 1.351563,27.12891 1.347656,37.43359 h 1.949219 c 0,-10.46093 -1.351562,-23.76562 -1.347656,-37.43359 0,-8.69531 0.542969,-17.53125 2.3125,-25.843748 C 52.003906,86.671875 54.988281,78.886719 59.851562,72.25 l -0.785156,-0.578125 -0.859375,0.460937 c 0.05469,0.105469 1.589844,2.949219 5.835938,5.761719 4.238281,2.816407 11.171875,5.574219 21.90625,5.574219 0.578125,0 1.171875,-0.0078 1.773437,-0.02344 l -0.02344,-0.976562 v 0.976562 c 11.339843,-0.0078 24.425784,-3.222656 36.835944,-6.417968 6.20312,-1.597656 12.23437,-3.191406 17.77343,-4.378906 5.53516,-1.191407 10.58203,-1.976563 14.77344,-1.976563 2.72656,0 5.08594,0.332031 6.98438,1.058594 1.89453,0.730469 3.32812,1.824219 4.33984,3.421875 4.48047,7.09375 7.19141,15.296875 8.77734,23.941406 1.58985,8.640632 2.05078,17.710942 2.05078,26.507812 0.004,11.97266 -0.85156,23.42969 -0.85546,32.66406 0,17.85938 -7.22266,34.01954 -18.90625,45.72266 -11.6875,11.70313 -27.82032,18.9375 -45.64844,18.9375 -17.828129,0 -33.960942,-7.23437 -45.644535,-18.9375 C 56.492188,192.28516 49.269531,176.125 49.269531,158.26562 h -0.972656"
       id="path34"
       style="fill-opacity:1.0;fill:url(#linearGradient927)" />
    <path
       fill="#8C52FF"
       d="M 56.195312 76.089844 C 49.710938 97.164062 53.738281 123.121094 53.738281 140.296875 C 53.738281 162.660156 55.046875 182.59375 73.121094 192.960938 C 73.121094 192.773438 73.097656 192.59375 73.097656 192.402344 L 73.097656 182.894531 L 83.671875 182.894531 C 83.671875 182.988281 83.660156 183.082031 83.660156 183.175781 L 83.660156 190.371094 C 83.660156 193.480469 84.730469 196.339844 86.519531 198.609375 C 91.738281 200.089844 97.230469 200.898438 102.921875 200.898438 C 108.070312 200.898438 113.066406 200.242188 117.839844 199.023438 C 119.828125 196.695312 121.035156 193.675781 121.035156 190.371094 L 121.035156 183.175781 C 121.035156 183.082031 121.023438 182.988281 121.023438 182.894531 L 131.601562 182.894531 L 131.601562 192.402344 C 131.601562 192.820312 131.566406 193.230469 131.539062 193.640625 C 150.273438 183.457031 173.875 163.148438 173.875 140.296875 C 173.875 123.335938 177.0625 97.808594 170.5625 76.882812 C 184.257812 101.160156 179.355469 136.296875 179.355469 158.265625 C 179.355469 194.515625 150.015625 223.902344 113.824219 223.902344 C 77.636719 223.902344 48.296875 194.515625 48.296875 158.265625 C 48.296875 136.054688 42.128906 100.390625 56.195312 76.089844"
       id="path38"
       style="fill-opacity:1.0;fill:url(#linearGradient927)" />
    <path
       fill="#040606"
       d="m 56.195312,76.089844 -0.929687,-0.289063 c -2.9375,9.546875 -3.738281,20.007813 -3.738281,30.191409 0,12.64453 1.234375,24.87109 1.234375,34.30468 0.0039,11.20313 0.320312,21.85157 2.953125,31.10157 1.316406,4.62109 3.21875,8.89453 5.960937,12.67968 2.746094,3.78516 6.332031,7.07422 10.960938,9.73047 0.300781,0.17578 0.679687,0.17578 0.980469,-0.004 0.300781,-0.17578 0.484374,-0.50391 0.480468,-0.85157 -0.0039,-0.26171 -0.02734,-0.4414 -0.02734,-0.55078 v -8.53125 h 9.601563 v -0.97656 h -0.976563 c 0.0039,0 -0.0078,0.0937 -0.01172,0.28125 v 7.19531 c 0,3.33594 1.152344,6.41016 3.070312,8.83985 0.125,0.16015 0.304688,0.28125 0.5,0.33593 5.300782,1.50391 10.882813,2.32813 16.667972,2.32813 5.23046,0 10.30859,-0.66406 15.16015,-1.90234 0.19141,-0.0508 0.3711,-0.16016 0.5,-0.3125 2.12891,-2.4961 3.4336,-5.74219 3.42969,-9.28907 v -7.19531 c -0.004,-0.1875 -0.0156,-0.28125 -0.0117,-0.28125 h -0.97656 v 0.97656 h 9.60156 v 8.53125 c 0,0.36328 -0.0312,0.75 -0.0586,1.17578 -0.0234,0.35547 0.14843,0.69532 0.44531,0.88672 0.30078,0.19141 0.68359,0.20313 0.99219,0.0352 9.45312,-5.14063 20.11328,-12.81641 28.45312,-22.13281 4.16797,-4.65625 7.76172,-9.72657 10.31641,-15.10547 2.55468,-5.38281 4.07422,-11.08203 4.07422,-16.96485 0,-8.34375 0.78125,-18.85937 0.78515,-29.91015 -0.004,-11.257814 -0.8125,-23.082032 -4.13672,-33.79297 l -0.93359,0.289062 -0.84766,0.480469 c 3.92188,6.941407 6.30078,14.828125 7.70313,23.074219 1.40234,8.24609 1.8164,16.84375 1.8164,25.19531 0,11.96094 -0.85156,23.40625 -0.85546,32.63281 0,17.85938 -7.22266,34.01954 -18.90625,45.72266 -11.6875,11.70313 -27.82032,18.9375 -45.64844,18.9375 -17.828124,0 -33.960937,-7.23437 -45.64453,-18.9375 -11.6875,-11.70312 -18.910157,-27.86328 -18.910157,-45.72266 0,-10.45703 -1.34375,-23.74609 -1.34375,-37.40624 -0.0078,-15.57422 1.757813,-31.585942 9.113281,-44.277349 l -0.84375,-0.492187 -0.929687,-0.289063 0.929687,0.289063 -0.839843,-0.488282 c -7.640625,13.207032 -9.375,29.542968 -9.382813,45.257818 0,13.78124 1.351563,27.10937 1.347656,37.40624 0,36.78907 29.777344,66.61329 66.503906,66.61329 36.73047,0 66.5039,-29.82422 66.5039,-66.61329 0,-9.10937 0.85547,-20.58203 0.85547,-32.63281 0,-8.41797 -0.41797,-17.12109 -1.84375,-25.51953 -1.42578,-8.402342 -3.86328,-16.507811 -7.92578,-23.710936 -0.24609,-0.433594 -0.77734,-0.617188 -1.23437,-0.417969 -0.45703,0.199219 -0.69141,0.714844 -0.54297,1.1875 3.23047,10.410156 4.04297,22.050781 4.04297,33.214845 0,10.96094 -0.78125,21.45312 -0.78125,29.91015 0,5.54297 -1.42969,10.95313 -3.88672,16.125 -3.6836,7.75391 -9.67578,14.96094 -16.5,21.16797 -6.82813,6.20313 -14.48047,11.41016 -21.4375,15.19141 l 0.46484,0.85937 0.97266,0.0664 c 0.0234,-0.39844 0.0664,-0.82812 0.0664,-1.30469 v -9.50781 c 0,-0.25391 -0.10546,-0.50781 -0.28515,-0.69141 -0.1836,-0.17968 -0.4336,-0.28515 -0.69141,-0.28515 h -10.57812 c -0.25781,0 -0.50781,0.10547 -0.6875,0.28515 -0.1836,0.1836 -0.28906,0.4375 -0.28906,0.69141 0.004,0.1875 0.0195,0.27734 0.0156,0.28125 v 7.19531 c 0,3.06641 -1.12109,5.85547 -2.96484,8.01953 l 0.74218,0.63282 -0.24218,-0.94922 c -4.69532,1.20312 -9.60938,1.84765 -14.67578,1.84765 -5.601566,0 -11.000003,-0.79687 -16.136722,-2.2539 l -0.265625,0.9414 0.765625,-0.60546 c -1.65625,-2.10938 -2.652344,-4.75 -2.652344,-7.63282 v -7.19531 c 0,-0.004 0.01172,-0.0937 0.01563,-0.28125 0,-0.25391 -0.105469,-0.50781 -0.285157,-0.69141 -0.183593,-0.17968 -0.433593,-0.28515 -0.691406,-0.28515 H 73.097656 c -0.257812,0 -0.507812,0.10547 -0.691406,0.28515 -0.179688,0.1836 -0.285156,0.4375 -0.285156,0.69141 v 9.50781 c 0.0039,0.27344 0.02734,0.45703 0.02734,0.57032 l 0.972656,-0.0117 0.484375,-0.84375 c -4.40625,-2.53125 -7.761719,-5.6211 -10.347657,-9.1875 -3.878906,-5.34766 -6.023437,-11.79688 -7.191406,-19.03125 -1.167968,-7.23047 -1.355468,-15.23047 -1.351562,-23.60157 -0.0039,-9.59375 -1.238282,-21.78515 -1.238282,-34.30468 0,-10.078128 0.804688,-20.359378 3.652344,-29.613284 0.144532,-0.476562 -0.08594,-0.984375 -0.539062,-1.183594 -0.460938,-0.199218 -0.988282,-0.02734 -1.234375,0.40625 l 0.839843,0.488282"
       id="path40"
       style="fill-opacity:1.0;fill:url(#linearGradient927)" />
    <path
       fill="#8C52FF"
       d="M 101.671875 167.855469 C 100.054688 174.574219 104.183594 181.332031 110.886719 182.949219 C 117.59375 184.566406 139.40625 189.828125 148.433594 174.363281 C 123.808594 176.289062 123.445312 160.238281 116.738281 158.621094 C 110.03125 157.003906 103.285156 161.140625 101.671875 167.855469"
       id="path44"
       style="fill-opacity:1.0;fill:url(#linearGradient927)" />
    <path
       fill="#040606"
       d="M 101.671875 167.855469 L 100.722656 167.628906 C 100.46875 168.6875 100.34375 169.75 100.34375 170.796875 C 100.34375 176.890625 104.488281 182.40625 110.660156 183.898438 C 113.671875 184.625 119.773438 186.101562 126.460938 186.105469 C 130.59375 186.101562 134.96875 185.539062 138.988281 183.851562 C 143.007812 182.164062 146.675781 179.320312 149.277344 174.855469 C 149.460938 174.542969 149.453125 174.15625 149.261719 173.84375 C 149.066406 173.535156 148.722656 173.359375 148.359375 173.390625 C 146.992188 173.496094 145.707031 173.546875 144.492188 173.546875 C 139.417969 173.546875 135.628906 172.667969 132.6875 171.363281 C 128.28125 169.394531 125.71875 166.445312 123.597656 163.722656 C 122.539062 162.363281 121.601562 161.0625 120.578125 159.984375 C 120.0625 159.441406 119.527344 158.957031 118.933594 158.554688 C 118.339844 158.15625 117.6875 157.84375 116.964844 157.671875 C 115.910156 157.414062 114.847656 157.292969 113.804688 157.292969 C 107.722656 157.292969 102.210938 161.449219 100.722656 167.628906 L 101.671875 167.855469 L 102.617188 168.085938 C 103.886719 162.796875 108.605469 159.246094 113.804688 159.246094 C 114.695312 159.246094 115.601562 159.351562 116.507812 159.570312 C 117.128906 159.71875 117.695312 160.027344 118.285156 160.5 C 119.304688 161.324219 120.332031 162.671875 121.53125 164.242188 C 123.335938 166.589844 125.566406 169.433594 129.125 171.667969 C 132.679688 173.90625 137.539062 175.503906 144.492188 175.5 C 145.757812 175.5 147.097656 175.449219 148.511719 175.339844 L 148.433594 174.363281 L 147.59375 173.871094 C 145.203125 177.953125 141.929688 180.488281 138.234375 182.050781 C 134.539062 183.601562 130.417969 184.148438 126.460938 184.148438 C 120.050781 184.148438 114.105469 182.722656 111.117188 182 C 105.839844 180.730469 102.296875 176 102.296875 170.796875 C 102.296875 169.902344 102.398438 168.996094 102.617188 168.085938 L 101.671875 167.855469"
       id="path46"
       style="fill-opacity:1.0;fill:url(#linearGradient927)" />
    <path
       fill="#8C52FF"
       d="M 102.953125 167.855469 C 104.566406 174.574219 100.4375 181.332031 93.730469 182.949219 C 87.027344 184.566406 65.214844 189.828125 56.1875 174.363281 C 80.816406 176.289062 81.179688 160.238281 87.882812 158.621094 C 94.589844 157.003906 101.339844 161.140625 102.953125 167.855469"
       id="path48"
       style="fill-opacity:1.0;fill:url(#linearGradient927)" />
    <path
       fill="#040606"
       d="M 102.953125 167.855469 L 102.003906 168.085938 C 102.222656 168.996094 102.328125 169.902344 102.328125 170.796875 C 102.328125 176 98.78125 180.730469 93.503906 182 C 90.515625 182.722656 84.570312 184.148438 78.160156 184.148438 C 74.199219 184.148438 70.082031 183.601562 66.390625 182.050781 C 62.691406 180.488281 59.417969 177.953125 57.03125 173.871094 L 56.1875 174.363281 L 56.109375 175.339844 C 57.523438 175.449219 58.863281 175.5 60.132812 175.5 C 65.429688 175.5 69.507812 174.578125 72.726562 173.148438 C 77.554688 170.996094 80.398438 167.707031 82.5625 164.925781 C 83.640625 163.535156 84.5625 162.265625 85.457031 161.328125 C 85.90625 160.859375 86.339844 160.472656 86.777344 160.179688 C 87.210938 159.882812 87.648438 159.683594 88.113281 159.570312 C 89.019531 159.351562 89.925781 159.246094 90.820312 159.246094 C 96.015625 159.246094 100.738281 162.796875 102.003906 168.085938 L 102.953125 167.855469 L 103.902344 167.628906 C 102.414062 161.449219 96.902344 157.292969 90.820312 157.292969 C 89.773438 157.292969 88.714844 157.414062 87.65625 157.671875 C 86.695312 157.902344 85.855469 158.378906 85.113281 158.984375 C 83.808594 160.046875 82.742188 161.492188 81.542969 163.050781 C 79.746094 165.386719 77.691406 167.984375 74.460938 170.015625 C 71.226562 172.042969 66.792969 173.542969 60.132812 173.546875 C 58.917969 173.546875 57.628906 173.496094 56.261719 173.390625 C 55.898438 173.359375 55.554688 173.535156 55.359375 173.84375 C 55.167969 174.15625 55.160156 174.542969 55.347656 174.855469 C 57.945312 179.320312 61.613281 182.164062 65.632812 183.851562 C 69.65625 185.539062 74.027344 186.101562 78.160156 186.105469 C 84.847656 186.101562 90.949219 184.625 93.960938 183.898438 C 100.132812 182.410156 104.277344 176.890625 104.277344 170.796875 C 104.277344 169.75 104.15625 168.6875 103.902344 167.628906 L 102.953125 167.855469"
       id="path50"
       style="fill-opacity:1.0;fill:url(#linearGradient927)" />
  </g>
</svg>
