<?xml version="1.0" encoding="UTF-8" standalone="no"?>
<svg
   width="224.88"
   viewBox="0 0 224.88 225"
   height="225"
   version="1.0"
   id="svg265"
   sodipodi:docname="imagecon.svg"
   inkscape:version="1.1.1 (3bf5ae0d25, 2021-09-20)"
   xmlns:inkscape="http://www.inkscape.org/namespaces/inkscape"
   xmlns:sodipodi="http://sodipodi.sourceforge.net/DTD/sodipodi-0.dtd"
   xmlns:xlink="http://www.w3.org/1999/xlink"
   xmlns="http://www.w3.org/2000/svg"
   xmlns:svg="http://www.w3.org/2000/svg">
  <sodipodi:namedview
     id="namedview267"
     pagecolor="#ffffff"
     bordercolor="#666666"
     borderopacity="1.0"
     inkscape:pageshadow="2"
     inkscape:pageopacity="0.0"
     inkscape:pagecheckerboard="0"
     showgrid="false"
     inkscape:snap-intersection-paths="false"
     inkscape:object-nodes="false"
     inkscape:zoom="2.2564563"
     inkscape:cx="20.607534"
     inkscape:cy="111.90113"
     inkscape:window-width="1920"
     inkscape:window-height="991"
     inkscape:window-x="-9"
     inkscape:window-y="-9"
     inkscape:window-maximized="1"
     inkscape:current-layer="svg265" />
  <defs
     id="defs257">
    <linearGradient
       inkscape:collect="always"
       id="linearGradient3221">
      <stop
         style="stop-color:#f0a26c;stop-opacity:1"
         offset="0"
         id="stop3217" />
      <stop
         style="stop-color:#8484f8;stop-opacity:0.97325104"
         offset="1"
         id="stop3219" />
    </linearGradient>
    <linearGradient
       inkscape:collect="always"
       id="linearGradient2527">
      <stop
         style="stop-color:#f89a6a;stop-opacity:1"
         offset="0"
         id="stop2523" />
      <stop
         style="stop-color:#7e4af8;stop-opacity:0.93827158"
         offset="1"
         id="stop2525" />
    </linearGradient>
    <clipPath
       id="a">
      <path
         d="M 0 1.777344 L 221.132812 1.777344 L 221.132812 222.90625 L 0 222.90625 Z M 0 1.777344"
         id="path2" />
    </clipPath>
    <clipPath
       id="b">
      <path
         d="M 199.019531 1.777344 L 22.113281 1.777344 C 21.390625 1.777344 20.667969 1.8125 19.945312 1.882812 C 19.226562 1.953125 18.507812 2.058594 17.800781 2.199219 C 17.089844 2.34375 16.386719 2.519531 15.695312 2.726562 C 15 2.9375 14.320312 3.183594 13.652344 3.460938 C 12.980469 3.738281 12.328125 4.046875 11.6875 4.386719 C 11.050781 4.730469 10.429688 5.101562 9.828125 5.503906 C 9.226562 5.90625 8.644531 6.335938 8.085938 6.796875 C 7.523438 7.253906 6.988281 7.742188 6.476562 8.253906 C 5.964844 8.765625 5.480469 9.300781 5.019531 9.859375 C 4.558594 10.421875 4.128906 11 3.726562 11.605469 C 3.324219 12.207031 2.953125 12.828125 2.609375 13.464844 C 2.269531 14.105469 1.960938 14.757812 1.683594 15.425781 C 1.40625 16.097656 1.164062 16.777344 0.953125 17.46875 C 0.742188 18.164062 0.566406 18.863281 0.425781 19.574219 C 0.285156 20.285156 0.175781 21 0.105469 21.722656 C 0.0351562 22.441406 0 23.164062 0 23.890625 L 0 200.792969 C 0 201.519531 0.0351562 202.242188 0.105469 202.960938 C 0.175781 203.683594 0.285156 204.398438 0.425781 205.109375 C 0.566406 205.820312 0.742188 206.519531 0.953125 207.214844 C 1.164062 207.90625 1.40625 208.589844 1.683594 209.257812 C 1.960938 209.925781 2.269531 210.582031 2.609375 211.21875 C 2.953125 211.859375 3.324219 212.476562 3.726562 213.082031 C 4.128906 213.683594 4.558594 214.261719 5.019531 214.824219 C 5.480469 215.382812 5.964844 215.917969 6.476562 216.429688 C 6.988281 216.945312 7.523438 217.429688 8.085938 217.886719 C 8.644531 218.347656 9.226562 218.777344 9.828125 219.179688 C 10.429688 219.582031 11.050781 219.957031 11.6875 220.296875 C 12.328125 220.636719 12.980469 220.949219 13.652344 221.226562 C 14.320312 221.5 15 221.746094 15.695312 221.957031 C 16.386719 222.167969 17.089844 222.34375 17.800781 222.484375 C 18.507812 222.625 19.226562 222.730469 19.945312 222.800781 C 20.667969 222.871094 21.390625 222.90625 22.113281 222.90625 L 199.019531 222.90625 C 199.742188 222.90625 200.464844 222.871094 201.1875 222.800781 C 201.90625 222.730469 202.621094 222.625 203.332031 222.484375 C 204.042969 222.34375 204.746094 222.167969 205.4375 221.957031 C 206.132812 221.746094 206.8125 221.5 207.480469 221.226562 C 208.148438 220.949219 208.804688 220.636719 209.441406 220.296875 C 210.082031 219.957031 210.703125 219.582031 211.304688 219.179688 C 211.90625 218.777344 212.488281 218.347656 213.046875 217.886719 C 213.605469 217.429688 214.144531 216.945312 214.65625 216.429688 C 215.167969 215.917969 215.652344 215.382812 216.113281 214.824219 C 216.570312 214.261719 217.003906 213.683594 217.40625 213.082031 C 217.808594 212.476562 218.179688 211.859375 218.519531 211.21875 C 218.863281 210.582031 219.171875 209.925781 219.449219 209.257812 C 219.726562 208.589844 219.96875 207.90625 220.179688 207.214844 C 220.390625 206.519531 220.566406 205.820312 220.707031 205.109375 C 220.847656 204.398438 220.953125 203.683594 221.027344 202.960938 C 221.097656 202.242188 221.132812 201.519531 221.132812 200.792969 L 221.132812 23.890625 C 221.132812 23.164062 221.097656 22.441406 221.027344 21.722656 C 220.953125 21 220.847656 20.285156 220.707031 19.574219 C 220.566406 18.863281 220.390625 18.164062 220.179688 17.46875 C 219.96875 16.777344 219.726562 16.097656 219.449219 15.425781 C 219.171875 14.757812 218.863281 14.105469 218.519531 13.464844 C 218.179688 12.828125 217.808594 12.207031 217.40625 11.605469 C 217.003906 11 216.570312 10.421875 216.113281 9.859375 C 215.652344 9.300781 215.167969 8.765625 214.65625 8.253906 C 214.144531 7.742188 213.605469 7.253906 213.046875 6.796875 C 212.488281 6.335938 211.90625 5.90625 211.304688 5.503906 C 210.703125 5.101562 210.082031 4.730469 209.441406 4.386719 C 208.804688 4.046875 208.148438 3.738281 207.480469 3.460938 C 206.8125 3.183594 206.132812 2.9375 205.4375 2.726562 C 204.746094 2.519531 204.042969 2.34375 203.332031 2.199219 C 202.621094 2.058594 201.90625 1.953125 201.1875 1.882812 C 200.464844 1.8125 199.742188 1.777344 199.019531 1.777344 Z M 22.113281 16.519531 L 199.019531 16.519531 C 199.503906 16.519531 199.980469 16.566406 200.457031 16.660156 C 200.929688 16.753906 201.390625 16.894531 201.839844 17.078125 C 202.285156 17.265625 202.710938 17.492188 203.113281 17.761719 C 203.515625 18.03125 203.886719 18.335938 204.230469 18.675781 C 204.574219 19.019531 204.878906 19.390625 205.148438 19.792969 C 205.417969 20.195312 205.644531 20.621094 205.828125 21.070312 C 206.015625 21.515625 206.152344 21.976562 206.25 22.453125 C 206.34375 22.925781 206.390625 23.40625 206.390625 23.890625 L 206.390625 112.34375 L 159.214844 76.960938 C 158.863281 76.695312 158.492188 76.464844 158.097656 76.269531 C 157.703125 76.070312 157.296875 75.910156 156.875 75.789062 C 156.453125 75.664062 156.023438 75.578125 155.585938 75.53125 C 155.148438 75.484375 154.710938 75.476562 154.269531 75.507812 C 153.832031 75.539062 153.398438 75.605469 152.972656 75.714844 C 152.546875 75.824219 152.132812 75.96875 151.730469 76.152344 C 151.332031 76.335938 150.953125 76.550781 150.589844 76.804688 C 150.226562 77.054688 149.890625 77.335938 149.582031 77.644531 L 94.019531 133.210938 L 63.796875 106.792969 C 63.449219 106.484375 63.074219 106.214844 62.675781 105.980469 C 62.273438 105.746094 61.855469 105.550781 61.421875 105.394531 C 60.984375 105.238281 60.535156 105.125 60.078125 105.054688 C 59.621094 104.980469 59.160156 104.953125 58.695312 104.96875 C 58.234375 104.984375 57.777344 105.042969 57.324219 105.144531 C 56.871094 105.246094 56.433594 105.390625 56.007812 105.574219 C 55.582031 105.757812 55.175781 105.980469 54.792969 106.242188 C 54.410156 106.5 54.054688 106.796875 53.726562 107.125 L 14.742188 146.144531 L 14.742188 23.890625 C 14.742188 23.40625 14.789062 22.925781 14.882812 22.453125 C 14.976562 21.976562 15.117188 21.515625 15.304688 21.070312 C 15.488281 20.621094 15.714844 20.195312 15.984375 19.792969 C 16.253906 19.390625 16.558594 19.019531 16.902344 18.675781 C 17.242188 18.335938 17.617188 18.03125 18.019531 17.761719 C 18.421875 17.492188 18.84375 17.265625 19.292969 17.078125 C 19.738281 16.894531 20.199219 16.753906 20.675781 16.660156 C 21.148438 16.566406 21.628906 16.519531 22.113281 16.519531 Z M 14.742188 200.792969 L 14.742188 166.992188 L 59.300781 122.433594 L 157.292969 208.164062 L 22.113281 208.164062 C 21.628906 208.164062 21.148438 208.117188 20.675781 208.023438 C 20.199219 207.929688 19.738281 207.789062 19.292969 207.605469 C 18.84375 207.417969 18.421875 207.191406 18.019531 206.921875 C 17.617188 206.65625 17.242188 206.347656 16.902344 206.007812 C 16.558594 205.664062 16.253906 205.292969 15.984375 204.890625 C 15.714844 204.488281 15.488281 204.0625 15.304688 203.617188 C 15.117188 203.167969 14.976562 202.707031 14.882812 202.234375 C 14.789062 201.757812 14.742188 201.277344 14.742188 200.792969 Z M 199.019531 208.164062 L 179.675781 208.164062 L 105.132812 142.9375 L 155.484375 92.585938 L 206.390625 130.769531 L 206.390625 200.792969 C 206.390625 201.277344 206.34375 201.757812 206.25 202.234375 C 206.152344 202.707031 206.015625 203.167969 205.828125 203.617188 C 205.644531 204.0625 205.417969 204.488281 205.148438 204.890625 C 204.878906 205.292969 204.574219 205.664062 204.230469 206.007812 C 203.886719 206.347656 203.515625 206.65625 203.113281 206.921875 C 202.710938 207.191406 202.285156 207.417969 201.839844 207.605469 C 201.390625 207.789062 200.929688 207.929688 200.457031 208.023438 C 199.980469 208.117188 199.503906 208.164062 199.019531 208.164062 Z M 73.710938 90.230469 C 74.675781 90.230469 75.640625 90.179688 76.601562 90.085938 C 77.5625 89.992188 78.515625 89.851562 79.460938 89.664062 C 80.410156 89.472656 81.34375 89.238281 82.269531 88.960938 C 83.195312 88.679688 84.101562 88.355469 84.992188 87.984375 C 85.886719 87.613281 86.757812 87.203125 87.609375 86.746094 C 88.460938 86.292969 89.289062 85.796875 90.089844 85.261719 C 90.894531 84.722656 91.667969 84.148438 92.414062 83.535156 C 93.160156 82.921875 93.875 82.277344 94.558594 81.59375 C 95.242188 80.910156 95.890625 80.195312 96.503906 79.449219 C 97.113281 78.703125 97.6875 77.929688 98.226562 77.125 C 98.761719 76.324219 99.257812 75.496094 99.714844 74.644531 C 100.167969 73.792969 100.582031 72.917969 100.949219 72.027344 C 101.320312 71.136719 101.644531 70.226562 101.925781 69.304688 C 102.207031 68.378906 102.441406 67.445312 102.628906 66.496094 C 102.816406 65.550781 102.957031 64.59375 103.054688 63.632812 C 103.148438 62.671875 103.195312 61.710938 103.195312 60.746094 C 103.195312 59.777344 103.148438 58.816406 103.054688 57.855469 C 102.957031 56.894531 102.816406 55.941406 102.628906 54.992188 C 102.441406 54.046875 102.207031 53.109375 101.925781 52.1875 C 101.644531 51.261719 101.320312 50.355469 100.949219 49.460938 C 100.582031 48.570312 100.167969 47.699219 99.714844 46.847656 C 99.257812 45.996094 98.761719 45.167969 98.226562 44.363281 C 97.6875 43.5625 97.113281 42.785156 96.503906 42.039062 C 95.890625 41.292969 95.242188 40.578125 94.558594 39.894531 C 93.875 39.214844 93.160156 38.566406 92.414062 37.953125 C 91.667969 37.339844 90.894531 36.765625 90.089844 36.230469 C 89.289062 35.691406 88.460938 35.195312 87.609375 34.742188 C 86.757812 34.285156 85.886719 33.875 84.992188 33.503906 C 84.101562 33.136719 83.195312 32.808594 82.269531 32.53125 C 81.34375 32.25 80.410156 32.015625 79.460938 31.828125 C 78.515625 31.636719 77.5625 31.496094 76.601562 31.402344 C 75.640625 31.308594 74.675781 31.261719 73.710938 31.261719 C 72.746094 31.261719 71.78125 31.308594 70.820312 31.402344 C 69.859375 31.496094 68.90625 31.636719 67.957031 31.828125 C 67.011719 32.015625 66.074219 32.25 65.152344 32.53125 C 64.226562 32.808594 63.320312 33.136719 62.425781 33.503906 C 61.535156 33.875 60.664062 34.285156 59.8125 34.742188 C 58.960938 35.195312 58.132812 35.691406 57.332031 36.230469 C 56.527344 36.765625 55.753906 37.339844 55.007812 37.953125 C 54.257812 38.566406 53.546875 39.214844 52.863281 39.894531 C 52.179688 40.578125 51.53125 41.292969 50.917969 42.039062 C 50.304688 42.785156 49.730469 43.5625 49.195312 44.363281 C 48.660156 45.167969 48.164062 45.996094 47.707031 46.847656 C 47.253906 47.699219 46.839844 48.570312 46.472656 49.460938 C 46.101562 50.355469 45.777344 51.261719 45.496094 52.1875 C 45.214844 53.109375 44.980469 54.046875 44.792969 54.992188 C 44.605469 55.941406 44.464844 56.894531 44.367188 57.855469 C 44.273438 58.816406 44.226562 59.777344 44.226562 60.746094 C 44.226562 61.710938 44.273438 62.671875 44.367188 63.632812 C 44.464844 64.59375 44.605469 65.550781 44.792969 66.496094 C 44.980469 67.445312 45.214844 68.378906 45.496094 69.304688 C 45.777344 70.226562 46.101562 71.136719 46.472656 72.027344 C 46.839844 72.917969 47.253906 73.792969 47.707031 74.644531 C 48.164062 75.496094 48.660156 76.324219 49.195312 77.125 C 49.730469 77.929688 50.304688 78.703125 50.917969 79.449219 C 51.53125 80.195312 52.179688 80.910156 52.863281 81.59375 C 53.546875 82.277344 54.257812 82.921875 55.007812 83.535156 C 55.753906 84.148438 56.527344 84.722656 57.328125 85.261719 C 58.132812 85.796875 58.960938 86.292969 59.8125 86.746094 C 60.664062 87.203125 61.535156 87.613281 62.425781 87.984375 C 63.320312 88.355469 64.226562 88.679688 65.152344 88.960938 C 66.074219 89.238281 67.011719 89.472656 67.957031 89.664062 C 68.90625 89.851562 69.859375 89.992188 70.820312 90.085938 C 71.78125 90.179688 72.746094 90.230469 73.710938 90.230469 Z M 73.710938 46.003906 C 74.679688 46.003906 75.636719 46.097656 76.585938 46.285156 C 77.535156 46.472656 78.457031 46.753906 79.351562 47.125 C 80.246094 47.496094 81.097656 47.949219 81.902344 48.488281 C 82.707031 49.023438 83.449219 49.636719 84.136719 50.320312 C 84.820312 51.003906 85.429688 51.75 85.96875 52.554688 C 86.507812 53.359375 86.960938 54.207031 87.332031 55.101562 C 87.699219 55.996094 87.980469 56.917969 88.167969 57.867188 C 88.359375 58.816406 88.453125 59.777344 88.453125 60.746094 C 88.453125 61.710938 88.359375 62.671875 88.167969 63.621094 C 87.980469 64.570312 87.699219 65.492188 87.332031 66.386719 C 86.960938 67.28125 86.507812 68.128906 85.96875 68.933594 C 85.429688 69.738281 84.820312 70.484375 84.136719 71.167969 C 83.449219 71.851562 82.707031 72.464844 81.902344 73.003906 C 81.097656 73.539062 80.246094 73.992188 79.351562 74.363281 C 78.457031 74.734375 77.535156 75.015625 76.585938 75.203125 C 75.636719 75.390625 74.679688 75.488281 73.710938 75.488281 C 72.742188 75.488281 71.785156 75.390625 70.835938 75.203125 C 69.886719 75.015625 68.964844 74.734375 68.070312 74.363281 C 67.175781 73.992188 66.324219 73.539062 65.519531 73.003906 C 64.714844 72.464844 63.972656 71.851562 63.285156 71.167969 C 62.601562 70.484375 61.992188 69.738281 61.453125 68.933594 C 60.914062 68.128906 60.460938 67.28125 60.089844 66.386719 C 59.71875 65.492188 59.441406 64.570312 59.25 63.621094 C 59.0625 62.671875 58.96875 61.710938 58.96875 60.746094 C 58.96875 59.777344 59.0625 58.816406 59.25 57.867188 C 59.441406 56.917969 59.71875 55.996094 60.089844 55.101562 C 60.460938 54.207031 60.914062 53.359375 61.453125 52.554688 C 61.992188 51.75 62.601562 51.003906 63.285156 50.320312 C 63.972656 49.636719 64.714844 49.023438 65.519531 48.488281 C 66.324219 47.949219 67.175781 47.496094 68.070312 47.125 C 68.964844 46.753906 69.886719 46.472656 70.835938 46.285156 C 71.785156 46.097656 72.742188 46.003906 73.710938 46.003906 Z M 73.710938 46.003906"
         id="path5" />
    </clipPath>
    <linearGradient
       x1="1"
       gradientTransform="matrix(7.37107,0,0,7.37107,-7.371,-5.595)"
       y1="1"
       x2="31"
       gradientUnits="userSpaceOnUse"
       y2="31"
       xlink:type="simple"
       xlink:actuate="onLoad"
       id="c"
       xlink:show="other">
      <stop
         stop-color="#8E2DE2"
         offset="0"
         id="stop8" />
      <stop
         stop-color="#8E2DE2"
         offset=".031"
         id="stop10" />
      <stop
         stop-color="#8E2DE2"
         offset=".039"
         id="stop12" />
      <stop
         stop-color="#8D2CE2"
         offset=".047"
         id="stop14" />
      <stop
         stop-color="#8C2CE2"
         offset=".055"
         id="stop16" />
      <stop
         stop-color="#8C2BE2"
         offset=".063"
         id="stop18" />
      <stop
         stop-color="#8B2BE2"
         offset=".07"
         id="stop20" />
      <stop
         stop-color="#8B2BE2"
         offset=".078"
         id="stop22" />
      <stop
         stop-color="#8A2AE2"
         offset=".086"
         id="stop24" />
      <stop
         stop-color="#8A2AE2"
         offset=".094"
         id="stop26" />
      <stop
         stop-color="#892AE2"
         offset=".102"
         id="stop28" />
      <stop
         stop-color="#8929E2"
         offset=".109"
         id="stop30" />
      <stop
         stop-color="#8829E2"
         offset=".117"
         id="stop32" />
      <stop
         stop-color="#8729E2"
         offset=".125"
         id="stop34" />
      <stop
         stop-color="#8728E2"
         offset=".133"
         id="stop36" />
      <stop
         stop-color="#8628E2"
         offset=".141"
         id="stop38" />
      <stop
         stop-color="#8627E2"
         offset=".148"
         id="stop40" />
      <stop
         stop-color="#8527E2"
         offset=".156"
         id="stop42" />
      <stop
         stop-color="#8527E2"
         offset=".164"
         id="stop44" />
      <stop
         stop-color="#8426E2"
         offset=".172"
         id="stop46" />
      <stop
         stop-color="#8326E2"
         offset=".18"
         id="stop48" />
      <stop
         stop-color="#8326E2"
         offset=".188"
         id="stop50" />
      <stop
         stop-color="#8225E2"
         offset=".195"
         id="stop52" />
      <stop
         stop-color="#8225E2"
         offset=".203"
         id="stop54" />
      <stop
         stop-color="#8124E2"
         offset=".211"
         id="stop56" />
      <stop
         stop-color="#8124E2"
         offset=".219"
         id="stop58" />
      <stop
         stop-color="#8024E2"
         offset=".227"
         id="stop60" />
      <stop
         stop-color="#7F23E1"
         offset=".234"
         id="stop62" />
      <stop
         stop-color="#7F23E1"
         offset=".242"
         id="stop64" />
      <stop
         stop-color="#7E23E1"
         offset=".25"
         id="stop66" />
      <stop
         stop-color="#7E22E1"
         offset=".258"
         id="stop68" />
      <stop
         stop-color="#7D22E1"
         offset=".266"
         id="stop70" />
      <stop
         stop-color="#7D21E1"
         offset=".273"
         id="stop72" />
      <stop
         stop-color="#7C21E1"
         offset=".281"
         id="stop74" />
      <stop
         stop-color="#7C21E1"
         offset=".289"
         id="stop76" />
      <stop
         stop-color="#7B20E1"
         offset=".297"
         id="stop78" />
      <stop
         stop-color="#7A20E1"
         offset=".305"
         id="stop80" />
      <stop
         stop-color="#7A20E1"
         offset=".313"
         id="stop82" />
      <stop
         stop-color="#791FE1"
         offset=".32"
         id="stop84" />
      <stop
         stop-color="#791FE1"
         offset=".328"
         id="stop86" />
      <stop
         stop-color="#781EE1"
         offset=".336"
         id="stop88" />
      <stop
         stop-color="#781EE1"
         offset=".344"
         id="stop90" />
      <stop
         stop-color="#771EE1"
         offset=".352"
         id="stop92" />
      <stop
         stop-color="#761DE1"
         offset=".359"
         id="stop94" />
      <stop
         stop-color="#761DE1"
         offset=".367"
         id="stop96" />
      <stop
         stop-color="#751DE1"
         offset=".375"
         id="stop98" />
      <stop
         stop-color="#751CE1"
         offset=".383"
         id="stop100" />
      <stop
         stop-color="#741CE1"
         offset=".391"
         id="stop102" />
      <stop
         stop-color="#741BE1"
         offset=".398"
         id="stop104" />
      <stop
         stop-color="#731BE1"
         offset=".406"
         id="stop106" />
      <stop
         stop-color="#721BE1"
         offset=".414"
         id="stop108" />
      <stop
         stop-color="#721AE1"
         offset=".422"
         id="stop110" />
      <stop
         stop-color="#711AE1"
         offset=".43"
         id="stop112" />
      <stop
         stop-color="#711AE1"
         offset=".438"
         id="stop114" />
      <stop
         stop-color="#7019E1"
         offset=".445"
         id="stop116" />
      <stop
         stop-color="#7019E1"
         offset=".453"
         id="stop118" />
      <stop
         stop-color="#6F18E1"
         offset=".461"
         id="stop120" />
      <stop
         stop-color="#6F18E1"
         offset=".469"
         id="stop122" />
      <stop
         stop-color="#6E18E1"
         offset=".477"
         id="stop124" />
      <stop
         stop-color="#6D17E1"
         offset=".484"
         id="stop126" />
      <stop
         stop-color="#6D17E1"
         offset=".492"
         id="stop128" />
      <stop
         stop-color="#6C17E1"
         offset=".5"
         id="stop130" />
      <stop
         stop-color="#6C16E1"
         offset=".5"
         id="stop132" />
      <stop
         stop-color="#6B16E1"
         offset=".508"
         id="stop134" />
      <stop
         stop-color="#6B16E1"
         offset=".516"
         id="stop136" />
      <stop
         stop-color="#6B16E1"
         offset=".523"
         id="stop138" />
      <stop
         stop-color="#6A15E1"
         offset=".531"
         id="stop140" />
      <stop
         stop-color="#6915E1"
         offset=".539"
         id="stop142" />
      <stop
         stop-color="#6914E1"
         offset=".547"
         id="stop144" />
      <stop
         stop-color="#6814E1"
         offset=".555"
         id="stop146" />
      <stop
         stop-color="#6814E1"
         offset=".563"
         id="stop148" />
      <stop
         stop-color="#6713E1"
         offset=".57"
         id="stop150" />
      <stop
         stop-color="#6713E1"
         offset=".578"
         id="stop152" />
      <stop
         stop-color="#6613E1"
         offset=".586"
         id="stop154" />
      <stop
         stop-color="#6512E1"
         offset=".594"
         id="stop156" />
      <stop
         stop-color="#6512E1"
         offset=".602"
         id="stop158" />
      <stop
         stop-color="#6411E1"
         offset=".609"
         id="stop160" />
      <stop
         stop-color="#6411E1"
         offset=".617"
         id="stop162" />
      <stop
         stop-color="#6311E1"
         offset=".625"
         id="stop164" />
      <stop
         stop-color="#6310E1"
         offset=".633"
         id="stop166" />
      <stop
         stop-color="#6210E1"
         offset=".641"
         id="stop168" />
      <stop
         stop-color="#6210E1"
         offset=".648"
         id="stop170" />
      <stop
         stop-color="#610FE1"
         offset=".656"
         id="stop172" />
      <stop
         stop-color="#600FE1"
         offset=".664"
         id="stop174" />
      <stop
         stop-color="#600EE1"
         offset=".672"
         id="stop176" />
      <stop
         stop-color="#5F0EE1"
         offset=".68"
         id="stop178" />
      <stop
         stop-color="#5F0EE1"
         offset=".688"
         id="stop180" />
      <stop
         stop-color="#5E0DE0"
         offset=".695"
         id="stop182" />
      <stop
         stop-color="#5E0DE0"
         offset=".703"
         id="stop184" />
      <stop
         stop-color="#5D0DE0"
         offset=".711"
         id="stop186" />
      <stop
         stop-color="#5C0CE0"
         offset=".719"
         id="stop188" />
      <stop
         stop-color="#5C0CE0"
         offset=".727"
         id="stop190" />
      <stop
         stop-color="#5B0BE0"
         offset=".734"
         id="stop192" />
      <stop
         stop-color="#5B0BE0"
         offset=".742"
         id="stop194" />
      <stop
         stop-color="#5A0BE0"
         offset=".75"
         id="stop196" />
      <stop
         stop-color="#5A0AE0"
         offset=".758"
         id="stop198" />
      <stop
         stop-color="#590AE0"
         offset=".766"
         id="stop200" />
      <stop
         stop-color="#580AE0"
         offset=".773"
         id="stop202" />
      <stop
         stop-color="#5809E0"
         offset=".781"
         id="stop204" />
      <stop
         stop-color="#5709E0"
         offset=".789"
         id="stop206" />
      <stop
         stop-color="#5708E0"
         offset=".797"
         id="stop208" />
      <stop
         stop-color="#5608E0"
         offset=".805"
         id="stop210" />
      <stop
         stop-color="#5608E0"
         offset=".813"
         id="stop212" />
      <stop
         stop-color="#5507E0"
         offset=".82"
         id="stop214" />
      <stop
         stop-color="#5507E0"
         offset=".828"
         id="stop216" />
      <stop
         stop-color="#5407E0"
         offset=".836"
         id="stop218" />
      <stop
         stop-color="#5306E0"
         offset=".844"
         id="stop220" />
      <stop
         stop-color="#5306E0"
         offset=".852"
         id="stop222" />
      <stop
         stop-color="#5205E0"
         offset=".859"
         id="stop224" />
      <stop
         stop-color="#5205E0"
         offset=".867"
         id="stop226" />
      <stop
         stop-color="#5105E0"
         offset=".875"
         id="stop228" />
      <stop
         stop-color="#5104E0"
         offset=".883"
         id="stop230" />
      <stop
         stop-color="#5004E0"
         offset=".891"
         id="stop232" />
      <stop
         stop-color="#4F04E0"
         offset=".898"
         id="stop234" />
      <stop
         stop-color="#4F03E0"
         offset=".906"
         id="stop236" />
      <stop
         stop-color="#4E03E0"
         offset=".914"
         id="stop238" />
      <stop
         stop-color="#4E03E0"
         offset=".922"
         id="stop240" />
      <stop
         stop-color="#4D02E0"
         offset=".93"
         id="stop242" />
      <stop
         stop-color="#4D02E0"
         offset=".938"
         id="stop244" />
      <stop
         stop-color="#4C01E0"
         offset=".945"
         id="stop246" />
      <stop
         stop-color="#4B01E0"
         offset=".953"
         id="stop248" />
      <stop
         stop-color="#4B01E0"
         offset=".961"
         id="stop250" />
      <stop
         stop-color="#4A00E0"
         offset=".969"
         id="stop252" />
      <stop
         stop-color="#4A00E0"
         offset="1"
         id="stop254" />
    </linearGradient>
    <linearGradient
       inkscape:collect="always"
       xlink:href="#linearGradient3221"
       id="linearGradient3625"
       gradientUnits="userSpaceOnUse"
       x1="-220.48354"
       y1="127.38274"
       x2="-189.55598"
       y2="57.932331"
       gradientTransform="matrix(0.54624988,0,0,0.38240381,302.31964,-13.993869)" />
    <linearGradient
       inkscape:collect="always"
       xlink:href="#linearGradient3221"
       id="linearGradient3627"
       gradientUnits="userSpaceOnUse"
       x1="-220.48354"
       y1="127.38274"
       x2="-189.55598"
       y2="57.932331"
       gradientTransform="matrix(0.68276786,0,0,0.46904606,43.538028,-287.85)" />
    <linearGradient
       inkscape:collect="always"
       xlink:href="#linearGradient3221"
       id="linearGradient3629"
       gradientUnits="userSpaceOnUse"
       x1="-220.48354"
       y1="127.38274"
       x2="-189.55598"
       y2="57.932331"
       gradientTransform="matrix(0.59455418,0,0,0.47251723,-34.394997,-288.20301)" />
    <linearGradient
       inkscape:collect="always"
       xlink:href="#linearGradient3221"
       id="linearGradient3631"
       gradientUnits="userSpaceOnUse"
       x1="-220.48354"
       y1="127.38274"
       x2="-189.55598"
       y2="57.932331"
       gradientTransform="matrix(0.43665465,0,0,0.37040209,281.37871,11.690513)" />
    <linearGradient
       inkscape:collect="always"
       xlink:href="#linearGradient2527"
       id="linearGradient3639"
       gradientUnits="userSpaceOnUse"
       x1="-6.5484562"
       y1="125.80362"
       x2="147.85077"
       y2="31.004971" />
    <linearGradient
       inkscape:collect="always"
       xlink:href="#linearGradient2527"
       id="linearGradient3641"
       gradientUnits="userSpaceOnUse"
       x1="-6.5484562"
       y1="125.80362"
       x2="147.85077"
       y2="31.004971" />
    <linearGradient
       inkscape:collect="always"
       xlink:href="#linearGradient2527"
       id="linearGradient3649"
       gradientUnits="userSpaceOnUse"
       x1="-6.5484562"
       y1="125.80362"
       x2="147.85077"
       y2="31.004971"
       gradientTransform="matrix(0.99312533,0,0,0.98640074,-9.8939547,19.052025)" />
  </defs>
  <path
     style="fill:#ffffff;fill-opacity:1;stroke:#000000;stroke-width:0;stroke-linecap:butt;stroke-linejoin:miter;stroke-miterlimit:4;stroke-dasharray:none;stroke-opacity:1"
     d="M 175.43527,102.97508 V 87.055976 h 15.09398 v 15.609994 z"
     id="path1355" />
  <path
     style="fill:#ffffff;fill-opacity:1;stroke:#000000;stroke-width:0;stroke-linecap:butt;stroke-linejoin:miter;stroke-miterlimit:4;stroke-dasharray:none;stroke-opacity:1"
     d="m 9.4494761,193.31214 v -15.9191 H 22.316922 v 15.61 z"
     id="path1470" />
  <path
     style="fill:url(#linearGradient3649);fill-opacity:1;stroke:#000000;stroke-width:0;stroke-linecap:butt;stroke-linejoin:miter;stroke-miterlimit:4;stroke-dasharray:none;stroke-opacity:1"
     d="M 78.335828,88.756075 V 80.25558 h 20.073444 v 8.335436 z"
     id="path1472" />
  <g
     clip-path="url(#b)"
     id="g261"
     style="fill:url(#linearGradient3641);fill-opacity:1"
     transform="matrix(0.81598643,0,0,0.82231946,9.4494761,35.709014)">
    <path
       fill="url(#c)"
       d="M 0,1.777344 V 222.90625 H 221.13281 V 1.777344 Z m 0,0"
       id="path259"
       style="fill:url(#linearGradient3639);fill-opacity:1" />
  </g>
  <rect
     style="opacity:0.992687;fill:url(#linearGradient3625);fill-opacity:1;fill-rule:evenodd;stroke:#081616;stroke-width:0;stroke-linecap:round;stroke-linejoin:round;stroke-miterlimit:4;stroke-dasharray:none;stroke-opacity:0.914634"
     id="rect1526"
     width="3.3529663"
     height="14.619756"
     x="195.42175"
     y="8.1596746"
     ry="1.5578429" />
  <rect
     style="opacity:0.992687;fill:url(#linearGradient3627);fill-opacity:1;fill-rule:evenodd;stroke:#081616;stroke-width:0;stroke-linecap:round;stroke-linejoin:round;stroke-miterlimit:4;stroke-dasharray:none;stroke-opacity:0.914634"
     id="rect1792"
     width="5.1090655"
     height="17.100719"
     x="-27.228405"
     y="-215.03734"
     ry="1.8222078"
     transform="matrix(0,-1,-1,0,0,0)" />
  <rect
     style="opacity:0.992687;fill:url(#linearGradient3629);fill-opacity:1;fill-rule:evenodd;stroke:#081616;stroke-width:0;stroke-linecap:round;stroke-linejoin:round;stroke-miterlimit:4;stroke-dasharray:none;stroke-opacity:0.914634"
     id="rect1794"
     width="4.4489751"
     height="17.227272"
     x="22.77943"
     y="-196.67918"
     ry="1.8356931"
     transform="rotate(90)" />
  <rect
     style="opacity:0.992687;fill:url(#linearGradient3631);fill-opacity:1;fill-rule:evenodd;stroke:#081616;stroke-width:0;stroke-linecap:round;stroke-linejoin:round;stroke-miterlimit:4;stroke-dasharray:none;stroke-opacity:0.914634"
     id="rect1796"
     width="3.1648772"
     height="11.780709"
     x="195.92796"
     y="-38.481041"
     ry="1.2553216"
     transform="scale(1,-1)" />
</svg>
