<?xml version="1.0" encoding="UTF-8" standalone="no"?>
<svg
   width="375"
   zoomAndPan="magnify"
   viewBox="0 0 375 374.999991"
   height="374.999991"
   preserveAspectRatio="xMidYMid meet"
   version="1.0"
   id="svg12"
   sodipodi:docname="logincon.svg"
   inkscape:version="1.1.1 (3bf5ae0d25, 2021-09-20)"
   xmlns:inkscape="http://www.inkscape.org/namespaces/inkscape"
   xmlns:sodipodi="http://sodipodi.sourceforge.net/DTD/sodipodi-0.dtd"
   xmlns:xlink="http://www.w3.org/1999/xlink"
   xmlns="http://www.w3.org/2000/svg"
   xmlns:svg="http://www.w3.org/2000/svg">
  <defs
     id="defs16">
    <linearGradient
       inkscape:collect="always"
       id="linearGradient3673">
      <stop
         style="stop-color:#7776cd;stop-opacity:0.97736627"
         offset="0"
         id="stop3669" />
      <stop
         style="stop-color:#e84a4a;stop-opacity:0.98148149"
         offset="1"
         id="stop3671" />
    </linearGradient>
    <linearGradient
       inkscape:collect="always"
       id="linearGradient2099">
      <stop
         style="stop-color:#000000;stop-opacity:1;"
         offset="0"
         id="stop2095" />
      <stop
         style="stop-color:#ee7676;stop-opacity:0.96470588"
         offset="1"
         id="stop2097" />
    </linearGradient>
    <linearGradient
       inkscape:collect="always"
       id="linearGradient1725">
      <stop
         style="stop-color:#000000;stop-opacity:1;"
         offset="0"
         id="stop1721" />
      <stop
         style="stop-color:#ee7676;stop-opacity:0.9650206"
         offset="1"
         id="stop1723" />
    </linearGradient>
    <linearGradient
       inkscape:collect="always"
       id="linearGradient1479">
      <stop
         style="stop-color:#000000;stop-opacity:1;"
         offset="0"
         id="stop1475" />
      <stop
         style="stop-color:#6b70f5;stop-opacity:0.97530866"
         offset="1"
         id="stop1477" />
    </linearGradient>
    <linearGradient
       inkscape:collect="always"
       id="linearGradient977">
      <stop
         style="stop-color:#7f56d0;stop-opacity:0.94855964"
         offset="0"
         id="stop973" />
      <stop
         style="stop-color:#ea6767;stop-opacity:0.93333334"
         offset="1"
         id="stop975" />
    </linearGradient>
    <linearGradient
       inkscape:collect="always"
       xlink:href="#linearGradient977"
       id="linearGradient979"
       x1="155.64067"
       y1="373.95544"
       x2="183.84401"
       y2="92.966576"
       gradientUnits="userSpaceOnUse" />
    <linearGradient
       inkscape:collect="always"
       xlink:href="#linearGradient1479"
       id="linearGradient1481"
       x1="110.72423"
       y1="330.60583"
       x2="279.54688"
       y2="243.42578"
       gradientUnits="userSpaceOnUse" />
    <linearGradient
       inkscape:collect="always"
       xlink:href="#linearGradient1725"
       id="linearGradient1727"
       x1="186.45543"
       y1="90.877434"
       x2="207.86908"
       y2="166.08635"
       gradientUnits="userSpaceOnUse" />
    <linearGradient
       inkscape:collect="always"
       xlink:href="#linearGradient2099"
       id="linearGradient2101"
       x1="303.96936"
       y1="349.93036"
       x2="252.88281"
       y2="227.63672"
       gradientUnits="userSpaceOnUse" />
    <linearGradient
       inkscape:collect="always"
       xlink:href="#linearGradient3673"
       id="linearGradient3675"
       x1="85.132309"
       y1="134.22702"
       x2="277.10156"
       y2="42.980469"
       gradientUnits="userSpaceOnUse" />
  </defs>
  <sodipodi:namedview
     id="namedview14"
     pagecolor="#ffffff"
     bordercolor="#666666"
     borderopacity="1.0"
     inkscape:pageshadow="2"
     inkscape:pageopacity="0.0"
     inkscape:pagecheckerboard="0"
     showgrid="false"
     inkscape:zoom="1.9146667"
     inkscape:cx="187.23886"
     inkscape:cy="210.74164"
     inkscape:window-width="1920"
     inkscape:window-height="991"
     inkscape:window-x="-9"
     inkscape:window-y="-9"
     inkscape:window-maximized="1"
     inkscape:current-layer="svg12" />
  <path
     fill="rgb(0%, 0%, 0%)"
     d="M 155.046875 240.289062 L 96.273438 256.019531 C 93.578125 256.761719 91.410156 259.875 91.410156 262.964844 L 91.410156 299.617188 C 91.410156 302.695312 93.578125 304.648438 96.273438 303.925781 L 154.988281 288.210938 L 154.988281 274.636719 L 106.277344 287.6875 L 106.277344 266.878906 L 155.019531 253.828125 Z M 276.554688 208.1875 C 275.96875 208.0625 275.328125 208.0625 274.652344 208.25 L 237.128906 218.304688 L 252.882812 227.636719 L 264.71875 224.449219 L 264.71875 234.625 L 279.546875 243.425781 L 279.546875 212.59375 C 279.546875 210.269531 278.328125 208.585938 276.554688 208.1875 Z M 276.554688 208.1875 "
     fill-opacity="1"
     fill-rule="evenodd"
     id="path2"
     style="fill-opacity:1;fill:url(#linearGradient2101)" />
  <path
     fill="rgb(0%, 0%, 0%)"
     d="M 93.886719 92.035156 L 45.988281 104.875 C 26.328125 110.136719 10.210938 130.464844 10.210938 150.175781 L 10.210938 342.1875 C 10.210938 361.871094 26.335938 373.609375 45.988281 368.351562 L 159.632812 337.90625 C 156.179688 333.050781 154.917969 329.441406 154.917969 324.25 L 45.988281 353.414062 C 34.277344 356.554688 25.167969 349.839844 25.167969 338.179688 L 25.167969 146.167969 C 25.167969 134.523438 34.277344 122.945312 45.988281 119.789062 L 93.886719 106.988281 Z M 335.609375 28.925781 C 332.238281 28.78125 328.660156 29.171875 324.992188 30.148438 L 277.101562 42.980469 L 277.101562 57.929688 L 324.992188 45.089844 C 336.675781 41.972656 345.820312 48.660156 345.820312 60.316406 L 345.820312 252.328125 C 345.820312 263.96875 336.675781 275.558594 324.992188 278.703125 L 310.777344 282.492188 L 303.03125 299.519531 L 324.992188 293.621094 C 344.65625 288.363281 360.769531 267.980469 360.769531 248.320312 L 360.769531 56.308594 C 360.773438 40.292969 350.132812 29.566406 335.609375 28.925781 Z M 335.609375 28.925781 "
     fill-opacity="1"
     fill-rule="evenodd"
     id="path4"
     style="fill-opacity:1;fill:url(#linearGradient979)" />
  <path
     fill="rgb(0%, 0%, 0%)"
     d="M 185.488281 4.933594 C 146.304688 15.410156 114.5625 55.667969 114.5625 94.792969 C 114.5625 113.585938 122.027344 129.664062 135.324219 139.390625 C 148.636719 149.109375 166.667969 151.765625 185.488281 146.730469 C 204.289062 141.683594 222.367188 129.367188 235.664062 112.53125 C 248.972656 95.652344 256.429688 75.632812 256.429688 56.808594 C 256.429688 38.003906 248.964844 21.984375 235.628906 12.242188 C 222.332031 2.519531 204.289062 -0.117188 185.488281 4.933594 Z M 187.40625 33.683594 C 188.628906 33.414062 189.820312 33.269531 190.984375 33.234375 C 200.675781 32.988281 206.613281 41.203125 204.289062 51.597656 C 201.992188 61.996094 192.269531 70.644531 182.609375 70.886719 C 172.910156 71.160156 166.949219 62.945312 169.269531 52.523438 C 171.253906 43.597656 178.847656 35.675781 187.40625 33.683594 Z M 168.722656 87.148438 L 202.269531 78.164062 C 210.066406 76.050781 217.070312 79.207031 219.308594 85.714844 L 222.097656 93.808594 C 224.910156 102.09375 217.867188 109.191406 208.027344 114.320312 C 193.097656 122.140625 178.234375 126.148438 162.980469 126.363281 C 153.128906 126.550781 146.039062 123.214844 148.910156 113.4375 L 151.722656 103.804688 C 153.914062 96.101562 160.917969 89.226562 168.722656 87.148438 Z M 168.722656 87.148438 "
     fill-opacity="1"
     fill-rule="evenodd"
     id="path6"
     style="fill-opacity:1;fill:url(#linearGradient3675)" />
  <path
     fill="rgb(0%, 0%, 0%)"
     d="M 276.554688 138.132812 C 275.96875 138.011719 275.328125 138.039062 274.652344 138.191406 L 96.277344 185.960938 C 93.582031 186.730469 91.417969 189.824219 91.417969 192.933594 L 91.417969 229.554688 C 91.417969 232.636719 93.582031 234.589844 96.277344 233.851562 L 156.710938 217.6875 L 164.144531 202.136719 L 106.285156 217.628906 L 106.285156 196.84375 L 264.726562 154.417969 L 264.726562 175.199219 L 195.644531 193.703125 L 211.386719 203.050781 L 274.660156 186.121094 C 277.355469 185.386719 279.550781 182.269531 279.550781 179.179688 L 279.550781 142.535156 C 279.546875 140.21875 278.328125 138.53125 276.554688 138.132812 Z M 276.554688 138.132812 "
     fill-opacity="1"
     fill-rule="evenodd"
     id="path8"
     style="fill-opacity:1;fill:url(#linearGradient1727)" />
  <path
     fill="rgb(0%, 0%, 0%)"
     d="M 189.0625 219.589844 L 281.417969 271.738281 L 256.949219 279.625 C 253.523438 280.726562 251.960938 284.722656 253.734375 287.847656 L 280.40625 334.96875 L 251.90625 343.140625 L 221.726562 293.1875 C 220.410156 290.992188 217.746094 289.921875 215.261719 290.652344 L 189.273438 298.539062 Z M 178.382812 206.015625 L 169.332031 224.941406 C 168.992188 225.675781 168.816406 226.46875 168.816406 227.292969 L 168.695312 325.003906 C 168.628906 328.855469 172.335938 331.667969 176.003906 330.570312 L 205.203125 321.765625 L 235.394531 371.714844 C 236.742188 373.914062 239.394531 374.921875 241.90625 374.191406 L 281.472656 362.816406 C 283.039062 362.351562 284.324219 361.253906 285.023438 359.789062 L 293.855469 341.203125 C 294.863281 339.464844 294.863281 337.351562 293.855469 335.605469 L 274.835938 302.910156 L 286.613281 299.722656 C 288.140625 299.300781 289.246094 297.558594 289.886719 296.113281 L 298.839844 276.378906 L 298.867188 276.34375 C 298.898438 276.316406 298.898438 276.277344 298.925781 276.226562 C 300.085938 273.773438 299.363281 270.839844 297.183594 269.191406 L 186.914062 203.875 C 183.15625 201.613281 179.792969 203.117188 178.382812 206.015625 Z M 178.382812 206.015625 "
     fill-opacity="1"
     fill-rule="nonzero"
     id="path10"
     style="fill-opacity:1;fill:url(#linearGradient1481)" />
</svg>
