<?xml version="1.0" encoding="UTF-8" standalone="no"?>
<svg
   width="375"
   zoomAndPan="magnify"
   viewBox="0 0 375 374.999991"
   height="374.999991"
   preserveAspectRatio="xMidYMid meet"
   version="1.0"
   id="svg26"
   sodipodi:docname="signupsvg.svg"
   inkscape:version="1.1.1 (3bf5ae0d25, 2021-09-20)"
   xmlns:inkscape="http://www.inkscape.org/namespaces/inkscape"
   xmlns:sodipodi="http://sodipodi.sourceforge.net/DTD/sodipodi-0.dtd"
   xmlns:xlink="http://www.w3.org/1999/xlink"
   xmlns="http://www.w3.org/2000/svg"
   xmlns:svg="http://www.w3.org/2000/svg">
  <sodipodi:namedview
     id="namedview28"
     pagecolor="#ffffff"
     bordercolor="#666666"
     borderopacity="1.0"
     inkscape:pageshadow="2"
     inkscape:pageopacity="0.0"
     inkscape:pagecheckerboard="0"
     showgrid="false"
     inkscape:zoom="0.95733333"
     inkscape:cx="-15.14624"
     inkscape:cy="275.24373"
     inkscape:window-width="1920"
     inkscape:window-height="991"
     inkscape:window-x="-9"
     inkscape:window-y="-9"
     inkscape:window-maximized="1"
     inkscape:current-layer="svg26" />
  <defs
     id="defs8">
    <linearGradient
       inkscape:collect="always"
       id="linearGradient3115">
      <stop
         style="stop-color:#4a559b;stop-opacity:0.96862745"
         offset="0"
         id="stop3109" />
      <stop
         style="stop-color:#4f41e4;stop-opacity:0.96078432"
         offset="0.19858906"
         id="stop3111" />
      <stop
         style="stop-color:#f26b6b;stop-opacity:0.94901961"
         offset="1"
         id="stop3113" />
    </linearGradient>
    <linearGradient
       inkscape:collect="always"
       id="linearGradient2577">
      <stop
         style="stop-color:#6372cf;stop-opacity:0.96862745"
         offset="0"
         id="stop2573" />
      <stop
         style="stop-color:#100e0e;stop-opacity:0.98039216"
         offset="1"
         id="stop2575" />
    </linearGradient>
    <linearGradient
       inkscape:collect="always"
       id="linearGradient2091">
      <stop
         style="stop-color:#475ff3;stop-opacity:0.96913582"
         offset="0"
         id="stop2087" />
      <stop
         style="stop-color:#6d6d6d;stop-opacity:0.94650197"
         offset="1"
         id="stop2089" />
    </linearGradient>
    <linearGradient
       inkscape:collect="always"
       id="linearGradient879">
      <stop
         style="stop-color:#4a559b;stop-opacity:0.96862745"
         offset="0"
         id="stop875" />
      <stop
         style="stop-color:#4f41e4;stop-opacity:0.96078432"
         offset="0.18006004"
         id="stop1237" />
      <stop
         style="stop-color:#f26b6b;stop-opacity:0.94901961"
         offset="1"
         id="stop877" />
    </linearGradient>
    <clipPath
       id="id1">
      <path
         d="M 122 8.96875 L 253 8.96875 L 253 140 L 122 140 Z M 122 8.96875 "
         clip-rule="nonzero"
         id="path2" />
    </clipPath>
    <clipPath
       id="id2">
      <path
         d="M 4.484375 113 L 370.484375 113 L 370.484375 374.96875 L 4.484375 374.96875 Z M 4.484375 113 "
         clip-rule="nonzero"
         id="path5" />
    </clipPath>
    <linearGradient
       inkscape:collect="always"
       xlink:href="#linearGradient879"
       id="linearGradient881"
       x1="-32.381615"
       y1="249.65179"
       x2="318.19922"
       y2="218.11328"
       gradientUnits="userSpaceOnUse" />
    <linearGradient
       inkscape:collect="always"
       xlink:href="#linearGradient2577"
       id="linearGradient2093"
       x1="38.649025"
       y1="71.03064"
       x2="294.56824"
       y2="27.158775"
       gradientUnits="userSpaceOnUse" />
    <linearGradient
       inkscape:collect="always"
       xlink:href="#linearGradient2091"
       id="linearGradient2367"
       gradientUnits="userSpaceOnUse"
       x1="173.39833"
       y1="37.604454"
       x2="339.48468"
       y2="15.668524" />
    <linearGradient
       inkscape:collect="always"
       xlink:href="#linearGradient3115"
       id="linearGradient3107"
       gradientUnits="userSpaceOnUse"
       x1="-50.139275"
       y1="238.16156"
       x2="318.19922"
       y2="218.11328" />
  </defs>
  <g
     clip-path="url(#id1)"
     id="g12"
     style="fill-opacity:1;fill:url(#linearGradient2093)">
    <path
       fill="rgb(0%, 0%, 0%)"
       d="M 187.484375 139.683594 C 188.554688 139.683594 189.625 139.65625 190.691406 139.605469 C 191.761719 139.550781 192.828125 139.472656 193.890625 139.367188 C 194.957031 139.265625 196.015625 139.132812 197.074219 138.976562 C 198.132812 138.820312 199.1875 138.636719 200.234375 138.425781 C 201.285156 138.21875 202.328125 137.984375 203.363281 137.726562 C 204.402344 137.464844 205.433594 137.179688 206.457031 136.871094 C 207.480469 136.558594 208.496094 136.222656 209.503906 135.863281 C 210.511719 135.503906 211.507812 135.117188 212.496094 134.707031 C 213.484375 134.300781 214.460938 133.867188 215.429688 133.410156 C 216.394531 132.953125 217.351562 132.46875 218.292969 131.964844 C 219.238281 131.460938 220.167969 130.933594 221.085938 130.386719 C 222.003906 129.835938 222.90625 129.261719 223.796875 128.667969 C 224.683594 128.074219 225.558594 127.457031 226.417969 126.820312 C 227.277344 126.183594 228.121094 125.527344 228.945312 124.847656 C 229.773438 124.167969 230.582031 123.472656 231.375 122.753906 C 232.167969 122.035156 232.941406 121.296875 233.699219 120.539062 C 234.457031 119.785156 235.191406 119.011719 235.910156 118.21875 C 236.628906 117.425781 237.328125 116.617188 238.007812 115.789062 C 238.683594 114.960938 239.34375 114.117188 239.980469 113.257812 C 240.617188 112.402344 241.234375 111.527344 241.828125 110.636719 C 242.421875 109.746094 242.992188 108.84375 243.542969 107.925781 C 244.09375 107.007812 244.621094 106.078125 245.125 105.136719 C 245.628906 104.191406 246.109375 103.238281 246.566406 102.269531 C 247.023438 101.304688 247.457031 100.324219 247.867188 99.335938 C 248.277344 98.347656 248.660156 97.351562 249.019531 96.34375 C 249.382812 95.335938 249.71875 94.320312 250.027344 93.296875 C 250.339844 92.273438 250.625 91.246094 250.882812 90.207031 C 251.144531 89.167969 251.378906 88.125 251.585938 87.078125 C 251.792969 86.027344 251.976562 84.972656 252.132812 83.917969 C 252.292969 82.859375 252.421875 81.796875 252.527344 80.734375 C 252.632812 79.667969 252.710938 78.601562 252.761719 77.535156 C 252.816406 76.464844 252.839844 75.394531 252.839844 74.328125 C 252.839844 73.257812 252.816406 72.1875 252.761719 71.121094 C 252.710938 70.050781 252.632812 68.984375 252.527344 67.921875 C 252.421875 66.855469 252.292969 65.792969 252.132812 64.738281 C 251.976562 63.679688 251.792969 62.625 251.585938 61.574219 C 251.378906 60.527344 251.144531 59.484375 250.882812 58.445312 C 250.625 57.410156 250.339844 56.378906 250.027344 55.355469 C 249.71875 54.332031 249.382812 53.316406 249.019531 52.308594 C 248.660156 51.300781 248.277344 50.304688 247.867188 49.316406 C 247.457031 48.328125 247.023438 47.347656 246.566406 46.382812 C 246.109375 45.414062 245.628906 44.460938 245.125 43.515625 C 244.621094 42.574219 244.09375 41.644531 243.542969 40.726562 C 242.992188 39.808594 242.421875 38.90625 241.828125 38.015625 C 241.234375 37.125 240.617188 36.253906 239.980469 35.394531 C 239.34375 34.535156 238.683594 33.691406 238.007812 32.863281 C 237.328125 32.039062 236.628906 31.226562 235.910156 30.433594 C 235.191406 29.644531 234.457031 28.867188 233.699219 28.113281 C 232.941406 27.355469 232.167969 26.617188 231.375 25.898438 C 230.582031 25.179688 229.773438 24.484375 228.945312 23.804688 C 228.121094 23.125 227.277344 22.46875 226.417969 21.832031 C 225.558594 21.195312 224.683594 20.578125 223.796875 19.984375 C 222.90625 19.390625 222.003906 18.816406 221.085938 18.269531 C 220.167969 17.71875 219.238281 17.191406 218.292969 16.6875 C 217.351562 16.183594 216.394531 15.703125 215.429688 15.246094 C 214.460938 14.785156 213.484375 14.355469 212.496094 13.945312 C 211.507812 13.535156 210.511719 13.148438 209.503906 12.789062 C 208.496094 12.429688 207.480469 12.09375 206.457031 11.785156 C 205.433594 11.472656 204.402344 11.1875 203.363281 10.929688 C 202.328125 10.667969 201.285156 10.433594 200.234375 10.226562 C 199.1875 10.015625 198.132812 9.832031 197.074219 9.675781 C 196.015625 9.519531 194.957031 9.390625 193.890625 9.285156 C 192.828125 9.179688 191.761719 9.101562 190.691406 9.046875 C 189.625 8.996094 188.554688 8.96875 187.484375 8.96875 C 186.414062 8.96875 185.347656 8.996094 184.277344 9.046875 C 183.210938 9.101562 182.144531 9.179688 181.078125 9.285156 C 180.015625 9.390625 178.953125 9.519531 177.894531 9.675781 C 176.835938 9.832031 175.78125 10.015625 174.734375 10.226562 C 173.683594 10.433594 172.640625 10.667969 171.605469 10.929688 C 170.566406 11.1875 169.535156 11.472656 168.511719 11.785156 C 167.488281 12.09375 166.472656 12.429688 165.464844 12.789062 C 164.460938 13.148438 163.460938 13.535156 162.472656 13.945312 C 161.484375 14.355469 160.507812 14.785156 159.539062 15.246094 C 158.574219 15.703125 157.617188 16.183594 156.675781 16.6875 C 155.730469 17.191406 154.800781 17.71875 153.882812 18.269531 C 152.96875 18.816406 152.0625 19.390625 151.175781 19.984375 C 150.285156 20.578125 149.410156 21.195312 148.550781 21.832031 C 147.691406 22.46875 146.847656 23.125 146.023438 23.804688 C 145.195312 24.484375 144.386719 25.179688 143.59375 25.898438 C 142.800781 26.617188 142.027344 27.355469 141.269531 28.113281 C 140.515625 28.867188 139.777344 29.644531 139.058594 30.433594 C 138.339844 31.226562 137.640625 32.039062 136.960938 32.863281 C 136.285156 33.691406 135.625 34.535156 134.988281 35.394531 C 134.351562 36.253906 133.738281 37.125 133.140625 38.015625 C 132.546875 38.90625 131.976562 39.808594 131.425781 40.726562 C 130.875 41.644531 130.347656 42.574219 129.84375 43.515625 C 129.339844 44.460938 128.859375 45.414062 128.402344 46.382812 C 127.945312 47.347656 127.511719 48.328125 127.101562 49.316406 C 126.691406 50.304688 126.308594 51.300781 125.949219 52.308594 C 125.585938 53.316406 125.253906 54.332031 124.941406 55.355469 C 124.632812 56.378906 124.347656 57.410156 124.085938 58.445312 C 123.828125 59.484375 123.59375 60.527344 123.382812 61.574219 C 123.175781 62.625 122.992188 63.679688 122.835938 64.738281 C 122.679688 65.792969 122.546875 66.855469 122.441406 67.921875 C 122.335938 68.984375 122.257812 70.050781 122.207031 71.121094 C 122.152344 72.1875 122.128906 73.257812 122.128906 74.328125 C 122.128906 75.394531 122.15625 76.464844 122.210938 77.53125 C 122.261719 78.601562 122.34375 79.667969 122.449219 80.730469 C 122.554688 81.792969 122.6875 82.855469 122.84375 83.914062 C 123.003906 84.96875 123.1875 86.023438 123.394531 87.070312 C 123.605469 88.121094 123.839844 89.164062 124.101562 90.199219 C 124.359375 91.238281 124.648438 92.265625 124.957031 93.289062 C 125.269531 94.3125 125.605469 95.328125 125.964844 96.335938 C 126.328125 97.339844 126.710938 98.339844 127.121094 99.328125 C 127.53125 100.3125 127.964844 101.292969 128.421875 102.257812 C 128.878906 103.222656 129.363281 104.179688 129.867188 105.121094 C 130.371094 106.0625 130.898438 106.992188 131.449219 107.910156 C 131.996094 108.828125 132.570312 109.730469 133.164062 110.621094 C 133.757812 111.507812 134.375 112.382812 135.011719 113.242188 C 135.648438 114.101562 136.304688 114.941406 136.984375 115.769531 C 137.664062 116.59375 138.363281 117.40625 139.078125 118.199219 C 139.796875 118.988281 140.535156 119.765625 141.292969 120.519531 C 142.046875 121.277344 142.820312 122.011719 143.613281 122.730469 C 144.40625 123.449219 145.214844 124.148438 146.042969 124.824219 C 146.867188 125.503906 147.710938 126.164062 148.570312 126.800781 C 149.429688 127.4375 150.300781 128.050781 151.191406 128.648438 C 152.078125 129.242188 152.984375 129.8125 153.898438 130.363281 C 154.816406 130.914062 155.746094 131.441406 156.691406 131.945312 C 157.632812 132.449219 158.585938 132.929688 159.554688 133.386719 C 160.519531 133.847656 161.496094 134.28125 162.484375 134.6875 C 163.472656 135.097656 164.46875 135.484375 165.476562 135.84375 C 166.484375 136.207031 167.496094 136.542969 168.519531 136.851562 C 169.542969 137.164062 170.574219 137.449219 171.609375 137.710938 C 172.648438 137.972656 173.691406 138.207031 174.738281 138.414062 C 175.789062 138.625 176.839844 138.808594 177.898438 138.964844 C 178.957031 139.125 180.015625 139.257812 181.082031 139.363281 C 182.144531 139.46875 183.210938 139.546875 184.277344 139.601562 C 185.347656 139.65625 186.414062 139.683594 187.484375 139.683594 Z M 157.539062 65.621094 C 157.839844 65.316406 158.171875 65.046875 158.527344 64.808594 C 158.886719 64.570312 159.261719 64.367188 159.65625 64.203125 C 160.054688 64.039062 160.464844 63.917969 160.882812 63.832031 C 161.304688 63.75 161.730469 63.707031 162.160156 63.707031 C 162.585938 63.707031 163.011719 63.75 163.433594 63.832031 C 163.855469 63.917969 164.261719 64.039062 164.660156 64.203125 C 165.054688 64.367188 165.433594 64.570312 165.789062 64.808594 C 166.144531 65.046875 166.476562 65.316406 166.78125 65.621094 L 181.765625 80.605469 L 208.191406 54.183594 C 208.496094 53.886719 208.824219 53.625 209.183594 53.394531 C 209.539062 53.164062 209.914062 52.972656 210.308594 52.8125 C 210.703125 52.65625 211.109375 52.539062 211.523438 52.460938 C 211.941406 52.382812 212.363281 52.34375 212.785156 52.347656 C 213.210938 52.351562 213.632812 52.398438 214.046875 52.484375 C 214.460938 52.566406 214.867188 52.691406 215.257812 52.855469 C 215.648438 53.019531 216.019531 53.222656 216.375 53.457031 C 216.726562 53.695312 217.050781 53.960938 217.351562 54.261719 C 217.652344 54.5625 217.921875 54.890625 218.15625 55.242188 C 218.394531 55.59375 218.59375 55.964844 218.757812 56.355469 C 218.921875 56.75 219.046875 57.152344 219.132812 57.566406 C 219.21875 57.984375 219.261719 58.402344 219.265625 58.828125 C 219.269531 59.25 219.230469 59.671875 219.152344 60.089844 C 219.074219 60.507812 218.957031 60.914062 218.800781 61.304688 C 218.644531 61.699219 218.449219 62.074219 218.21875 62.433594 C 217.988281 62.789062 217.726562 63.121094 217.429688 63.425781 L 186.386719 94.46875 C 186.082031 94.773438 185.753906 95.042969 185.394531 95.28125 C 185.039062 95.519531 184.664062 95.722656 184.265625 95.886719 C 183.871094 96.050781 183.460938 96.171875 183.039062 96.257812 C 182.621094 96.339844 182.195312 96.382812 181.765625 96.382812 C 181.335938 96.382812 180.910156 96.339844 180.492188 96.257812 C 180.070312 96.171875 179.660156 96.050781 179.265625 95.886719 C 178.867188 95.722656 178.492188 95.519531 178.136719 95.28125 C 177.777344 95.042969 177.449219 94.773438 177.144531 94.46875 L 157.539062 74.863281 C 157.234375 74.558594 156.964844 74.230469 156.726562 73.871094 C 156.488281 73.515625 156.285156 73.136719 156.121094 72.742188 C 155.957031 72.347656 155.832031 71.9375 155.75 71.515625 C 155.667969 71.09375 155.625 70.671875 155.625 70.242188 C 155.625 69.8125 155.667969 69.386719 155.75 68.964844 C 155.832031 68.546875 155.957031 68.136719 156.121094 67.742188 C 156.285156 67.34375 156.488281 66.96875 156.726562 66.609375 C 156.964844 66.253906 157.234375 65.925781 157.539062 65.621094 Z M 157.539062 65.621094 "
       fill-opacity="1"
       fill-rule="nonzero"
       id="path10"
       style="fill-opacity:1;fill:url(#linearGradient2367)" />
  </g>
  <g
     clip-path="url(#id2)"
     id="g22"
     style="fill-opacity:1;fill:url(#linearGradient881)">
    <path
       fill="rgb(0%, 0%, 0%)"
       d="M 350.878906 113.539062 L 255.304688 113.539062 C 253.597656 116.507812 251.703125 119.351562 249.621094 122.070312 C 247.539062 124.785156 245.289062 127.355469 242.871094 129.78125 C 240.453125 132.203125 237.886719 134.457031 235.171875 136.542969 C 232.457031 138.628906 229.617188 140.53125 226.65625 142.242188 C 223.691406 143.957031 220.628906 145.46875 217.464844 146.78125 C 214.304688 148.09375 211.070312 149.191406 207.761719 150.078125 C 204.457031 150.964844 201.105469 151.632812 197.710938 152.082031 C 194.316406 152.527344 190.90625 152.75 187.484375 152.75 C 184.0625 152.75 180.652344 152.527344 177.257812 152.082031 C 173.863281 151.632812 170.511719 150.964844 167.207031 150.078125 C 163.902344 149.191406 160.664062 148.09375 157.503906 146.78125 C 154.339844 145.46875 151.277344 143.957031 148.316406 142.242188 C 145.351562 140.53125 142.511719 138.628906 139.796875 136.542969 C 137.082031 134.457031 134.515625 132.203125 132.097656 129.78125 C 129.679688 127.355469 127.429688 124.785156 125.347656 122.070312 C 123.265625 119.351562 121.371094 116.507812 119.664062 113.539062 L 24.089844 113.539062 C 23.449219 113.539062 22.808594 113.570312 22.171875 113.636719 C 21.53125 113.699219 20.894531 113.792969 20.265625 113.917969 C 19.636719 114.042969 19.015625 114.199219 18.398438 114.386719 C 17.785156 114.570312 17.183594 114.789062 16.589844 115.03125 C 15.996094 115.277344 15.414062 115.554688 14.847656 115.855469 C 14.28125 116.160156 13.734375 116.488281 13.199219 116.84375 C 12.664062 117.203125 12.148438 117.582031 11.652344 117.992188 C 11.15625 118.398438 10.679688 118.828125 10.226562 119.285156 C 9.773438 119.738281 9.34375 120.210938 8.933594 120.710938 C 8.527344 121.207031 8.144531 121.722656 7.789062 122.253906 C 7.433594 122.789062 7.101562 123.339844 6.800781 123.90625 C 6.496094 124.472656 6.222656 125.050781 5.976562 125.644531 C 5.730469 126.238281 5.515625 126.839844 5.328125 127.457031 C 5.140625 128.070312 4.988281 128.691406 4.863281 129.324219 C 4.734375 129.953125 4.640625 130.585938 4.578125 131.226562 C 4.515625 131.863281 4.484375 132.503906 4.484375 133.148438 L 4.484375 355.363281 C 4.484375 356.003906 4.515625 356.644531 4.578125 357.285156 C 4.640625 357.921875 4.734375 358.558594 4.863281 359.1875 C 4.988281 359.816406 5.140625 360.4375 5.328125 361.054688 C 5.515625 361.667969 5.730469 362.273438 5.976562 362.867188 C 6.222656 363.457031 6.496094 364.039062 6.800781 364.605469 C 7.101562 365.171875 7.433594 365.722656 7.789062 366.253906 C 8.144531 366.789062 8.527344 367.304688 8.933594 367.800781 C 9.34375 368.296875 9.773438 368.773438 10.226562 369.226562 C 10.679688 369.679688 11.15625 370.109375 11.652344 370.519531 C 12.148438 370.925781 12.664062 371.308594 13.199219 371.664062 C 13.734375 372.023438 14.28125 372.351562 14.847656 372.652344 C 15.414062 372.957031 15.996094 373.230469 16.589844 373.476562 C 17.183594 373.722656 17.785156 373.9375 18.398438 374.125 C 19.015625 374.3125 19.636719 374.46875 20.265625 374.59375 C 20.894531 374.71875 21.53125 374.8125 22.171875 374.875 C 22.808594 374.9375 23.449219 374.96875 24.089844 374.96875 L 350.878906 374.96875 C 351.519531 374.96875 352.160156 374.9375 352.800781 374.875 C 353.4375 374.8125 354.074219 374.71875 354.703125 374.59375 C 355.332031 374.46875 355.953125 374.3125 356.570312 374.125 C 357.183594 373.9375 357.789062 373.722656 358.378906 373.476562 C 358.972656 373.230469 359.554688 372.957031 360.121094 372.652344 C 360.6875 372.351562 361.238281 372.023438 361.769531 371.664062 C 362.304688 371.308594 362.820312 370.925781 363.316406 370.519531 C 363.8125 370.109375 364.289062 369.679688 364.742188 369.226562 C 365.195312 368.773438 365.625 368.296875 366.035156 367.800781 C 366.441406 367.304688 366.824219 366.789062 367.179688 366.253906 C 367.535156 365.722656 367.867188 365.171875 368.167969 364.605469 C 368.472656 364.039062 368.746094 363.457031 368.992188 362.867188 C 369.238281 362.273438 369.453125 361.667969 369.640625 361.054688 C 369.828125 360.4375 369.984375 359.816406 370.109375 359.1875 C 370.234375 358.558594 370.328125 357.921875 370.390625 357.285156 C 370.453125 356.644531 370.484375 356.003906 370.484375 355.363281 L 370.484375 133.148438 C 370.484375 132.503906 370.453125 131.863281 370.390625 131.226562 C 370.328125 130.585938 370.234375 129.953125 370.109375 129.324219 C 369.984375 128.691406 369.828125 128.070312 369.640625 127.457031 C 369.453125 126.839844 369.238281 126.238281 368.992188 125.644531 C 368.746094 125.050781 368.472656 124.472656 368.167969 123.90625 C 367.867188 123.339844 367.535156 122.789062 367.179688 122.253906 C 366.824219 121.722656 366.441406 121.207031 366.035156 120.710938 C 365.625 120.210938 365.195312 119.738281 364.742188 119.285156 C 364.289062 118.828125 363.8125 118.398438 363.316406 117.992188 C 362.820312 117.582031 362.304688 117.203125 361.769531 116.84375 C 361.238281 116.488281 360.6875 116.160156 360.121094 115.855469 C 359.554688 115.554688 358.972656 115.277344 358.378906 115.03125 C 357.789062 114.789062 357.183594 114.570312 356.570312 114.386719 C 355.953125 114.199219 355.332031 114.042969 354.703125 113.917969 C 354.074219 113.792969 353.4375 113.699219 352.800781 113.636719 C 352.160156 113.570312 351.519531 113.539062 350.878906 113.539062 Z M 174.414062 316.148438 C 174.414062 316.578125 174.371094 317 174.289062 317.421875 C 174.203125 317.84375 174.078125 318.253906 173.914062 318.648438 C 173.75 319.046875 173.550781 319.421875 173.3125 319.777344 C 173.074219 320.136719 172.800781 320.464844 172.5 320.769531 C 172.195312 321.074219 171.867188 321.34375 171.507812 321.582031 C 171.152344 321.820312 170.773438 322.023438 170.378906 322.1875 C 169.980469 322.351562 169.574219 322.472656 169.152344 322.558594 C 168.730469 322.640625 168.304688 322.683594 167.878906 322.683594 L 50.234375 322.683594 C 49.804688 322.683594 49.378906 322.640625 48.960938 322.558594 C 48.539062 322.472656 48.128906 322.351562 47.734375 322.1875 C 47.335938 322.023438 46.960938 321.820312 46.605469 321.582031 C 46.246094 321.34375 45.917969 321.074219 45.613281 320.769531 C 45.308594 320.464844 45.039062 320.136719 44.800781 319.777344 C 44.5625 319.421875 44.359375 319.046875 44.195312 318.648438 C 44.03125 318.253906 43.90625 317.84375 43.824219 317.421875 C 43.742188 317 43.699219 316.578125 43.699219 316.148438 L 43.699219 309.613281 C 43.699219 308.019531 43.761719 306.433594 43.878906 304.84375 C 43.996094 303.257812 44.171875 301.675781 44.402344 300.101562 C 44.636719 298.527344 44.925781 296.964844 45.273438 295.414062 C 45.621094 293.859375 46.023438 292.320312 46.484375 290.796875 C 46.941406 289.273438 47.457031 287.769531 48.023438 286.285156 C 48.59375 284.796875 49.214844 283.335938 49.890625 281.894531 C 50.566406 280.453125 51.296875 279.039062 52.074219 277.652344 C 52.851562 276.261719 53.679688 274.90625 54.558594 273.578125 C 55.4375 272.25 56.363281 270.957031 57.332031 269.699219 C 58.304688 268.4375 59.324219 267.214844 60.382812 266.03125 C 61.445312 264.84375 62.546875 263.699219 63.695312 262.59375 C 64.839844 261.488281 66.023438 260.425781 67.246094 259.410156 C 68.46875 258.390625 69.726562 257.417969 71.019531 256.488281 C 72.3125 255.5625 73.636719 254.683594 74.996094 253.851562 C 76.351562 253.023438 77.738281 252.242188 79.152344 251.515625 C 80.566406 250.785156 82.003906 250.109375 83.46875 249.484375 C 82.796875 249.03125 82.140625 248.558594 81.492188 248.074219 C 80.847656 247.585938 80.214844 247.078125 79.59375 246.558594 C 78.972656 246.035156 78.367188 245.5 77.777344 244.945312 C 77.1875 244.390625 76.613281 243.824219 76.050781 243.238281 C 75.488281 242.65625 74.945312 242.054688 74.417969 241.445312 C 73.886719 240.832031 73.375 240.203125 72.878906 239.5625 C 72.382812 238.921875 71.90625 238.269531 71.445312 237.605469 C 70.984375 236.9375 70.539062 236.261719 70.113281 235.570312 C 69.691406 234.882812 69.285156 234.183594 68.894531 233.472656 C 68.507812 232.761719 68.140625 232.039062 67.789062 231.308594 C 67.441406 230.578125 67.109375 229.839844 66.800781 229.09375 C 66.488281 228.34375 66.199219 227.589844 65.929688 226.824219 C 65.660156 226.0625 65.410156 225.292969 65.179688 224.515625 C 64.949219 223.738281 64.742188 222.957031 64.554688 222.167969 C 64.367188 221.382812 64.199219 220.589844 64.054688 219.792969 C 63.90625 218.996094 63.78125 218.199219 63.679688 217.394531 C 63.578125 216.589844 63.496094 215.785156 63.433594 214.976562 C 63.375 214.171875 63.335938 213.363281 63.316406 212.554688 C 63.300781 211.742188 63.304688 210.933594 63.328125 210.125 C 63.355469 209.316406 63.402344 208.507812 63.46875 207.699219 C 63.539062 206.894531 63.625 206.089844 63.738281 205.285156 C 63.847656 204.484375 63.980469 203.6875 64.132812 202.890625 C 64.289062 202.097656 64.460938 201.304688 64.65625 200.519531 C 64.851562 199.734375 65.070312 198.953125 65.304688 198.179688 C 65.542969 197.40625 65.800781 196.636719 66.078125 195.878906 C 66.355469 195.117188 66.652344 194.363281 66.96875 193.617188 C 67.289062 192.875 67.625 192.136719 67.980469 191.410156 C 68.335938 190.683594 68.714844 189.964844 69.109375 189.257812 C 69.503906 188.550781 69.914062 187.855469 70.347656 187.171875 C 70.777344 186.488281 71.226562 185.8125 71.695312 185.152344 C 72.164062 184.492188 72.648438 183.84375 73.148438 183.207031 C 73.652344 182.570312 74.167969 181.949219 74.703125 181.339844 C 75.238281 180.734375 75.789062 180.140625 76.355469 179.5625 C 76.921875 178.984375 77.503906 178.417969 78.101562 177.871094 C 78.695312 177.324219 79.304688 176.792969 79.929688 176.277344 C 80.554688 175.761719 81.191406 175.261719 81.84375 174.78125 C 82.496094 174.300781 83.15625 173.835938 83.832031 173.390625 C 84.507812 172.941406 85.195312 172.515625 85.894531 172.105469 C 86.59375 171.695312 87.300781 171.304688 88.019531 170.929688 C 88.738281 170.558594 89.46875 170.207031 90.207031 169.871094 C 90.945312 169.539062 91.691406 169.222656 92.445312 168.929688 C 93.199219 168.636719 93.960938 168.363281 94.730469 168.109375 C 95.5 167.855469 96.273438 167.621094 97.054688 167.410156 C 97.835938 167.199219 98.621094 167.007812 99.414062 166.835938 C 100.207031 166.664062 101 166.515625 101.800781 166.386719 C 102.601562 166.257812 103.402344 166.152344 104.207031 166.066406 C 105.011719 165.980469 105.820312 165.914062 106.628906 165.871094 C 107.4375 165.828125 108.246094 165.808594 109.054688 165.808594 C 109.867188 165.808594 110.675781 165.828125 111.484375 165.871094 C 112.292969 165.914062 113.097656 165.980469 113.902344 166.066406 C 114.710938 166.152344 115.511719 166.257812 116.3125 166.386719 C 117.109375 166.515625 117.90625 166.664062 118.699219 166.835938 C 119.488281 167.007812 120.277344 167.199219 121.058594 167.410156 C 121.839844 167.621094 122.613281 167.855469 123.382812 168.109375 C 124.152344 168.363281 124.914062 168.636719 125.667969 168.929688 C 126.421875 169.222656 127.167969 169.539062 127.90625 169.871094 C 128.644531 170.207031 129.371094 170.558594 130.089844 170.929688 C 130.8125 171.304688 131.519531 171.695312 132.21875 172.105469 C 132.914062 172.515625 133.601562 172.941406 134.277344 173.390625 C 134.953125 173.835938 135.617188 174.300781 136.269531 174.78125 C 136.917969 175.261719 137.558594 175.761719 138.179688 176.277344 C 138.804688 176.792969 139.417969 177.324219 140.011719 177.871094 C 140.609375 178.417969 141.191406 178.984375 141.757812 179.5625 C 142.324219 180.140625 142.871094 180.734375 143.40625 181.339844 C 143.941406 181.949219 144.460938 182.570312 144.960938 183.207031 C 145.464844 183.84375 145.949219 184.492188 146.417969 185.152344 C 146.882812 185.8125 147.332031 186.488281 147.765625 187.171875 C 148.195312 187.855469 148.609375 188.550781 149.003906 189.257812 C 149.398438 189.964844 149.773438 190.683594 150.132812 191.410156 C 150.488281 192.136719 150.824219 192.875 151.140625 193.617188 C 151.460938 194.363281 151.757812 195.117188 152.035156 195.875 C 152.3125 196.636719 152.570312 197.40625 152.804688 198.179688 C 153.042969 198.953125 153.257812 199.734375 153.453125 200.519531 C 153.648438 201.304688 153.824219 202.097656 153.976562 202.890625 C 154.132812 203.6875 154.261719 204.484375 154.375 205.285156 C 154.484375 206.089844 154.574219 206.894531 154.644531 207.699219 C 154.710938 208.507812 154.757812 209.316406 154.785156 210.125 C 154.808594 210.933594 154.8125 211.742188 154.796875 212.554688 C 154.777344 213.363281 154.738281 214.171875 154.679688 214.976562 C 154.617188 215.785156 154.535156 216.589844 154.433594 217.394531 C 154.328125 218.195312 154.203125 218.996094 154.058594 219.792969 C 153.914062 220.589844 153.746094 221.382812 153.558594 222.167969 C 153.371094 222.957031 153.160156 223.738281 152.933594 224.515625 C 152.703125 225.292969 152.453125 226.0625 152.183594 226.824219 C 151.914062 227.589844 151.621094 228.34375 151.3125 229.09375 C 151.003906 229.839844 150.671875 230.578125 150.324219 231.308594 C 149.972656 232.039062 149.605469 232.761719 149.214844 233.472656 C 148.828125 234.183594 148.421875 234.882812 147.996094 235.570312 C 147.570312 236.261719 147.128906 236.9375 146.667969 237.605469 C 146.207031 238.269531 145.730469 238.921875 145.234375 239.5625 C 144.738281 240.203125 144.226562 240.832031 143.695312 241.445312 C 143.167969 242.054688 142.621094 242.65625 142.0625 243.238281 C 141.5 243.824219 140.925781 244.390625 140.332031 244.945312 C 139.742188 245.5 139.136719 246.035156 138.519531 246.558594 C 137.898438 247.078125 137.265625 247.585938 136.621094 248.074219 C 135.972656 248.558594 135.316406 249.03125 134.644531 249.484375 C 136.105469 250.109375 137.546875 250.785156 138.960938 251.515625 C 140.375 252.242188 141.761719 253.023438 143.117188 253.851562 C 144.476562 254.683594 145.800781 255.5625 147.09375 256.488281 C 148.386719 257.417969 149.644531 258.390625 150.867188 259.410156 C 152.089844 260.425781 153.273438 261.488281 154.417969 262.59375 C 155.5625 263.699219 156.667969 264.84375 157.726562 266.03125 C 158.789062 267.214844 159.804688 268.4375 160.777344 269.699219 C 161.75 270.957031 162.675781 272.25 163.554688 273.578125 C 164.429688 274.90625 165.257812 276.261719 166.039062 277.652344 C 166.816406 279.039062 167.542969 280.453125 168.21875 281.894531 C 168.894531 283.335938 169.519531 284.796875 170.085938 286.285156 C 170.65625 287.769531 171.167969 289.273438 171.628906 290.796875 C 172.089844 292.320312 172.492188 293.859375 172.839844 295.414062 C 173.183594 296.964844 173.476562 298.527344 173.707031 300.101562 C 173.941406 301.675781 174.117188 303.257812 174.234375 304.84375 C 174.351562 306.433594 174.410156 308.019531 174.414062 309.613281 Z M 331.269531 290.003906 C 331.269531 290.433594 331.226562 290.859375 331.144531 291.28125 C 331.0625 291.699219 330.9375 292.109375 330.773438 292.507812 C 330.609375 292.902344 330.40625 293.277344 330.167969 293.636719 C 329.929688 293.992188 329.660156 294.324219 329.355469 294.625 C 329.050781 294.929688 328.722656 295.199219 328.367188 295.4375 C 328.007812 295.675781 327.632812 295.878906 327.234375 296.042969 C 326.839844 296.207031 326.429688 296.332031 326.007812 296.414062 C 325.589844 296.5 325.164062 296.539062 324.734375 296.539062 L 194.019531 296.539062 C 193.589844 296.539062 193.167969 296.5 192.746094 296.414062 C 192.324219 296.332031 191.914062 296.207031 191.519531 296.042969 C 191.121094 295.878906 190.746094 295.675781 190.390625 295.4375 C 190.03125 295.199219 189.703125 294.929688 189.398438 294.625 C 189.09375 294.324219 188.824219 293.992188 188.585938 293.636719 C 188.347656 293.277344 188.144531 292.902344 187.980469 292.507812 C 187.816406 292.109375 187.695312 291.699219 187.609375 291.28125 C 187.527344 290.859375 187.484375 290.433594 187.484375 290.003906 L 187.484375 263.863281 C 187.484375 263.433594 187.527344 263.007812 187.609375 262.585938 C 187.695312 262.167969 187.816406 261.757812 187.980469 261.359375 C 188.144531 260.964844 188.347656 260.585938 188.585938 260.230469 C 188.824219 259.875 189.09375 259.542969 189.398438 259.242188 C 189.703125 258.9375 190.03125 258.667969 190.390625 258.429688 C 190.746094 258.1875 191.121094 257.988281 191.519531 257.824219 C 191.914062 257.660156 192.324219 257.535156 192.746094 257.453125 C 193.167969 257.367188 193.589844 257.328125 194.019531 257.328125 L 324.734375 257.328125 C 325.164062 257.328125 325.589844 257.367188 326.007812 257.453125 C 326.429688 257.535156 326.839844 257.660156 327.234375 257.824219 C 327.632812 257.988281 328.007812 258.1875 328.367188 258.429688 C 328.722656 258.667969 329.050781 258.9375 329.355469 259.242188 C 329.660156 259.542969 329.929688 259.875 330.167969 260.230469 C 330.40625 260.585938 330.609375 260.964844 330.773438 261.359375 C 330.9375 261.757812 331.0625 262.167969 331.144531 262.585938 C 331.226562 263.007812 331.269531 263.433594 331.269531 263.863281 Z M 331.269531 224.648438 C 331.269531 225.078125 331.226562 225.503906 331.144531 225.921875 C 331.0625 226.34375 330.9375 226.753906 330.773438 227.148438 C 330.609375 227.546875 330.40625 227.921875 330.167969 228.277344 C 329.929688 228.636719 329.660156 228.964844 329.355469 229.269531 C 329.050781 229.574219 328.722656 229.84375 328.367188 230.082031 C 328.007812 230.320312 327.632812 230.523438 327.234375 230.6875 C 326.839844 230.851562 326.429688 230.972656 326.007812 231.058594 C 325.589844 231.140625 325.164062 231.183594 324.734375 231.183594 L 194.019531 231.183594 C 193.589844 231.183594 193.167969 231.140625 192.746094 231.058594 C 192.324219 230.972656 191.914062 230.851562 191.519531 230.6875 C 191.121094 230.523438 190.746094 230.320312 190.390625 230.082031 C 190.03125 229.84375 189.703125 229.574219 189.398438 229.269531 C 189.09375 228.964844 188.824219 228.636719 188.585938 228.277344 C 188.347656 227.921875 188.144531 227.546875 187.980469 227.148438 C 187.816406 226.753906 187.695312 226.34375 187.609375 225.921875 C 187.527344 225.503906 187.484375 225.078125 187.484375 224.648438 L 187.484375 198.503906 C 187.484375 198.074219 187.527344 197.652344 187.609375 197.230469 C 187.695312 196.808594 187.816406 196.398438 187.980469 196.003906 C 188.144531 195.605469 188.347656 195.230469 188.585938 194.875 C 188.824219 194.515625 189.09375 194.1875 189.398438 193.882812 C 189.703125 193.578125 190.03125 193.308594 190.390625 193.070312 C 190.746094 192.832031 191.121094 192.632812 191.519531 192.464844 C 191.914062 192.300781 192.324219 192.179688 192.746094 192.09375 C 193.167969 192.011719 193.589844 191.96875 194.019531 191.96875 L 324.734375 191.96875 C 325.164062 191.96875 325.589844 192.011719 326.007812 192.09375 C 326.429688 192.179688 326.839844 192.300781 327.234375 192.464844 C 327.632812 192.632812 328.007812 192.832031 328.367188 193.070312 C 328.722656 193.308594 329.050781 193.578125 329.355469 193.882812 C 329.660156 194.1875 329.929688 194.515625 330.167969 194.875 C 330.40625 195.230469 330.609375 195.605469 330.773438 196.003906 C 330.9375 196.398438 331.0625 196.808594 331.144531 197.230469 C 331.226562 197.652344 331.269531 198.074219 331.269531 198.503906 Z M 331.269531 224.648438 "
       fill-opacity="1"
       fill-rule="nonzero"
       id="path20"
       style="fill-opacity:1;fill:url(#linearGradient3107)" />
  </g>
</svg>
