<?xml version="1.0" encoding="UTF-8" standalone="no"?>
<svg
   width="224.88"
   viewBox="0 0 224.88 225"
   height="225"
   version="1.0"
   id="svg37"
   sodipodi:docname="vectorcon.svg"
   inkscape:version="1.1.1 (3bf5ae0d25, 2021-09-20)"
   xmlns:inkscape="http://www.inkscape.org/namespaces/inkscape"
   xmlns:sodipodi="http://sodipodi.sourceforge.net/DTD/sodipodi-0.dtd"
   xmlns:xlink="http://www.w3.org/1999/xlink"
   xmlns="http://www.w3.org/2000/svg"
   xmlns:svg="http://www.w3.org/2000/svg">
  <sodipodi:namedview
     id="namedview39"
     pagecolor="#ffffff"
     bordercolor="#666666"
     borderopacity="1.0"
     inkscape:pageshadow="2"
     inkscape:pageopacity="0.0"
     inkscape:pagecheckerboard="0"
     showgrid="false"
     showguides="true"
     inkscape:guide-bbox="true"
     inkscape:zoom="1.5955556"
     inkscape:cx="13.47493"
     inkscape:cy="100.59192"
     inkscape:window-width="1920"
     inkscape:window-height="991"
     inkscape:window-x="-9"
     inkscape:window-y="-9"
     inkscape:window-maximized="1"
     inkscape:current-layer="svg37">
    <sodipodi:guide
       position="205.8844,5.6406685"
       orientation="0,-1"
       id="guide1309" />
  </sodipodi:namedview>
  <defs
     id="defs11">
    <linearGradient
       inkscape:collect="always"
       id="linearGradient1377">
      <stop
         style="stop-color:#e9918d;stop-opacity:1"
         offset="0"
         id="stop1373" />
      <stop
         style="stop-color:#8c75e9;stop-opacity:0.98765433"
         offset="1"
         id="stop1375" />
    </linearGradient>
    <clipPath
       id="a">
      <path
         d="M 21 33 L 222.472656 33 L 222.472656 166 L 21 166 Z M 21 33"
         id="path2" />
    </clipPath>
    <clipPath
       id="b">
      <path
         d="M 177 4.542969 L 202 4.542969 L 202 29 L 177 29 Z M 177 4.542969"
         id="path5" />
    </clipPath>
    <clipPath
       id="c">
      <path
         d="M 85 187 L 118.648438 187 L 118.648438 220.429688 L 85 220.429688 Z M 85 187"
         id="path8" />
    </clipPath>
    <linearGradient
       inkscape:collect="always"
       xlink:href="#linearGradient1377"
       id="linearGradient1379"
       x1="70.785156"
       y1="96.517578"
       x2="134.12256"
       y2="41.991646"
       gradientUnits="userSpaceOnUse" />
  </defs>
  <g
     id="g1323"
     style="fill:url(#linearGradient1379);fill-opacity:1">
    <path
       id="path13"
       d="M 73.152344 70.984375 C 71.851562 70.984375 70.785156 72.042969 70.785156 73.355469 L 70.785156 96.517578 L 75.53125 96.517578 L 75.53125 75.726562 L 108.70703 75.726562 L 108.70703 108.94531 L 75.53125 108.94531 L 75.53125 102.1582 L 70.785156 102.1582 L 70.785156 111.32422 C 70.785156 112.63672 71.851562 113.69531 73.152344 113.69531 L 111.07422 113.69531 C 112.38672 113.69531 113.44922 112.63672 113.44922 111.32422 L 113.44922 73.355469 C 113.44922 72.042969 112.38672 70.984375 111.07422 70.984375 L 73.152344 70.984375 z "
       style="fill:url(#linearGradient1379);fill-opacity:1.0" />
    <path
       id="path15"
       d="M 111.07422 51.992188 C 99.316406 51.992188 89.746094 61.574219 89.746094 73.355469 C 89.746094 85.128906 99.316406 94.710938 111.07422 94.710938 C 122.83984 94.710938 132.40625 85.128906 132.41016 73.355469 C 132.41016 72.281954 132.32913 71.226722 132.17578 70.195312 L 127.36328 70.195312 C 127.56029 71.216778 127.66797 72.269476 127.66797 73.347656 C 127.66797 82.511719 120.22656 89.960938 111.07422 89.960938 C 101.92969 89.960938 94.488281 82.511719 94.488281 73.347656 C 94.488281 64.191406 101.92969 56.742188 111.07422 56.742188 C 117.00019 56.742188 122.20667 59.867477 125.14258 64.554688 L 130.50781 64.554688 C 127.15196 57.153819 119.70701 51.992188 111.07422 51.992188 z "
       style="fill:url(#linearGradient1379);fill-opacity:1.0" />
    <path
       id="path17"
       d="M 166.85156 47.242188 C 162.23438 47.242188 158.47656 51.011719 158.47656 55.632812 L 158.47656 130.30078 C 158.47656 130.67578 158.56641 131.03906 158.73047 131.36719 L 168.21094 150.35547 C 168.60937 151.15234 169.42969 151.66406 170.32422 151.66406 C 171.22266 151.66406 172.05078 151.15234 172.44922 150.35547 L 181.92188 131.36719 C 182.08984 131.03906 182.18359 130.67578 182.18359 130.30078 L 182.18359 86.814453 L 177.4375 86.814453 L 177.4375 129.75 L 170.32422 143.98438 L 163.22266 129.75 L 163.22266 55.632812 C 163.22266 53.625 164.85547 51.992188 166.85156 51.992188 L 173.80078 51.992188 C 175.8125 51.992188 177.4375 53.625 177.4375 55.632812 L 177.4375 80.525391 L 182.18359 80.525391 L 182.18359 55.632812 C 182.18359 51.011719 178.42578 47.242188 173.80078 47.242188 L 166.85156 47.242188 z "
       style="fill:url(#linearGradient1379);fill-opacity:1.0" />
    <path
       d="M 179.804688 70.976562 L 160.851562 70.976562 C 159.535156 70.976562 158.476562 69.917969 158.476562 68.605469 C 158.476562 67.300781 159.535156 66.234375 160.851562 66.234375 L 179.804688 66.234375 C 181.117188 66.234375 182.183594 67.292969 182.183594 68.605469 C 182.183594 69.917969 181.125 70.976562 179.804688 70.976562"
       fill-rule="evenodd"
       id="path19"
       style="fill:url(#linearGradient1379);fill-opacity:1.0" />
    <g
       clip-path="url(#a)"
       id="g23"
       transform="matrix(1,0,0,-1,0,198.91016)"
       style="fill:url(#linearGradient1379);fill-opacity:1.0">
      <path
         d="M 220.10156,165.90234 H 23.382812 c -1.308593,0 -2.367187,-1.0625 -2.367187,-2.37109 V 35.386719 c 0,-1.3125 1.058594,-2.378907 2.367187,-2.378907 H 220.10156 c 1.30469,0 2.3711,1.066407 2.3711,2.378907 V 163.53125 c 0,1.30859 -1.06641,2.37109 -2.3711,2.37109 z M 25.753906,161.15625 H 217.72656 V 37.757812 H 25.753906 V 161.15625"
         fill-rule="evenodd"
         id="path21"
         style="fill:url(#linearGradient1379);fill-opacity:1.0" />
    </g>
    <path
       id="path25"
       d="M 4.421875 49.621094 C 3.121094 49.621094 2.0546875 50.6875 2.0546875 51.992188 L 2.0546875 66.445312 L 6.7929688 66.445312 L 6.7929688 54.363281 L 23.382812 54.363281 C 24.695312 54.363281 25.757812 53.304688 25.757812 51.992188 C 25.757812 50.679688 24.695312 49.621094 23.382812 49.621094 L 4.421875 49.621094 z M 2.0546875 72.064453 L 2.0546875 180.14453 C 2.0546875 181.44922 3.121094 182.51562 4.421875 182.51562 L 186.91797 182.51562 C 188.23047 182.51563 189.29297 181.45313 189.29297 180.14453 L 189.29297 163.53125 C 189.29297 162.21875 188.23047 161.15625 186.91797 161.15625 C 185.60937 161.15625 184.55078 162.21875 184.55078 163.53125 L 184.55078 177.76562 L 6.7929688 177.76562 L 6.7929688 72.064453 L 2.0546875 72.064453 z "
       style="fill:url(#linearGradient1379);fill-opacity:1.0" />
    <g
       clip-path="url(#b)"
       id="g29"
       style="fill:url(#linearGradient1379);fill-opacity:1.0">
      <path
         d="M 189.292969 28.265625 C 182.757812 28.265625 177.4375 22.941406 177.4375 16.402344 C 177.4375 9.863281 182.757812 4.539062 189.292969 4.539062 C 195.824219 4.539062 201.140625 9.863281 201.140625 16.402344 C 201.140625 22.941406 195.824219 28.265625 189.292969 28.265625 Z M 189.292969 9.28125 C 185.371094 9.28125 182.183594 12.472656 182.183594 16.402344 C 182.183594 20.324219 185.371094 23.523438 189.292969 23.523438 C 193.210938 23.523438 196.398438 20.324219 196.398438 16.402344 C 196.398438 12.472656 193.210938 9.28125 189.292969 9.28125"
         fill-rule="evenodd"
         id="path27"
         style="fill:url(#linearGradient1379);fill-opacity:1.0" />
    </g>
    <g
       clip-path="url(#c)"
       id="g33"
       style="fill:url(#linearGradient1379);fill-opacity:1.0">
      <path
         d="M 101.59375 220.484375 C 92.449219 220.484375 85.003906 213.03125 85.003906 203.871094 C 85.003906 194.714844 92.449219 187.257812 101.59375 187.257812 C 110.746094 187.257812 118.1875 194.714844 118.1875 203.871094 C 118.1875 213.03125 110.746094 220.484375 101.59375 220.484375 Z M 101.59375 192.007812 C 95.066406 192.007812 89.746094 197.332031 89.746094 203.871094 C 89.746094 210.414062 95.066406 215.734375 101.59375 215.734375 C 108.132812 215.734375 113.445312 210.414062 113.445312 203.871094 C 113.445312 197.332031 108.132812 192.007812 101.59375 192.007812"
         fill-rule="evenodd"
         id="path31"
         style="fill:url(#linearGradient1379);fill-opacity:1.0" />
    </g>
    <path
       d="M 170.324219 151.664062 L 134.78125 151.664062 C 133.46875 151.664062 132.40625 150.597656 132.40625 149.289062 L 132.40625 137.421875 L 94.484375 137.421875 C 93.171875 137.421875 92.113281 136.363281 92.113281 135.050781 C 92.113281 133.742188 93.171875 132.679688 94.484375 132.679688 L 134.773438 132.679688 C 136.082031 132.679688 137.148438 133.742188 137.148438 135.050781 L 137.148438 146.914062 L 170.324219 146.914062 C 171.636719 146.914062 172.703125 147.980469 172.703125 149.289062 C 172.703125 150.605469 171.636719 151.664062 170.324219 151.664062"
       fill-rule="evenodd"
       id="path35"
       style="fill:url(#linearGradient1379);fill-opacity:1.0" />
  </g>
</svg>
